<svg width="26" height="25" viewBox="0 0 26 25" fill="none" xmlns="http://www.w3.org/2000/svg">
<path fill-rule="evenodd" clip-rule="evenodd" d="M12.0923 25H25.7939C25.9703 25 26.0649 24.7855 25.9491 24.648L21.8586 19.7875C23.4369 17.5077 24.2293 14.7438 24.1081 11.9406C23.987 9.13743 22.9594 6.45801 21.1907 4.33361C19.422 2.20922 17.0151 0.763412 14.3574 0.228899C11.6997 -0.305614 8.94583 0.102257 6.53893 1.38686C4.13203 2.67147 2.21216 4.75809 1.08829 7.31088C-0.0355733 9.86368 -0.298057 12.7342 0.343096 15.4603C0.984249 18.1865 2.49173 20.6098 4.62293 22.3402C6.75414 24.0706 9.3851 25.0075 12.0923 25ZM5.45636 15.9925C4.93374 14.9167 4.66208 13.7287 4.6632 12.5242C4.6539 11.5071 4.83912 10.4975 5.20821 9.55504C5.5773 8.61259 6.12292 7.75528 6.81353 7.03266C7.50415 6.31004 8.32606 5.73642 9.23181 5.34495C10.1376 4.95348 11.1092 4.75193 12.0905 4.75193C13.0719 4.75193 14.0435 4.95348 14.9492 5.34495C15.855 5.73642 16.6769 6.31004 17.3675 7.03266C18.0581 7.75528 18.6037 8.61259 18.9728 9.55504C19.3419 10.4975 19.5272 11.5064 19.5178 12.5235C19.5148 12.9631 19.4746 13.4017 19.3977 13.834H17.3134L9.15999 13.8543C8.97918 13.8548 8.88689 14.0788 9.01191 14.2138L14.2672 19.8886C13.1563 20.2421 11.9808 20.3203 10.8353 20.1171C9.68986 19.9138 8.60643 19.4347 7.67219 18.7184C6.73795 18.002 5.97897 17.0683 5.45636 15.9925Z" fill="#62CBC1"/>
</svg>
