<svg width="165" height="36" viewBox="0 0 165 36" fill="none" xmlns="http://www.w3.org/2000/svg">
<path fill-rule="evenodd" clip-rule="evenodd" d="M17.9947 35.9999H38.384C38.6465 35.9999 38.7872 35.6911 38.615 35.4931L32.5278 28.494C34.8766 25.2111 36.0557 21.2311 35.8754 17.1945C35.6951 13.1579 34.1659 9.29953 31.5339 6.2404C28.9019 3.18127 25.3202 1.09931 21.3653 0.329614C17.4104 -0.440085 13.3123 0.14725 9.7306 1.99708C6.14889 3.84691 3.29192 6.85164 1.61949 10.5277C-0.0529368 14.2037 -0.443539 18.3372 0.510562 22.2629C1.46466 26.1886 3.70795 29.6782 6.8794 32.1699C10.0508 34.6617 13.966 36.0107 17.9947 35.9999ZM8.11962 23.0292C7.34191 21.48 6.93765 19.7693 6.93932 18.0348C6.92548 16.5702 7.20111 15.1164 7.75035 13.7593C8.29959 12.4021 9.11153 11.1676 10.1392 10.127C11.1669 9.08645 12.39 8.26044 13.7379 7.69673C15.0857 7.13302 16.5316 6.84278 17.9919 6.84278C19.4523 6.84278 20.8981 7.13302 22.246 7.69673C23.5938 8.26044 24.8169 9.08645 25.8446 10.127C26.8723 11.1676 27.6843 12.4021 28.2335 13.7593C28.7827 15.1164 29.0584 16.5692 29.0446 18.0338C29.0401 18.6669 28.9802 19.2984 28.8657 19.921H25.7642L13.631 19.9502C13.3619 19.9508 13.2246 20.2734 13.4106 20.4678L21.2311 28.6395C19.5779 29.1486 17.8286 29.2613 16.1241 28.9686C14.4195 28.6759 12.8073 27.986 11.417 26.9545C10.0268 25.9229 8.89733 24.5784 8.11962 23.0292Z" fill="#62CBC1"/>
<path fill-rule="evenodd" clip-rule="evenodd" d="M60.5203 24.8474L59.5984 25.7504C59.4479 25.9009 59.3162 25.9009 59.2033 25.7504L58.0369 24.5275C57.2091 24.9916 56.237 25.2237 55.1208 25.2237C53.4526 25.2237 52.1545 24.7659 51.2263 23.8503C50.2982 22.9221 49.8341 21.6365 49.8341 19.9934V16.5317C49.8341 14.8886 50.2982 13.6093 51.2263 12.6937C52.1545 11.7781 53.4526 11.3203 55.1208 11.3203C56.7889 11.3203 58.0871 11.7781 59.0152 12.6937C59.9434 13.6093 60.4074 14.8886 60.4074 16.5317V19.9934C60.4074 21.348 60.0813 22.458 59.4291 23.3235L60.5203 24.4523C60.6457 24.5903 60.6457 24.722 60.5203 24.8474ZM52.1482 19.9934C52.1482 22.0253 53.1265 23.0538 55.0831 23.0789C55.5221 23.0789 55.9486 22.9911 56.3625 22.8155L55.0455 21.4233C54.9326 21.2979 54.9326 21.1662 55.0455 21.0282L55.9486 20.1251C56.0991 19.9997 56.2308 19.9997 56.3437 20.1251L57.7735 21.5926C57.9867 21.1035 58.0933 20.5704 58.0933 19.9934V16.5505C58.0933 15.5346 57.8362 14.7632 57.322 14.2364C56.8203 13.7097 56.0865 13.4463 55.1208 13.4463C53.1391 13.4463 52.1482 14.481 52.1482 16.5505V19.9934Z" fill="#62CBC1"/>
<path d="M72.7377 23.9082C73.6784 23.0177 74.1487 21.8262 74.1487 20.3336V11.8486C74.1487 11.6605 74.0546 11.5664 73.8665 11.5664H72.1168C71.9287 11.5664 71.8346 11.6605 71.8346 11.8486V20.2019C71.8346 21.1426 71.5838 21.8701 71.0821 22.3843C70.5929 22.886 69.9031 23.1369 69.0126 23.1369C68.1221 23.1369 67.4322 22.886 66.9431 22.3843C66.4665 21.8701 66.2281 21.1426 66.2281 20.2019V11.8486C66.2281 11.6605 66.1341 11.5664 65.9459 11.5664H64.1963C64.0081 11.5664 63.9141 11.6605 63.9141 11.8486V20.3336C63.9141 21.8136 64.3781 23.0052 65.3063 23.9082C66.2344 24.7987 67.4698 25.244 69.0126 25.244C70.5678 25.244 71.8095 24.7987 72.7377 23.9082Z" fill="#62CBC1"/>
<path fill-rule="evenodd" clip-rule="evenodd" d="M78.5557 25.0182H76.712C76.4988 25.0182 76.4235 24.9116 76.4862 24.6984L81.0015 11.7922C81.0642 11.6417 81.1646 11.5664 81.3025 11.5664H83.4473C83.5853 11.5664 83.6856 11.6417 83.7483 11.7922L88.2636 24.6984C88.3263 24.9116 88.2511 25.0182 88.0378 25.0182H86.1941C86.0185 25.0182 85.9119 24.943 85.8743 24.7925L84.9524 21.9516H79.7974L78.8756 24.7925C78.8254 24.943 78.7188 25.0182 78.5557 25.0182ZM82.3373 14.0498L80.4371 19.9009H84.3127L82.4125 14.0498H82.3373Z" fill="#62CBC1"/>
<path d="M91.1246 25.0182H92.8366C93.0122 25.0182 93.1 24.9242 93.1 24.736V20.4277C93.1 18.9226 93.0436 17.198 92.9307 15.2539L92.9871 15.2351C93.5892 16.5144 94.2602 17.7498 95.0002 18.9414L98.556 24.8301C98.6313 24.9555 98.7379 25.0182 98.8758 25.0182H100.776C100.964 25.0182 101.058 24.9242 101.058 24.736V11.8486C101.058 11.6605 100.964 11.5664 100.776 11.5664H99.0828C98.8946 11.5664 98.8006 11.6605 98.8006 11.8486V16.4392C98.8006 18.2453 98.857 19.9448 98.9699 21.5377L98.9135 21.5565C98.5623 20.8917 97.9352 19.7566 97.0321 18.1512L93.3634 11.7545C93.2756 11.6291 93.1627 11.5664 93.0248 11.5664H91.1246C90.949 11.5664 90.8612 11.6605 90.8612 11.8486V24.736C90.8612 24.9242 90.949 25.0182 91.1246 25.0182Z" fill="#62CBC1"/>
<path d="M104.046 11.5664H113.886C114.074 11.5664 114.168 11.6605 114.168 11.8486V13.3913C114.168 13.5669 114.074 13.6547 113.886 13.6547H110.104V24.736C110.104 24.9242 110.016 25.0182 109.841 25.0182H108.11C107.934 25.0182 107.846 24.9242 107.846 24.736V13.6547H104.046C103.858 13.6547 103.764 13.5669 103.764 13.3913V11.8486C103.764 11.6605 103.858 11.5664 104.046 11.5664Z" fill="#62CBC1"/>
<path d="M125.436 13.3913V11.8486C125.436 11.6605 125.342 11.5664 125.154 11.5664H117.158C116.982 11.5664 116.895 11.6605 116.895 11.8486V24.736C116.895 24.9242 116.982 25.0182 117.158 25.0182H118.889C119.064 25.0182 119.152 24.9242 119.152 24.736V19.6375H124.364C124.539 19.6375 124.627 19.5434 124.627 19.3553V17.8502C124.627 17.6621 124.539 17.568 124.364 17.568H119.152V13.6547H125.154C125.342 13.6547 125.436 13.5669 125.436 13.3913Z" fill="#62CBC1"/>
<path d="M138.608 20.3336C138.608 21.8262 138.137 23.0177 137.197 23.9082C136.269 24.7987 135.027 25.244 133.472 25.244C131.929 25.244 130.694 24.7987 129.765 23.9082C128.837 23.0052 128.373 21.8136 128.373 20.3336V11.8486C128.373 11.6605 128.467 11.5664 128.655 11.5664H130.405C130.593 11.5664 130.687 11.6605 130.687 11.8486V20.2019C130.687 21.1426 130.926 21.8701 131.402 22.3843C131.891 22.886 132.581 23.1369 133.472 23.1369C134.362 23.1369 135.052 22.886 135.541 22.3843C136.043 21.8701 136.294 21.1426 136.294 20.2019V11.8486C136.294 11.6605 136.388 11.5664 136.576 11.5664H138.326C138.514 11.5664 138.608 11.6605 138.608 11.8486V20.3336Z" fill="#62CBC1"/>
<path fill-rule="evenodd" clip-rule="evenodd" d="M150.085 25.0182H152.211C152.462 25.0182 152.518 24.9053 152.38 24.6796L148.938 19.8633C149.928 19.5999 150.693 19.1233 151.233 18.4334C151.785 17.7436 152.061 16.8844 152.061 15.8559C152.061 14.5139 151.628 13.4666 150.762 12.714C149.91 11.949 148.712 11.5664 147.169 11.5664H142.804C142.629 11.5664 142.541 11.6605 142.541 11.8486V24.736C142.541 24.9242 142.629 25.0182 142.804 25.0182H144.535C144.711 25.0182 144.799 24.9242 144.799 24.736V20.1078H146.473L149.765 24.8301C149.841 24.9555 149.947 25.0182 150.085 25.0182ZM144.799 13.6547H147.169C148.047 13.6547 148.693 13.8366 149.107 14.2003C149.533 14.5515 149.747 15.1097 149.747 15.8747C149.747 16.6273 149.533 17.1854 149.107 17.5492C148.693 17.9004 148.047 18.076 147.169 18.076H144.799V13.6547Z" fill="#62CBC1"/>
<path d="M158.461 25.0182H160.192C160.38 25.0182 160.474 24.9242 160.474 24.736V20.089L164.782 11.9051C164.833 11.8173 164.839 11.742 164.801 11.6793C164.764 11.604 164.695 11.5664 164.594 11.5664H162.619C162.456 11.5664 162.349 11.6354 162.299 11.7734L159.326 17.9631L156.335 11.7734C156.285 11.6354 156.184 11.5664 156.034 11.5664H154.059C153.946 11.5664 153.87 11.604 153.833 11.6793C153.795 11.742 153.801 11.8173 153.852 11.9051L158.179 20.0514V24.736C158.179 24.9242 158.273 25.0182 158.461 25.0182Z" fill="#62CBC1"/>
</svg>
