<?xml version="1.0" encoding="UTF-8"?>
<svg xmlns="http://www.w3.org/2000/svg" width="354" height="486" fill="none">
  <mask id="a" fill="#fff">
    <path fill-rule="evenodd" clip-rule="evenodd" d="M327.608 427.824c-11.715 6.763-30.709 6.763-42.424 0-5.859-3.384-8.788-7.818-8.786-12.252v-6.634h2.284c1.464-2.039 3.631-3.95 6.502-5.607 11.715-6.764 30.709-6.764 42.424 0 2.871 1.657 5.039 3.568 6.503 5.607h2.283v6.634c.002 4.434-2.926 8.868-8.786 12.252z"></path>
  </mask>
  <path fill-rule="evenodd" clip-rule="evenodd" d="M327.608 427.824c-11.715 6.763-30.709 6.763-42.424 0-5.859-3.384-8.788-7.818-8.786-12.252v-6.634h2.284c1.464-2.039 3.631-3.95 6.502-5.607 11.715-6.764 30.709-6.764 42.424 0 2.871 1.657 5.039 3.568 6.503 5.607h2.283v6.634c.002 4.434-2.926 8.868-8.786 12.252z" fill="#99D3CE"></path>
  <path d="m285.184 427.824-.444.769.444-.769zm42.424 0 .444.769-.444-.769zm-51.21-12.252h.889-.889zm0-6.634h-.889c0-.491.398-.889.889-.889v.889zm2.284 0 .722.518a.89.89 0 0 1-.722.37v-.888zm6.502-5.607.445.769-.445-.769zm42.424 0 .444-.77-.444.77zm6.503 5.607v.888a.889.889 0 0 1-.722-.37l.722-.518zm2.283 0v-.889c.491 0 .889.398.889.889h-.889zm0 6.634h-.889.889zm-50.765 11.482c5.69 3.285 13.205 4.953 20.767 4.953 7.563 0 15.077-1.668 20.767-4.953l.889 1.539c-6.024 3.479-13.864 5.192-21.656 5.192-7.792 0-15.632-1.713-21.656-5.192l.889-1.539zm-8.342-11.482c-.002 4.005 2.644 8.192 8.342 11.482l-.889 1.539c-6.022-3.476-9.233-8.158-9.231-13.022l1.778.001zm0-6.634v6.634h-1.778v-6.634h1.778zm1.395.888h-2.284v-1.777h2.284v1.777zm6.947-5.726c-2.786 1.609-4.85 3.44-6.225 5.356l-1.444-1.037c1.552-2.162 3.823-4.151 6.78-5.858l.889 1.539zm41.534 0c-5.69-3.285-13.204-4.953-20.767-4.953-7.562 0-15.077 1.668-20.767 4.953l-.889-1.539c6.024-3.478 13.864-5.192 21.656-5.192 7.792 0 15.632 1.714 21.656 5.192l-.889 1.539zm6.226 5.356c-1.376-1.916-3.44-3.747-6.226-5.356l.889-1.539c2.957 1.707 5.229 3.696 6.781 5.858l-1.444 1.037zm3.005.37h-2.283v-1.777h2.283v1.777zm-.889 5.746v-6.634h1.778v6.634h-1.778zm-8.342 11.482c5.698-3.29 8.344-7.477 8.342-11.482l1.778-.001c.003 4.864-3.209 9.546-9.231 13.022l-.889-1.539z" fill="#083B5A" mask="url(#a)"></path>
  <mask id="c" style="mask-type:alpha" maskUnits="userSpaceOnUse" x="276" y="398" width="61" height="35">
    <mask id="b" fill="#fff">
      <path fill-rule="evenodd" clip-rule="evenodd" d="M327.608 427.824c-11.715 6.763-30.709 6.763-42.424 0-5.859-3.384-8.788-7.818-8.786-12.252v-6.634h2.284c1.464-2.039 3.631-3.95 6.502-5.607 11.715-6.764 30.709-6.764 42.424 0 2.871 1.657 5.039 3.568 6.503 5.607h2.283v6.634c.002 4.434-2.926 8.868-8.786 12.252z"></path>
    </mask>
    <path fill-rule="evenodd" clip-rule="evenodd" d="M327.608 427.824c-11.715 6.763-30.709 6.763-42.424 0-5.859-3.384-8.788-7.818-8.786-12.252v-6.634h2.284c1.464-2.039 3.631-3.95 6.502-5.607 11.715-6.764 30.709-6.764 42.424 0 2.871 1.657 5.039 3.568 6.503 5.607h2.283v6.634c.002 4.434-2.926 8.868-8.786 12.252z" fill="#fff"></path>
    <path d="m285.184 427.824-.444.769.444-.769zm42.424 0 .444.769-.444-.769zm-51.21-12.252h.889-.889zm0-6.634h-.889c0-.491.398-.889.889-.889v.889zm2.284 0 .722.518a.89.89 0 0 1-.722.37v-.888zm6.502-5.607.445.769-.445-.769zm42.424 0 .444-.77-.444.77zm6.503 5.607v.888a.889.889 0 0 1-.722-.37l.722-.518zm2.283 0v-.889c.491 0 .889.398.889.889h-.889zm0 6.634h-.889.889zm-50.765 11.482c5.69 3.285 13.205 4.953 20.767 4.953 7.563 0 15.077-1.668 20.767-4.953l.889 1.539c-6.024 3.479-13.864 5.192-21.656 5.192-7.792 0-15.632-1.713-21.656-5.192l.889-1.539zm-8.342-11.482c-.002 4.005 2.644 8.192 8.342 11.482l-.889 1.539c-6.022-3.476-9.233-8.158-9.231-13.022l1.778.001zm0-6.634v6.634h-1.778v-6.634h1.778zm1.395.888h-2.284v-1.777h2.284v1.777zm6.947-5.726c-2.786 1.609-4.85 3.44-6.225 5.356l-1.444-1.037c1.552-2.162 3.823-4.151 6.78-5.858l.889 1.539zm41.534 0c-5.69-3.285-13.204-4.953-20.767-4.953-7.562 0-15.077 1.668-20.767 4.953l-.889-1.539c6.024-3.478 13.864-5.192 21.656-5.192 7.792 0 15.632 1.714 21.656 5.192l-.889 1.539zm6.226 5.356c-1.376-1.916-3.44-3.747-6.226-5.356l.889-1.539c2.957 1.707 5.229 3.696 6.781 5.858l-1.444 1.037zm3.005.37h-2.283v-1.777h2.283v1.777zm-.889 5.746v-6.634h1.778v6.634h-1.778zm-8.342 11.482c5.698-3.29 8.344-7.477 8.342-11.482l1.778-.001c.003 4.864-3.209 9.546-9.231 13.022l-.889-1.539z" fill="#000" mask="url(#b)"></path>
  </mask>
  <g mask="url(#c)">
    <path d="M332.7 407.379v26.225M328.941 407.379v26.225M325.186 407.379v26.225M321.429 407.379v26.225M317.671 407.379v26.225M315.793 407.379v26.225M313.911 407.379v26.225M312.037 407.379v26.225M310.152 407.379v26.225M308.281 407.379v26.225M306.399 407.379v26.225M304.52 407.379v26.225M302.639 407.379v26.225M300.764 407.379v26.225M298.883 407.379v26.225M297.004 407.379v26.225" stroke="#083B5A" stroke-width=".889"></path>
    <path fill="#083A5A" d="M315.394 406.625h-43v26h43z"></path>
    <path d="M295.126 407.379v26.225M293.25 407.379v26.225M291.369 407.379v26.225M289.488 407.379v26.225M287.614 407.379v26.225M285.732 407.379v26.225M283.853 407.379v26.225M281.972 407.379v26.225M280.095 407.379v26.225M278.221 407.379v26.225" stroke="#083B5A" stroke-width=".889"></path>
  </g>
  <path d="M285.403 420.806c5.774 3.334 13.369 5.013 20.989 5.013 7.62 0 15.216-1.679 20.99-5.013 5.776-3.335 8.563-7.644 8.563-11.862 0-4.217-2.787-8.526-8.563-11.861-5.774-3.334-13.37-5.014-20.99-5.014-7.62 0-15.215 1.68-20.989 5.014-5.777 3.335-8.564 7.644-8.564 11.861 0 4.218 2.787 8.527 8.564 11.862z" fill="#CDFFFA" stroke="#083B5A" stroke-width=".889" stroke-linecap="round" stroke-linejoin="round"></path>
  <path d="M288.935 419.02c9.641 5.567 25.273 5.567 34.914 0 9.642-5.566 9.642-14.591 0-20.158-9.641-5.566-25.273-5.566-34.914 0-9.642 5.567-9.642 14.592 0 20.158z" fill="#CDFFFA" stroke="#083B5A" stroke-width=".889" stroke-linecap="round" stroke-linejoin="round"></path>
  <rect width="218.11" height="140.994" rx="40" transform="scale(-1.22452 .7075) rotate(45 -591.728 12.135)" fill="#001928"></rect>
  <path d="M303.519 369.476v-13.351h-22.683l-.118-.071-38.469-23.073c-8.433-4.871-19.515-7.321-30.624-7.321-11.112 0-22.196 2.451-30.628 7.323L65.8 399.541l-.116.067H43.016V412.782l-.001.015c-.385 6.487 3.7 13.154 12.515 18.247l.006.003 48.736 29.005.003.002c8.432 4.871 19.515 7.321 30.625 7.321 11.111 0 22.195-2.45 30.628-7.322l125.466-72.492c8.731-5.044 12.822-11.634 12.526-18.062l-.001-.011v-.012z" fill="#99D3CE" stroke="#012135"></path>
  <mask id="d" style="mask-type:alpha" maskUnits="userSpaceOnUse" x="42" y="325" width="263" height="143">
    <path d="M303.519 369.476v-13.351h-22.683l-.118-.071-38.469-23.073c-8.433-4.871-19.515-7.321-30.624-7.321-11.112 0-22.196 2.451-30.628 7.323L65.8 399.541l-.116.067H43.016V412.782l-.001.015c-.385 6.487 3.7 13.154 12.515 18.247l.006.003 48.736 29.005.003.002c8.432 4.871 19.515 7.321 30.625 7.321 11.111 0 22.195-2.45 30.628-7.322l125.466-72.492c8.731-5.044 12.822-11.634 12.526-18.062l-.001-.011v-.012z" fill="#99D3CE" stroke="#012135"></path>
  </mask>
  <g mask="url(#d)" fill="#083A5A">
    <path d="M15.894 287h119v226h-119zM137.894 286.984h-1v225.855h1z"></path>
  </g>
  <path d="M303.519 369.476v-13.351h-22.683l-.118-.071-38.469-23.073c-8.433-4.871-19.515-7.321-30.624-7.321-11.112 0-22.196 2.451-30.628 7.323L65.8 399.541l-.116.067H43.016V412.782l-.001.015c-.385 6.487 3.7 13.154 12.515 18.247l.006.003 48.736 29.005.003.002c8.432 4.871 19.515 7.321 30.625 7.321 11.111 0 22.195-2.45 30.628-7.322l125.466-72.492c8.731-5.044 12.822-11.634 12.526-18.062l-.001-.011v-.012z" stroke="#012135"></path>
  <path d="M242.504 310.042c-17.053-9.853-44.702-9.853-61.756 0L55.282 382.534c-17.054 9.853-17.054 25.828 0 35.681l48.744 27.745c17.053 9.853 44.702 9.853 61.756 0l125.466-72.492c17.054-9.853 17.054-25.828 0-35.681l-48.744-27.745z" fill="#CDFFFA" stroke="#012135" stroke-linecap="round" stroke-linejoin="round"></path>
  <path fill-rule="evenodd" clip-rule="evenodd" d="m270.565 351.437 3.102-5.371 16.422 9.479-.011.019c.396.229.641.719.64 1.418-.001 1.396-.981 3.094-2.19 3.793-.682.395-1.292.386-1.693.053l-16.27-9.391z" fill="#083B5A"></path>
  <ellipse rx="2.531" ry="2.525" transform="matrix(-.0006 .99896 .86662 -.50105 272.217 348.829)" fill="#083B5A"></ellipse>
  <path fill-rule="evenodd" clip-rule="evenodd" d="m206.382 323.929 11.48-19.878 60.786 35.085-.044.074c1.469.844 2.377 2.661 2.376 5.249-.003 5.168-3.633 11.454-8.107 14.041-2.534 1.465-4.796 1.429-6.28.183l-60.211-34.754z" fill="#083B5A"></path>
  <ellipse rx="9.367" ry="9.348" transform="matrix(-.0006 .99895 .86663 -.50105 212.488 314.271)" fill="#083B5A"></ellipse>
  <path d="m279.725 343.866-59.175-34.163c.129 2.023-.307 3.34-.542 3.746l59.717 30.417z" fill="#083B5A"></path>
  <path fill-rule="evenodd" clip-rule="evenodd" d="m193.147 306.738 3.102-5.371 16.422 9.479-.011.019c.396.229.641.719.64 1.418-.001 1.396-.981 3.094-2.19 3.793-.682.394-1.292.386-1.693.053l-16.27-9.391z" fill="#083B5A"></path>
  <ellipse rx="2.531" ry="2.525" transform="matrix(-.0006 .99896 .86662 -.50104 194.799 304.13)" fill="#083B5A"></ellipse>
  <path fill="#083B5A" d="m219.883 390.508-52.171 30.121 20.526 11.85 52.17-30.12zM52.565 384.182l52.214 31.842 59.404-96.212-111.618 64.37z"></path>
  <path transform="matrix(-.86603 .5 .86603 .5 254.16 270.059)" fill="#CDFFFA" stroke="#012135" d="M0 0h15v15H0z"></path>
  <path transform="matrix(-.86603 -.5 0 1 254.16 285.059)" fill="#083A5A" stroke="#012135" d="M0 0h15v15H0z"></path>
  <path transform="matrix(-.86603 .5 0 1 267.097 277.559)" fill="#99D3CE" stroke="#012135" d="M0 0h15v15H0z"></path>
  <mask id="e" fill="#fff">
    <path fill-rule="evenodd" clip-rule="evenodd" d="M285.53 340.445h6.196v18.967h-.02c0 .458-.302.915-.907 1.264-1.21.699-3.171.699-4.38 0-.692-.399-.988-.94-.889-1.461v-18.77z"></path>
  </mask>
  <path fill-rule="evenodd" clip-rule="evenodd" d="M285.53 340.445h6.196v18.967h-.02c0 .458-.302.915-.907 1.264-1.21.699-3.171.699-4.38 0-.692-.399-.988-.94-.889-1.461v-18.77z" fill="#CDFFFA"></path>
  <path d="M291.726 340.445v-1h1v1h-1zm-6.196 0h-1v-1h1v1zm6.196 18.967h1v1h-1v-1zm-.02 0h-1l.001-1h.999v1zm-.907 1.264-.5-.866.5.866zm-4.38 0-.5.866.5-.866zm-.889-1.461h1v.095l-.017.092-.983-.187zm6.196-17.77h-6.196v-2h6.196v2zm-1 17.967v-18.967h2v18.967h-2zm.98-1h.02v2h-.02v-2zm-1.407 1.398c.204-.118.311-.228.362-.3a.263.263 0 0 0 .04-.075c.005-.013.005-.02.005-.023l2 .001c0 .94-.62 1.675-1.407 2.129l-1-1.732zm-3.38 0c.417.241 1.026.39 1.69.39.664 0 1.273-.149 1.69-.39l1 1.732c-.793.458-1.768.658-2.69.658-.922 0-1.898-.2-2.69-.658l1-1.732zm-.406-.408c-.001.002-.009.022.026.08.04.069.145.193.38.328l-1 1.732c-.901-.52-1.579-1.419-1.371-2.513l1.965.373zm.017-18.957v18.77h-2v-18.77h2z" fill="#012135" mask="url(#e)"></path>
  <circle r="2.029" transform="matrix(-.86603 .5 .86603 .5 288.613 340.572)" fill="#CDFFFA" stroke="#012135"></circle>
  <mask id="f" fill="#fff">
    <path fill-rule="evenodd" clip-rule="evenodd" d="M277.199 271.109h22.933v70.205h-.07c-.001 1.694-1.12 3.388-3.358 4.68-4.477 2.585-11.736 2.585-16.213 0-2.553-1.474-3.65-3.469-3.292-5.392v-69.493z"></path>
  </mask>
  <path fill-rule="evenodd" clip-rule="evenodd" d="M277.199 271.109h22.933v70.205h-.07c-.001 1.694-1.12 3.388-3.358 4.68-4.477 2.585-11.736 2.585-16.213 0-2.553-1.474-3.65-3.469-3.292-5.392v-69.493z" fill="#CDFFFA"></path>
  <path d="M300.132 271.109v-1h1v1h-1zm-22.933 0h-1v-1h1v1zm22.933 70.205h1v1h-1v-1zm-.07 0h-1v-1h1v1zm-3.358 4.68-.5-.866.5.866zm-16.213 0-.5.866.5-.866zm-3.292-5.392h1v.093l-.017.09-.983-.183zm22.933-68.493h-22.933v-2h22.933v2zm-1 69.205v-70.205h2v70.205h-2zm.93-1h.07v2h-.07v-2zm-3.858 4.814c2.056-1.187 2.857-2.603 2.858-3.814h2c-.001 2.177-1.438 4.149-3.858 5.546l-1-1.732zm-15.213 0c2.05 1.184 4.801 1.805 7.606 1.805 2.805 0 5.556-.621 7.607-1.805l1 1.732c-2.427 1.401-5.544 2.073-8.607 2.073-3.063 0-6.18-.672-8.606-2.073l1-1.732zm-2.809-4.343c-.252 1.351.465 2.99 2.809 4.343l-1 1.732c-2.761-1.594-4.24-3.946-3.775-6.441l1.966.366zm.017-69.676v69.493h-2v-69.493h2z" fill="#012135" mask="url(#f)"></path>
  <circle r="8.861" transform="matrix(-.86603 .5 .86603 .5 288.597 271.579)" fill="#CDFFFA" stroke="#012135"></circle>
  <mask id="g" fill="#fff">
    <path fill-rule="evenodd" clip-rule="evenodd" d="M285.53 251.051h6.196v18.967h-.02c0 .457-.302.915-.907 1.264-1.21.698-3.171.698-4.38 0-.692-.4-.988-.94-.889-1.461v-18.77z"></path>
  </mask>
  <path fill-rule="evenodd" clip-rule="evenodd" d="M285.53 251.051h6.196v18.967h-.02c0 .457-.302.915-.907 1.264-1.21.698-3.171.698-4.38 0-.692-.4-.988-.94-.889-1.461v-18.77z" fill="#CDFFFA"></path>
  <path d="M291.726 251.051v-1h1v1h-1zm-6.196 0h-1v-1h1v1zm6.196 18.967h1v1h-1v-1zm-.02 0-1-.001.001-.999h.999v1zm-.907 1.264-.5-.866.5.866zm-4.38 0-.5.866.5-.866zm-.889-1.461h1v.094l-.017.093-.983-.187zm6.196-17.77h-6.196v-2h6.196v2zm-1 17.967v-18.967h2v18.967h-2zm.98-1h.02v2h-.02v-2zm-1.407 1.398c.204-.118.311-.228.362-.301a.262.262 0 0 0 .04-.074.066.066 0 0 0 .005-.024l2 .001c0 .941-.62 1.675-1.407 2.13l-1-1.732zm-3.38 0c.417.24 1.026.389 1.69.389.664 0 1.273-.149 1.69-.389l1 1.732c-.793.457-1.768.657-2.69.657-.922 0-1.898-.2-2.69-.657l1-1.732zm-.406-.408c-.001.002-.009.021.026.079.04.069.145.193.38.329l-1 1.732c-.901-.52-1.579-1.42-1.371-2.514l1.965.374zm.017-18.957v18.77h-2v-18.77h2z" fill="#012135" mask="url(#g)"></path>
  <circle r="2.029" transform="matrix(-.86603 .5 .86603 .5 288.613 251.177)" fill="#CDFFFA" stroke="#012135"></circle>
  <path fill-rule="evenodd" clip-rule="evenodd" d="M55.49 334.203c-2.047-3.546-5.366-5.462-7.413-4.28l-24.635 14.223c-2.047 1.182-2.047 5.014 0 8.559 2.047 3.545 5.366 5.461 7.413 4.28l20.928-12.083 20.929 36.249c2.047 3.545 5.366 5.461 7.412 4.279 2.047-1.181 2.047-5.013 0-8.559L55.49 334.203z" fill="#083A5A" stroke="#012135" stroke-linecap="round" stroke-linejoin="round"></path>
  <path fill-rule="evenodd" clip-rule="evenodd" d="M51.857 336.624c-2.047-3.545-5.366-5.461-7.413-4.279L19.81 346.568c-2.047 1.181-2.047 5.014 0 8.559 2.047 3.545 5.365 5.461 7.412 4.28l20.929-12.084 20.928 36.25c2.047 3.545 5.366 5.461 7.413 4.279 2.047-1.181 2.047-5.014 0-8.559l-24.635-42.669z" fill="#CDFFFA" stroke="#012135" stroke-linecap="round" stroke-linejoin="round"></path>
  <path transform="matrix(-.86603 .5 .86603 .5 190.484 464.98)" fill="#FFBE94" stroke="#012135" stroke-linejoin="round" d="M0 0h9.238v9.238H0z"></path>
  <path transform="matrix(-.86602 -.5 0 1 190.484 474.219)" fill="#083A5A" stroke="#012135" stroke-linejoin="round" d="M0 0h9.238v9.238H0z"></path>
  <path transform="matrix(-.86602 .5 0 1 198.449 469.602)" fill="#F1843E" stroke="#012135" stroke-linejoin="round" d="M0 0h9.238v9.238H0z"></path>
  <path fill-rule="evenodd" clip-rule="evenodd" d="M69.662 319.054c2.584 4.474 6.772 6.892 9.355 5.401l31.088-17.949c2.583-1.491 2.583-6.327 0-10.802-2.583-4.474-6.771-6.892-9.354-5.4L74.34 305.552l-26.411-45.745c-2.584-4.474-6.772-6.892-9.355-5.401-2.583 1.491-2.583 6.327 0 10.802l31.088 53.846z" fill="#083A5A" stroke="#012135" stroke-linecap="round" stroke-linejoin="round"></path>
  <path fill-rule="evenodd" clip-rule="evenodd" d="M65.842 320.581c2.583 4.474 6.771 6.892 9.355 5.401l31.088-17.949c2.583-1.491 2.583-6.327 0-10.801s-6.771-6.892-9.355-5.401L70.52 307.08l-26.412-45.746c-2.583-4.474-6.77-6.892-9.354-5.401-2.583 1.492-2.583 6.328 0 10.802l31.088 53.846z" fill="#F1843E" stroke="#012135" stroke-linecap="round" stroke-linejoin="round"></path>
  <path fill="#083B5A" d="m219.561 415.484-31.001 17.899v12.913l31.001-17.898z"></path>
  <path fill="#001928" d="m241.187 416.875-52.171 30.121 26.317 15.194 52.17-30.121z"></path>
  <path transform="matrix(-.86603 .5 .86603 .5 255.355 375.281)" fill="#CDFFFA" stroke="#012135" stroke-linecap="round" stroke-linejoin="round" d="M0 0h54.848v54.848H0z"></path>
  <path transform="matrix(-.86603 -.5 0 1 255.355 430.129)" fill="#083A5A" stroke="#012135" stroke-linecap="round" stroke-linejoin="round" d="M0 0h54.848v54.848H0z"></path>
  <path transform="matrix(-.86603 .5 0 1 302.66 402.703)" fill="#99D3CE" stroke="#012135" stroke-linecap="round" stroke-linejoin="round" d="M0 0h54.848v54.848H0z"></path>
  <path fill-rule="evenodd" clip-rule="evenodd" d="m217.525 350.144-104.378 60.263 2.692 10.636-17.069-8.411.044-.04c-3.632-1.908-5.897-6.244-5.895-12.488V98c0-12.121 8.539-26.912 19.037-32.972L217.525 4.077c5.411-3.124 10.302-3.328 13.771-1.132l15.903 7.951-10.674 2.82c.025.44.037.89.037 1.352v302.104c0 12.121-8.539 26.912-19.037 32.972z" fill="#CDFFFA"></path>
  <mask id="h" style="mask-type:alpha" maskUnits="userSpaceOnUse" x="92" y="1" width="156" height="421">
    <path fill-rule="evenodd" clip-rule="evenodd" d="m217.525 350.144-104.378 60.263 2.692 10.636-17.069-8.411.044-.04c-3.632-1.908-5.897-6.244-5.895-12.488V98c0-12.121 8.539-26.912 19.037-32.972L217.525 4.077c5.411-3.124 10.302-3.328 13.771-1.132l15.903 7.951-10.674 2.82c.025.44.037.89.037 1.352v302.104c0 12.121-8.539 26.912-19.037 32.972z" fill="#CDFFFA"></path>
  </mask>
  <g mask="url(#h)" fill="#083A5A">
    <path d="M129 102.797 81.5 75.373V399.05l47.5 27.424zM129.307 100.809l-47.5-27.424v-1.949l47.5 27.424z"></path>
  </g>
  <path d="m113.147 410.407-.477.121-.092-.361.323-.186.246.426zm104.378-60.263.246.427-.246-.427zm-101.686 70.899.477-.121.262 1.033-.956-.471.217-.441zm-17.069-8.411-.217.441-.645-.317.53-.487.332.363zm.044-.04.229-.435.618.325-.514.473-.333-.363zm-5.895-12.488h.492-.492zm0-302.104h-.492.492zm19.037-32.972.246.426-.246-.426zM217.525 4.077l.246.426-.246-.426zm13.771-1.132-.22.44-.022-.01-.021-.014.263-.416zm15.903 7.951.22-.44 1.166.583-1.261.333-.125-.476zm-10.674 2.82-.491.027-.022-.4.388-.103.125.476zm.037 1.352h-.492.492zm0 302.104h-.492.492zm-123.661 92.809 104.378-60.263.492.853-104.378 60.263-.492-.853zm2.461 11.182-2.692-10.635.954-.241 2.692 10.635-.954.241zm-16.374-8.973 17.069 8.411-.435.883-17.07-8.411.436-.883zm.159.765-.044.039-.665-.725.043-.039.666.725zm-5.736-12.851c-.002 6.137 2.22 10.259 5.632 12.053l-.458.871c-3.851-2.024-6.16-6.572-6.158-12.924h.984zm0-302.104v302.104h-.984V98h.984zm18.791-32.546c-5.156 2.977-9.86 8.118-13.275 14.033C95.51 85.403 93.41 92.047 93.41 98h-.984c0-6.168 2.169-12.98 5.647-19.005 3.479-6.025 8.294-11.31 13.635-14.394l.493.853zm105.569-60.95-105.569 60.95-.493-.853 105.57-60.95.492.852zm13.262-1.143c-3.26-2.063-7.943-1.928-13.262 1.142l-.492-.852C222.783.473 227.881.2 231.56 2.529l-.527.832zm15.946 7.976-15.903-7.952.44-.88 15.903 7.951-.44.88zM236.4 13.24l10.673-2.82.251.952-10.673 2.82-.251-.952zm-.33 1.828c0-.453-.012-.894-.036-1.325l.983-.054c.025.449.037.909.037 1.379h-.984zm0 302.104V15.068h.984v302.104h-.984zm-18.791 32.546c5.156-2.977 9.86-8.118 13.275-14.033 3.415-5.916 5.516-12.559 5.516-18.513h.984c0 6.167-2.169 12.98-5.648 19.005-3.478 6.025-8.293 11.31-13.635 14.394l-.492-.853z" fill="#012135"></path>
  <path d="m127.788 419.009 105.569-60.951c10.498-6.06 19.037-20.851 19.037-32.972V22.982c0-12.122-8.539-17.052-19.037-10.991L127.788 72.94c-10.498 6.061-19.037 20.852-19.037 32.973v302.104c-.004 12.124 8.539 17.052 19.037 10.991z" fill="#98DFD8"></path>
  <path d="m127.788 419.009 105.569-60.951c10.498-6.06 19.037-20.851 19.037-32.972V22.982c0-12.122-8.539-17.052-19.037-10.991L127.788 72.94c-10.498 6.061-19.037 20.852-19.037 32.973v302.104c-.004 12.124 8.539 17.052 19.037 10.991z" stroke="#222126" stroke-width=".984"></path>
  <path d="m127.788 419.009 105.569-60.951c10.498-6.06 19.037-20.851 19.037-32.972V22.982c0-12.122-8.539-17.052-19.037-10.991L127.788 72.94c-10.498 6.061-19.037 20.852-19.037 32.973v302.104c-.004 12.124 8.539 17.052 19.037 10.991z" fill="#001928" stroke="#CDFFFA" stroke-width=".984"></path>
  <path d="m143.514 70.977.021.063V73.285c0 4.453 3.156 6.28 7.016 4.05l60.024-34.654c3.857-2.226 7.016-7.694 7.016-12.152v-1.51c0-1.454 1.031-3.234 2.286-3.958l14.045-8.11c7.601-4.388 13.82-.797 13.82 7.98v303.628c0 8.776-6.219 19.548-13.82 23.937l-106.688 61.596c-7.601 4.388-13.82.798-13.82-7.979V102.49c0-8.777 6.219-19.549 13.824-23.94l14.105-8.143c1.015-.586 1.872-.312 2.171.57z" fill="#99D3CE" stroke="#012135" stroke-width=".984"></path>
  <mask id="i" style="mask-type:alpha" maskUnits="userSpaceOnUse" x="113" y="15" width="135" height="401">
    <path d="m127.252 79.035 14.103-8.143c.823-.475 1.521-.254 1.765.465v2.167c0 4.724 3.346 6.661 7.442 4.296l60.017-34.65c4.091-2.363 7.442-8.16 7.442-12.89v-1.509c0-1.182.839-2.631 1.859-3.22l14.044-8.108c7.364-4.252 13.392-.772 13.392 7.732V328.77c0 8.504-6.028 18.944-13.392 23.196l-106.676 61.59c-7.365 4.252-13.393.771-13.393-7.732V102.234c0-8.504 6.028-18.945 13.397-23.2z" fill="#000"></path>
  </mask>
  <g mask="url(#i)">
    <path fill="#F1F0F0" d="m113.711 86.094 134.356-77.57v335.74l-134.356 77.57z"></path>
    <path fill="#fff" d="m113.711 86.094 134.356-77.57V37.9l-134.356 77.57z"></path>
    <ellipse rx="4.871" ry="4.807" transform="matrix(.86603 -.5 0 1 232.909 31.964)" fill="#62CBC1"></ellipse>
    <ellipse rx="4.852" ry="4.807" transform="matrix(.86603 -.5 0 1 128.841 92.048)" fill="#62CBC1"></ellipse>
    <path fill="#fff" d="m113.711 135.793 134.356-77.57v22.77l-134.356 77.571z"></path>
    <path d="M118.726 142.774v-4.591l3.181-1.837v4.592l-3.181 1.836zm3.181-1.836v-4.592l3.181-1.836v4.591l-3.181 1.837zm3.181-1.837v-4.591l3.181-1.837v4.592l-3.181 1.836zm3.181-1.836v-4.592l3.181-1.836v4.591l-3.181 1.837zM223.943 82.027v-4.591l3.181-1.837v4.591l-3.181 1.837zm3.181-1.837V75.6l3.181-1.837v4.592l-3.181 1.836zm3.181-1.836v-4.592l3.181-1.836v4.591l-3.181 1.837zm3.181-1.837v-4.591l3.181-1.837v4.592l-3.181 1.836zm3.181-1.836v-4.592l3.181-1.836v4.591l-3.181 1.837z" fill="#99A3B4"></path>
    <path d="M118.859 149.06v-3.061l2.12-1.225v3.061l-2.12 1.225zm2.12-1.225v-3.061l2.121-1.224v3.061l-2.121 1.224z" fill="#F0989B"></path>
    <path d="M126.059 144.903v-3.061l2.121-1.225v3.061l-2.121 1.225zm2.121-1.225v-3.061l2.12-1.224v3.061l-2.12 1.224zm2.12-1.224v-3.061l2.121-1.225v3.061l-2.121 1.225zm2.121-1.225v-3.061l2.121-1.224v3.061l-2.121 1.224zm2.121-1.224v-3.061l2.12-1.224v3.061l-2.12 1.224zm2.12-1.224v-3.061l2.121-1.225v3.061l-2.121 1.225zm3.181-1.837v-3.061l2.121-1.224v3.061l-2.121 1.224zm2.121-1.224v-3.061l2.121-1.225v3.061l-2.121 1.225zm2.121-1.225v-3.061l2.12-1.224v3.061l-2.12 1.224z" fill="#99A3B4"></path>
    <path d="M228.873 85.543V82.48l2.121-1.224v3.061l-2.121 1.225zm2.121-1.225v-3.06l2.12-1.225v3.06l-2.12 1.225zm3.181-1.837v-3.06l2.121-1.225v3.061l-2.121 1.224zm2.121-1.224v-3.06l2.12-1.225v3.06l-2.12 1.225zm2.12-1.224v-3.061l2.121-1.225v3.061l-2.121 1.225z" fill="#62CBC1"></path>
    <path d="m170.711 119.317 1.907-2.823 1.394.918 4.912-6.505 2.347 1.339 2.053-3.879 6.306.624 6.526-9.08" stroke="#62CBC1" stroke-width="1.224" stroke-linecap="round" stroke-linejoin="round"></path>
    <path fill="#fff" d="m113.711 229.331 134.356-77.57v22.77l-134.356 77.571z"></path>
    <path d="M118.726 236.312v-4.592l3.181-1.836v4.591l-3.181 1.837zm3.181-1.837v-4.591l3.181-1.837v4.592l-3.181 1.836zm3.181-1.836v-4.592l3.181-1.836v4.591l-3.181 1.837zm3.181-1.837v-4.591l3.181-1.837v4.592l-3.181 1.836zM223.941 175.566v-4.591l3.181-1.837v4.592l-3.181 1.836zm3.181-1.836v-4.592l3.181-1.836v4.591l-3.181 1.837zm3.181-1.837v-4.591l3.181-1.837v4.592l-3.181 1.836zm3.181-1.836v-4.592l3.181-1.836v4.591l-3.181 1.837zm3.181-1.837v-4.591l3.181-1.837v4.591l-3.181 1.837z" fill="#99A3B4"></path>
    <path d="M118.859 242.597v-3.061l2.12-1.224v3.061l-2.12 1.224zm2.12-1.224v-3.061l2.121-1.225v3.061l-2.121 1.225z" fill="#F0989B"></path>
    <path d="M126.059 238.44v-3.061l2.121-1.224v3.061l-2.121 1.224zm2.121-1.224v-3.061l2.12-1.225v3.061l-2.12 1.225zm2.12-1.225v-3.061l2.121-1.224v3.061l-2.121 1.224zm2.121-1.224v-3.061l2.121-1.224v3.061l-2.121 1.224zm2.121-1.224v-3.061l2.12-1.225v3.061l-2.12 1.225zm2.12-1.225v-3.061l2.121-1.224v3.061l-2.121 1.224zm3.181-1.836v-3.061l2.121-1.225v3.061l-2.121 1.225zm2.121-1.225v-3.061l2.121-1.224v3.061l-2.121 1.224zm2.121-1.224v-3.061l2.12-1.224v3.061l-2.12 1.224z" fill="#99A3B4"></path>
    <path d="M228.873 179.08v-3.061l2.121-1.224v3.061l-2.121 1.224zm2.121-1.224v-3.061l2.12-1.225v3.061l-2.12 1.225zm3.181-1.837v-3.061l2.121-1.224v3.061l-2.121 1.224zm2.121-1.224v-3.061l2.12-1.225v3.061l-2.12 1.225zm2.12-1.225v-3.061l2.121-1.224v3.061l-2.121 1.224z" fill="#62CBC1"></path>
    <path d="m170.711 212.855 1.907-2.823 1.394.917 4.912-6.504 2.347 1.339 2.053-3.879 6.306.624 6.526-9.08" stroke="#62CBC1" stroke-width="1.224" stroke-linecap="round" stroke-linejoin="round"></path>
    <path fill="#fff" d="m113.711 254.551 134.356-77.57v22.77l-134.356 77.571z"></path>
    <path d="M118.726 261.532v-4.591l3.181-1.837v4.592l-3.181 1.836zm3.181-1.836v-4.592l3.181-1.836v4.591l-3.181 1.837zm3.181-1.837v-4.591l3.181-1.837v4.592l-3.181 1.836zm3.181-1.836v-4.592l3.181-1.836v4.591l-3.181 1.837zM223.941 200.787v-4.592l3.181-1.836v4.591l-3.181 1.837zm3.181-1.837v-4.591l3.181-1.837v4.592l-3.181 1.836zm3.181-1.836v-4.592l3.181-1.836v4.591l-3.181 1.837zm3.181-1.837v-4.591l3.181-1.837v4.591l-3.181 1.837zm3.181-1.837v-4.591l3.181-1.837v4.592l-3.181 1.836z" fill="#99A3B4"></path>
    <path d="M118.859 267.817v-3.061l2.12-1.224v3.061l-2.12 1.224zm2.12-1.224v-3.061l2.121-1.224v3.061l-2.121 1.224z" fill="#F0989B"></path>
    <path d="M126.059 263.661V260.6l2.121-1.225v3.061l-2.121 1.225zm2.121-1.225v-3.061l2.12-1.224v3.061l-2.12 1.224zm2.12-1.224v-3.061l2.121-1.224v3.06l-2.121 1.225zm2.121-1.225v-3.06l2.121-1.225v3.061l-2.121 1.224zm2.121-1.224v-3.061l2.12-1.224v3.061l-2.12 1.224zm2.12-1.224v-3.061l2.121-1.225v3.061l-2.121 1.225zm3.181-1.837v-3.061l2.121-1.224v3.061l-2.121 1.224zm2.121-1.224v-3.061l2.121-1.225v3.061l-2.121 1.225zm2.121-1.225v-3.061l2.12-1.224v3.061l-2.12 1.224z" fill="#99A3B4"></path>
    <path d="M228.873 204.301v-3.061l2.121-1.225v3.061l-2.121 1.225zm2.121-1.225v-3.061l2.12-1.224v3.061l-2.12 1.224zm3.181-1.836v-3.061l2.121-1.225v3.061l-2.121 1.225zm2.121-1.225v-3.061l2.12-1.224v3.061l-2.12 1.224zm2.12-1.224v-3.061l2.121-1.225v3.061l-2.121 1.225z" fill="#62CBC1"></path>
    <path d="m170.711 238.075 1.907-2.822 1.394.917 4.912-6.505 2.347 1.339 2.053-3.879 6.306.624 6.526-9.08" stroke="#62CBC1" stroke-width="1.224" stroke-linecap="round" stroke-linejoin="round"></path>
    <path fill="#fff" d="m113.711 304.987 134.356-77.57v22.77l-134.356 77.571z"></path>
    <path d="M118.726 311.968v-4.592l3.181-1.836v4.591l-3.181 1.837zm3.181-1.837v-4.591l3.181-1.837v4.591l-3.181 1.837zm3.181-1.837v-4.591l3.181-1.837v4.592l-3.181 1.836zm3.181-1.836v-4.592l3.181-1.836v4.591l-3.181 1.837zM223.941 251.222v-4.591l3.181-1.837v4.592l-3.181 1.836zm3.181-1.836v-4.592l3.181-1.836v4.591l-3.181 1.837zm3.181-1.837v-4.591l3.181-1.837v4.592l-3.181 1.836zm3.181-1.836v-4.592l3.181-1.836v4.591l-3.181 1.837zm3.181-1.837v-4.591l3.181-1.837v4.591l-3.181 1.837z" fill="#99A3B4"></path>
    <path d="M118.859 318.253v-3.061l2.12-1.224v3.061l-2.12 1.224zm2.12-1.224v-3.061l2.121-1.225v3.061l-2.121 1.225z" fill="#F0989B"></path>
    <path d="M126.059 314.096v-3.061l2.121-1.224v3.061l-2.121 1.224zm2.121-1.224v-3.061l2.12-1.225v3.061l-2.12 1.225zm2.12-1.225v-3.061l2.121-1.224v3.061l-2.121 1.224zm2.121-1.224v-3.061l2.121-1.224v3.061l-2.121 1.224zm2.121-1.224v-3.061l2.12-1.225v3.061l-2.12 1.225zm2.12-1.225v-3.061l2.121-1.224v3.061l-2.121 1.224zm3.181-1.836v-3.061l2.121-1.225v3.061l-2.121 1.225zm2.121-1.225v-3.061l2.121-1.224v3.061l-2.121 1.224zm2.121-1.224v-3.061l2.12-1.224v3.061l-2.12 1.224z" fill="#99A3B4"></path>
    <path d="M228.873 254.736v-3.061l2.121-1.224v3.061l-2.121 1.224zm2.121-1.224v-3.061l2.12-1.225v3.061l-2.12 1.225zm3.181-1.837v-3.061l2.121-1.224v3.061l-2.121 1.224zm2.121-1.224v-3.061l2.12-1.225v3.061l-2.12 1.225zm2.12-1.225v-3.061l2.121-1.224v3.061l-2.121 1.224z" fill="#62CBC1"></path>
    <path d="m170.711 288.511 1.907-2.823 1.394.917 4.912-6.504 2.347 1.339 2.053-3.879 6.306.624 6.526-9.08" stroke="#62CBC1" stroke-width="1.224" stroke-linecap="round" stroke-linejoin="round"></path>
    <path d="M165.435 76.085v-6.887l4.771-2.755v6.887l-4.771 2.755zm4.771-2.755v-6.887l4.772-2.755v6.887l-4.772 2.755zm4.772-2.755v-6.887l4.772-2.755v6.887l-4.772 2.755zm4.772-2.755v-6.887l4.771-2.755v6.888l-4.771 2.754zm4.771-2.754v-6.888l4.772-2.754v6.887l-4.772 2.755zm4.772-2.755v-6.887l4.771-2.755v6.887l-4.771 2.755z" fill="#62CBC1"></path>
    <path fill="#fff" d="m113.711 161.019 134.356-77.57v22.77L113.711 183.79z"></path>
    <path d="M118.726 168v-4.591l3.181-1.837v4.592L118.726 168zm3.181-1.836v-4.592l3.181-1.836v4.591l-3.181 1.837zm3.181-1.837v-4.591l3.181-1.837v4.591l-3.181 1.837zm3.181-1.837v-4.591l3.181-1.837v4.592l-3.181 1.836zM223.941 107.254v-4.591l3.181-1.837v4.592l-3.181 1.836zm3.181-1.836v-4.592l3.181-1.836v4.591l-3.181 1.837zm3.181-1.837V98.99l3.181-1.837v4.592l-3.181 1.836zm3.181-1.836v-4.592l3.181-1.836v4.591l-3.181 1.837zm3.181-1.837v-4.591l3.181-1.837v4.592l-3.181 1.836z" fill="#99A3B4"></path>
    <path d="M118.859 174.285v-3.061l2.12-1.224v3.061l-2.12 1.224zm2.12-1.224V170l2.121-1.224v3.061l-2.121 1.224z" fill="#F0989B"></path>
    <path d="M126.059 170.128v-3.061l2.121-1.224v3.061l-2.121 1.224zm2.121-1.224v-3.061l2.12-1.224v3.061l-2.12 1.224zm2.12-1.224v-3.061l2.121-1.225v3.061l-2.121 1.225zm2.121-1.225v-3.061l2.121-1.224v3.061l-2.121 1.224zm2.121-1.224v-3.061l2.12-1.224v3.06l-2.12 1.225zm2.12-1.225v-3.06l2.121-1.225v3.061l-2.121 1.224zm3.181-1.836v-3.061l2.121-1.224v3.061l-2.121 1.224zm2.121-1.224v-3.061l2.121-1.225v3.061l-2.121 1.225zm2.121-1.225v-3.061l2.12-1.224v3.061l-2.12 1.224z" fill="#99A3B4"></path>
    <path d="M228.873 110.768v-3.061l2.121-1.224v3.061l-2.121 1.224zm2.121-1.224v-3.061l2.12-1.224v3.061l-2.12 1.224zm3.181-1.837v-3.061l2.121-1.224v3.061l-2.121 1.224zm2.121-1.224v-3.061l2.12-1.224v3.061l-2.12 1.224zm2.12-1.224v-3.061l2.121-1.225v3.061l-2.121 1.225z" fill="#F1843E"></path>
    <path d="m170.711 140.426 1.907.621 1.394-2.526 4.912.832 2.347-4.049 2.053 1.509 6.306-7.906 6.526 1.545" stroke="#F1843E" stroke-width="1.224" stroke-linecap="round" stroke-linejoin="round"></path>
    <path fill="#fff" d="m113.711 186.234 134.356-77.57v22.77l-134.356 77.571z"></path>
    <path d="M118.726 193.215v-4.591l3.181-1.837v4.592l-3.181 1.836zm3.181-1.836v-4.592l3.181-1.836v4.591l-3.181 1.837zm3.181-1.837v-4.591l3.181-1.837v4.591l-3.181 1.837zm3.181-1.837v-4.591l3.181-1.837v4.592l-3.181 1.836zM223.941 132.47v-4.592l3.181-1.836v4.591l-3.181 1.837zm3.181-1.837v-4.591l3.181-1.837v4.591l-3.181 1.837zm3.181-1.837v-4.591l3.181-1.837v4.592l-3.181 1.836zm3.181-1.836v-4.592l3.181-1.836v4.591l-3.181 1.837zm3.181-1.837v-4.591l3.181-1.837v4.592l-3.181 1.836z" fill="#99A3B4"></path>
    <path d="M118.859 199.5v-3.061l2.12-1.224v3.061l-2.12 1.224zm2.12-1.224v-3.061l2.121-1.225v3.061l-2.121 1.225z" fill="#F0989B"></path>
    <path d="M126.059 195.343v-3.06l2.121-1.225v3.061l-2.121 1.224zm2.121-1.224v-3.061l2.12-1.224v3.061l-2.12 1.224zm2.12-1.224v-3.061l2.121-1.225v3.061l-2.121 1.225zm2.121-1.225v-3.061l2.121-1.224v3.061l-2.121 1.224zm2.121-1.224v-3.061l2.12-1.224v3.061l-2.12 1.224zm2.12-1.224v-3.061l2.121-1.225v3.061l-2.121 1.225zm3.181-1.837v-3.061l2.121-1.224v3.061l-2.121 1.224zm2.121-1.224V183.1l2.121-1.225v3.061l-2.121 1.225zm2.121-1.225v-3.061l2.12-1.224v3.061l-2.12 1.224z" fill="#99A3B4"></path>
    <path d="M228.873 135.983v-3.061l2.121-1.224v3.061l-2.121 1.224zm2.121-1.224v-3.061l2.12-1.224v3.061l-2.12 1.224zm3.181-1.837v-3.061l2.121-1.224v3.061l-2.121 1.224zm2.121-1.224v-3.061l2.12-1.224v3.061l-2.12 1.224zm2.12-1.224v-3.061l2.121-1.225v3.061l-2.121 1.225z" fill="#F1843E"></path>
    <path d="m170.711 165.641 1.907.621 1.394-2.526 4.912.832 2.347-4.049 2.053 1.509 6.306-7.906 6.526 1.545" stroke="#F1843E" stroke-width="1.224" stroke-linecap="round" stroke-linejoin="round"></path>
    <path fill="#fff" d="m113.711 330.212 134.356-77.57v22.77l-134.356 77.571z"></path>
    <path d="M118.726 337.193v-4.591l3.181-1.837v4.592l-3.181 1.836zm3.181-1.836v-4.592l3.181-1.836v4.591l-3.181 1.837zm3.181-1.837v-4.591l3.181-1.837v4.592l-3.181 1.836zm3.181-1.836v-4.592l3.181-1.836v4.591l-3.181 1.837zM223.941 276.448v-4.591l3.181-1.837v4.592l-3.181 1.836zm3.181-1.836v-4.592l3.181-1.836v4.591l-3.181 1.837zm3.181-1.837v-4.591l3.181-1.837v4.591l-3.181 1.837zm3.181-1.837v-4.591l3.181-1.837v4.592l-3.181 1.836zm3.181-1.836v-4.592l3.181-1.836v4.591l-3.181 1.837z" fill="#99A3B4"></path>
    <path d="M118.859 343.479v-3.061l2.12-1.225v3.061l-2.12 1.225zm2.12-1.225v-3.061l2.121-1.224v3.061l-2.121 1.224z" fill="#F0989B"></path>
    <path d="M126.059 339.322v-3.061l2.121-1.224v3.061l-2.121 1.224zm2.121-1.224v-3.061l2.12-1.225v3.061l-2.12 1.225zm2.12-1.225v-3.061l2.121-1.224v3.061l-2.121 1.224zm2.121-1.224v-3.061l2.121-1.224v3.06l-2.121 1.225zm2.121-1.225v-3.06l2.12-1.225v3.061l-2.12 1.224zm2.12-1.224v-3.061l2.121-1.224v3.061l-2.121 1.224zm3.181-1.836v-3.061l2.121-1.225v3.061l-2.121 1.225zm2.121-1.225v-3.061l2.121-1.224v3.061l-2.121 1.224zm2.121-1.224v-3.061l2.12-1.225v3.061l-2.12 1.225z" fill="#99A3B4"></path>
    <path d="M228.873 279.962v-3.061l2.121-1.224v3.061l-2.121 1.224zm2.121-1.224v-3.061l2.12-1.225v3.061l-2.12 1.225zm3.181-1.837v-3.061l2.121-1.224v3.061l-2.121 1.224zm2.121-1.224v-3.061l2.12-1.225v3.061l-2.12 1.225zm2.12-1.225v-3.061l2.121-1.224v3.061l-2.121 1.224z" fill="#F1843E"></path>
    <path d="m170.711 309.62 1.907.621 1.394-2.526 4.912.831 2.347-4.048 2.053 1.508 6.306-7.905 6.526 1.544" stroke="#F1843E" stroke-width="1.224" stroke-linecap="round" stroke-linejoin="round"></path>
    <path fill="#fff" d="m113.711 279.772 134.356-77.57v22.77l-134.356 77.571z"></path>
    <path d="M118.726 286.753v-4.592l3.181-1.836v4.591l-3.181 1.837zm3.181-1.837v-4.591l3.181-1.837v4.592l-3.181 1.836zm3.181-1.836v-4.592l3.181-1.836v4.591l-3.181 1.837zm3.181-1.837v-4.591l3.181-1.837v4.591l-3.181 1.837zM223.941 226.007v-4.591l3.181-1.837v4.592l-3.181 1.836zm3.181-1.836v-4.592l3.181-1.836v4.591l-3.181 1.837zm3.181-1.837v-4.591l3.181-1.837v4.591l-3.181 1.837zm3.181-1.837v-4.591l3.181-1.837v4.592l-3.181 1.836zm3.181-1.836v-4.592l3.181-1.836v4.591l-3.181 1.837z" fill="#99A3B4"></path>
    <path d="M118.859 293.038v-3.061l2.12-1.225v3.061l-2.12 1.225zm2.12-1.225v-3.061l2.121-1.224v3.061l-2.121 1.224z" fill="#F0989B"></path>
    <path d="M126.059 288.881v-3.061l2.121-1.224v3.061l-2.121 1.224zm2.121-1.224v-3.061l2.12-1.225v3.061l-2.12 1.225zm2.12-1.225v-3.061l2.121-1.224v3.061l-2.121 1.224zm2.121-1.224v-3.061l2.121-1.224v3.061l-2.121 1.224zm2.121-1.224v-3.061l2.12-1.225v3.061l-2.12 1.225zm2.12-1.225v-3.061l2.121-1.224v3.061l-2.121 1.224zm3.181-1.836v-3.061l2.121-1.225v3.061l-2.121 1.225zm2.121-1.225v-3.061l2.121-1.224v3.061l-2.121 1.224zm2.121-1.224v-3.061l2.12-1.225v3.061l-2.12 1.225z" fill="#99A3B4"></path>
    <path d="M228.873 229.521v-3.061l2.121-1.224v3.061l-2.121 1.224zm2.121-1.224v-3.061l2.12-1.225v3.061l-2.12 1.225zm3.181-1.837v-3.061l2.121-1.224v3.061l-2.121 1.224zm2.121-1.224v-3.061l2.12-1.225v3.061l-2.12 1.225zm2.12-1.225v-3.061l2.121-1.224v3.061l-2.121 1.224z" fill="#F1843E"></path>
    <path d="m170.711 259.179 1.907.621 1.394-2.526 4.912.831 2.347-4.048 2.053 1.508 6.306-7.905 6.526 1.544" stroke="#F1843E" stroke-width="1.224" stroke-linecap="round" stroke-linejoin="round"></path>
    <path fill="#F1F0F0" d="m113.711 115.465 134.356-77.57v20.327l-134.356 77.57z"></path>
    <path d="M120.286 127.697v-6.888l4.772-2.754v6.887l-4.772 2.755zm4.772-2.755v-6.887l4.771-2.755v6.887l-4.771 2.755zm4.771-2.755V115.3l4.772-2.755v6.887l-4.772 2.755zm4.772-2.755v-6.887l4.771-2.755v6.887l-4.771 2.755zm4.771-2.755v-6.887l4.772-2.755v6.887l-4.772 2.755zm4.772-2.755v-6.887l4.772-2.755v6.887l-4.772 2.755z" fill="#D5D7DC"></path>
    <path fill="#F1F0F0" d="m113.711 209.008 134.356-77.57v20.327l-134.356 77.57z"></path>
    <path d="M120.286 221.24v-6.888l4.772-2.754v6.887l-4.772 2.755zm4.772-2.755v-6.887l4.771-2.755v6.887l-4.771 2.755zm4.771-2.755v-6.887l4.772-2.755v6.887l-4.772 2.755zm4.772-2.755v-6.887l4.771-2.755v6.887l-4.771 2.755zm4.771-2.755v-6.887l4.772-2.755v6.887l-4.772 2.755zm4.772-2.755v-6.887l4.772-2.755v6.887l-4.772 2.755z" fill="#D5D7DC"></path>
    <g clip-path="url(#j)">
      <path fill="#62CBC1" d="m118.494 378.585 83.003-47.922v28.041l-83.003 47.922z"></path>
      <path fill="#455F88" d="m202.413 330.134 18.222-10.52v28.04l-18.222 10.521z"></path>
      <path fill="#8D99AD" d="m222.024 318.812 18.222-10.52v28.04l-18.222 10.521z"></path>
    </g>
    <path opacity=".2" fill="#000" d="m113.711 86.094 134.356-77.57v335.74l-134.356 77.57z"></path>
    <g clip-path="url(#k)">
      <path fill="#fff" d="m113.711 86.094 100.979-58.3v335.74l-100.979 58.3z"></path>
      <g clip-path="url(#l)">
        <path fill-rule="evenodd" clip-rule="evenodd" d="M109.399-118.103c.01-.09.016-.179.016-.266 0-1.027-.722-1.444-1.612-.93-.89.514-1.611 1.763-1.611 2.791 0 .621.264 1.019.669 1.123L83.61-73.248c-.296-.233-.737-.233-1.23.051-.89.514-1.612 1.764-1.612 2.791 0 .926.586 1.356 1.352 1.056l-3.173 50.24a2.037 2.037 0 0 0-.148.078c-.89.514-1.612 1.764-1.612 2.791 0 1.028.722 1.444 1.612.93.069-.04.137-.084.203-.132l7.021 44.782c-.749.593-1.316 1.679-1.316 2.59 0 1.027.722 1.444 1.612.93v59.954c-.89.514-1.612 1.763-1.612 2.79 0 1.028.722 1.445 1.612.931v28.116c-.89.514-1.612 1.764-1.612 2.791 0 1.028.722 1.444 1.612.931.064-.038.127-.079.19-.123l5.718 39.315v37.593l-5.579 41.869a1.483 1.483 0 0 0-.688.219c-.89.514-1.61 1.763-1.61 2.791s.72 1.444 1.61.93c.431-.248.823-.67 1.112-1.155l21.84 5.378a2.95 2.95 0 0 0-.214 1.049c0 1.028.722 1.444 1.612.93.728-.42 1.344-1.333 1.543-2.215l81.139-53.637c.254.494.815.616 1.466.24.702-.405 1.299-1.267 1.52-2.117l37.781-21.814c.222.595.819.768 1.52.363.89-.513 1.611-1.763 1.611-2.791 0-.591-.238-.98-.611-1.106l12.958-93.66c.534-.612.902-1.46.902-2.193 0-.683-.319-1.097-.794-1.146l-3.602-90.623c.487-.601.816-1.396.816-2.09 0-.685-.321-1.098-.798-1.145l4.741-61.4c.624-.617 1.07-1.562 1.07-2.37 0-.881-.531-1.313-1.243-1.094l-11.003-36.959c.472-.597.787-1.374.787-2.054 0-.712-.346-1.131-.856-1.15l7.222-30.851c.843-.546 1.512-1.741 1.512-2.731 0-.81-.448-1.24-1.074-1.134v-18.612c.432-.583.716-1.316.716-1.961 0-1.028-.722-1.444-1.612-.93-.508.293-.962.827-1.257 1.423h-25.939c.104-.306.162-.615.162-.906 0-1.028-.722-1.445-1.612-.931-.89.514-1.611 1.764-1.611 2.791 0 .298.06.544.168.731l-34.344 31.84c-.26-.474-.813-.586-1.453-.216-.584.337-1.096.991-1.378 1.691l-18.512 4.891c.011-.093.017-.186.017-.277 0-1.028-.722-1.444-1.612-.93-.746.43-1.373 1.378-1.557 2.279l-47.694 17.523zm135.173-58.024h-25.939c-.284.571-.713 1.086-1.196 1.386l-10.299 36.42c.45.07.748.478.748 1.139 0 .134-.012.272-.035.412l36.93-16.982c.098-.976.776-2.078 1.599-2.553.06-.035.12-.065.179-.092v-18.31a2.67 2.67 0 0 1-.538.416c-.889.514-1.611.097-1.611-.93 0-.292.058-.601.162-.906zm-27.508 1.568c-.371.13-.696.087-.929-.102l-34.429 31.919c.027.118.04.249.04.392 0 .176-.021.358-.06.542l23.207 5.396c.282-.703.795-1.361 1.382-1.7.189-.109.371-.177.54-.205l10.249-36.242zm27.712 21.225-37.043 17.033c-.083.25-.196.498-.333.731l30.254 14.765a3 3 0 0 1 .848-.768 1.73 1.73 0 0 1 .421-.179l7.187-30.702c-.711.272-1.263-.084-1.334-.88zm-6.274 35.482c-.139.08-.274.138-.402.174l-14.941 47.257c.298.165.483.529.483 1.049 0 .21-.03.428-.086.648l24.99-10.958c.271-.728.795-1.42 1.397-1.774l-10.946-36.771a2.657 2.657 0 0 1-.495.375zm-.737.22a.854.854 0 0 1-.312-.062l-28.099 46.77c.202.195.323.513.323.932 0 .261-.047.537-.131.811l10.996.884c.242-.813.817-1.618 1.488-2.005.307-.178.594-.244.838-.213l14.897-47.117zm-.556-.224a1.027 1.027 0 0 1-.271-.502l-39.816 33.183a3.567 3.567 0 0 1-.499 1.347l10.74 13.496c.212-.241.451-.445.702-.59.398-.23.762-.274 1.043-.16l28.101-46.774zm-.319-.926c0-.518.184-1.092.479-1.6l-30.255-14.765a3.007 3.007 0 0 1-.839.756 2.235 2.235 0 0 1-.144.076l-9.623 47.703c.361.11.602.46.633.998l39.75-33.129-.001-.039zm-58.285-22.338-18.45 4.874a3.815 3.815 0 0 1-1.027 1.703l-9.294 39.635a.78.78 0 0 1 .418.193l28.608-44.831c-.211-.193-.336-.515-.336-.944 0-.204.028-.416.081-.63zm.504 1.727-28.667 44.925c.097.183.152.419.152.701 0 .255-.045.524-.126.792l22.538-.183c.278-.72.801-1.4 1.4-1.746.089-.052.177-.094.263-.127l5.375-44.479c-.354.182-.678.214-.935.117zm-28.816 46.88 22.571-.183c-.045.198-.07.394-.07.583 0 .494.167.847.44 1.023l-16.985 26.695c-.289-.191-.698-.181-1.154.073l-5.479-27.17c.273-.292.507-.646.677-1.02zm4.444 28.438-5.465-27.098c-.094.074-.191.14-.29.197a1.93 1.93 0 0 1-.23.114l-15.477 50.827c.18.098.32.268.403.5l19.873-21.411a1.628 1.628 0 0 1-.093-.57c0-.896.549-1.96 1.279-2.56zm-1.029 3.41-19.952 21.498c.005.059.008.12.008.185 0 .301-.062.622-.172.937l19.2 4.62c.275-.515.666-.974 1.104-1.258l1.093-25.858c-.539.28-1.009.214-1.281-.124zm1.641-.11-1.095 25.906c.767-.3 1.353.13 1.353 1.056v.018l16.853-7.361a1.959 1.959 0 0 1-.024-.307c0-.567.22-1.202.567-1.744L155.968-61.42c-.183.248-.393.47-.619.645zm.215 27.415 17.01-7.43c.25.509.816.637 1.474.258a2.79 2.79 0 0 0 .625-.507l7.517 19.625a3.964 3.964 0 0 0-.265.375l-26.607-11.545c.114-.255.199-.518.246-.776zm26.955 11.59-7.529-19.657c.212-.3.385-.635.502-.975l31.039-25.203c.169.507.599.729 1.136.576l-4.346 38.564a1.954 1.954 0 0 0-.269.13c-.796.46-1.457 1.507-1.588 2.459l-16.855 4.78.001-.056.001-.05c0-1.028-.721-1.445-1.611-.93-.168.096-.329.219-.481.361zm25.503-45.407-4.353 38.627a.886.886 0 0 1 .454.067l17.214-37.878c-.543.014-.918-.41-.918-1.15 0-.105.007-.21.021-.318l-11.072-.89c-.293.633-.767 1.209-1.303 1.518l-.043.024zm-.962-2.76-10.726-13.478c-.236.292-.51.54-.802.708a1.758 1.758 0 0 1-.393.172L175.634-43.64c.016.098.025.203.025.317 0 .127-.011.258-.032.39L206.46-67.97a2.12 2.12 0 0 1-.006-.162c0-.588.237-1.25.606-1.805zm-12.273-12.55-19.284 38.453c-.259-.477-.814-.59-1.455-.22-.27.156-.525.38-.748.644l-17.058-18.237c.223-.401.375-.84.423-1.256l37.326-20.031c.126.407.417.637.796.647zm-38.111 18.964 37.249-19.99a2.366 2.366 0 0 1-.004-.124c0-.367.092-.763.252-1.144l-18.677-7.521c-.287.47-.67.877-1.09 1.12-.331.19-.639.253-.895.203l-17.048 26.793c.118.166.193.39.213.663zm38.856-22.905c.234-.135.456-.205.656-.218l9.592-47.548a.958.958 0 0 1-.517-.025l-29.329 39.702c.054.154.083.336.083.543 0 .394-.106.82-.286 1.224l18.667 7.517c.291-.502.692-.94 1.134-1.195zm9.21-49.514-23.196-5.394c-.232.62-.647 1.212-1.137 1.592l-5.393 44.626c.319-.034.587.077.765.31l29.226-39.563c-.215-.192-.344-.517-.344-.95 0-.201.028-.41.079-.621zm-46.092 1.758c-.59.341-1.107.272-1.387-.113l-53.971 44.708c.023.112.035.236.035.37 0 .117-.009.237-.027.358l44.232-3.951c.262-.772.813-1.517 1.45-1.885.184-.106.361-.173.525-.202l9.224-39.334a3.492 3.492 0 0 1-.081.049zm-1.611-.93.001-.073-47.729 17.536c-.217.786-.749 1.574-1.384 1.997l-5.633 25.294c.39-.052.707.109.883.443l53.936-44.68a1.688 1.688 0 0 1-.074-.517zm-49.856 19.752a1.39 1.39 0 0 0 .374-.095l-5.61 25.193c-.075.031-.153.07-.231.115-.89.514-1.611 1.763-1.611 2.79 0 .044.001.085.003.126L83.986-72.409a1.355 1.355 0 0 0-.172-.604l23.369-42.349zM83.971-71.964c-.116.92-.733 1.937-1.493 2.428l-3.177 50.307c.096-.02.188-.026.275-.021l21.258-66.972c-.313-.056-.551-.279-.661-.639L83.971-71.964zm-4.62 56.222 7.031 44.845c.205-.11.4-.169.578-.182l16.782-58.717c-.484.106-.871-.103-1.039-.556L80.318-17.428a3.832 3.832 0 0 1-.967 1.686zm1.05-2.147 22.22-12.829a1.858 1.858 0 0 1-.01-.201c0-.987.666-2.179 1.507-2.727l-2.487-52.736a1.53 1.53 0 0 1-.477.162l-21.28 67.042c.329.15.536.526.536 1.077 0 .07-.003.14-.01.212zm21.588-68.723c.543-.42.993-1.101 1.206-1.79l44.218-3.95a2.458 2.458 0 0 0-.042.446c0 .418.12.736.322.93l-42.03 57.461c-.228-.393-.665-.524-1.186-.32l-2.488-52.777zM87.274 28.948 104.1-29.924c.041-.02.081-.041.122-.065.258-.148.501-.358.717-.607l12.599 13.64a3.003 3.003 0 0 0-.246 1.129c0 .84.483 1.272 1.145 1.12l-3.302 37.557c-.599.426-1.098 1.173-1.311 1.922l-25.948 5.805c.035-.173.054-.344.054-.509 0-.614-.258-1.01-.656-1.12zm30.497-46.376L105.24-30.994a3.97 3.97 0 0 0 .324-.599l24.992-5.79a2.33 2.33 0 0 0-.015.262c0 .552.209.928.54 1.078l-10.903 17.411c-.294-.27-.756-.286-1.274.014-.442.255-.842.69-1.133 1.19zm12.873-20.407-24.914 5.772c.067-.243.104-.485.104-.717a1.77 1.77 0 0 0-.044-.407l42.152-57.628a.909.909 0 0 0 .46.05l-15.42 50.64c-.242-.03-.526.038-.829.213-.691.398-1.28 1.24-1.509 2.077zM115.495 22.64l3.295-37.476c.038-.019.075-.039.114-.061.89-.514 1.611-1.763 1.611-2.79 0-.28-.053-.512-.148-.695l11.014-17.59c.229.012.492-.058.772-.219.5-.289.947-.81 1.243-1.394l19.189 4.616c-.128.34-.201.69-.201 1.016 0 .359.088.643.24.84L116.392 22.58c-.244-.109-.554-.096-.897.06zm-27.75 8.399c-.215.6-.604 1.177-1.068 1.567v60.046c.26-.082.495-.077.69.003l26.849-66.074c-.311-.16-.504-.528-.504-1.061 0-.096.006-.195.018-.294l-25.984 5.813zM248.408-79.204l-25.014 10.968c-.209.503-.536.98-.922 1.33l2.491 33.843a.98.98 0 0 1 .611.017l23.326-44.547c-.337-.146-.55-.524-.55-1.082 0-.172.02-.35.058-.53zm.788 1.678-23.374 44.638c.205.194.327.513.327.935 0 .327-.073.676-.201 1.017l18.725 14.571a2.39 2.39 0 0 1 .275-.186c.163-.094.32-.157.468-.19l4.72-61.115c-.058.04-.116.077-.175.111-.277.16-.537.23-.765.219zm-.216 154.647-3.588-90.278a2.704 2.704 0 0 1-.27.216L228.543 65c.29.169.47.529.47 1.041 0 .385-.101.8-.274 1.197l18.988 10.779c.236-.293.509-.54.801-.708a1.72 1.72 0 0 1 .451-.187zm-1.544 1.311-18.929-10.745c-.139.232-.302.45-.481.64l-2.772 40.391c.447-.001.776.298.869.83l21.4-28.345c-.369-.128-.605-.516-.605-1.105 0-.54.199-1.142.518-1.666zm.425 2.816-21.716 28.763c-.049.777-.481 1.652-1.07 2.233v30.808a.969.969 0 0 1 .418.015l22.874-61.954a1.385 1.385 0 0 1-.506.135zm.919-.387-23.017 62.341c.241.186.386.524.386.985 0 .627-.269 1.338-.681 1.913l9.875 28.132c.217-.115.422-.175.609-.184l12.899-93.243c-.023.02-.047.038-.071.056zm-13.806 93.616-9.825-27.991a2.769 2.769 0 0 1-.611.492 1.583 1.583 0 0 1-.615.215l-27.969 50.943c.075.172.117.383.117.629 0 .07-.004.141-.01.213l37.618-21.719a1.853 1.853 0 0 1-.01-.201c0-.907.562-1.987 1.305-2.581zm-124.663 78.97c.093-.054.185-.097.274-.131l-1.833-48.192a2.274 2.274 0 0 1-.232.154 1.866 1.866 0 0 1-.366.163l-20.647 42.245c.043.143.066.306.066.489 0 .381-.1.792-.27 1.185l21.822 5.373c.294-.54.717-1.015 1.186-1.286zm.637-.217a.811.811 0 0 1 .808.419l31.173-50.898c-.349-.14-.57-.522-.57-1.091 0-.087.005-.175.015-.265l-32.561 2.386a3.85 3.85 0 0 1-.706 1.031l1.841 48.418zm.974 1.148-.003.118 80.96-53.52a1.907 1.907 0 0 1-.031-.35c0-.147.015-.298.042-.451l-47.702 1.071c-.296.563-.732 1.063-1.218 1.344-.264.153-.514.223-.734.22l-31.351 51.189c.024.114.037.241.037.379zm-24.578-7.027 20.455-41.853c-.528-.001-.89-.423-.89-1.151 0-.107.008-.217.023-.328l-14.386 1.264-5.568 41.792a.79.79 0 0 1 .366.276zm105.668-47.637c.162-.477.436-.944.771-1.318l-16.916-32.746a2.835 2.835 0 0 1-.67.554c-.4.231-.766.274-1.048.158l-29.572 33.299c.003.045.004.091.004.138 0 .316-.068.653-.188.983l47.619-1.068zm1.113-1.646-16.949-32.811c.324-.474.551-1.031.615-1.555l25.872-22.219c.28.187.676.183 1.117-.052l-9.733 56.192c-.182.023-.38.092-.588.212a2.483 2.483 0 0 0-.334.233zm9.31-56.815-25.632 22.013c-.051-.715-.482-1.086-1.069-.987v-29.568c.22-.217.419-.475.583-.754l26.043 7.706a2.806 2.806 0 0 0-.128.803c0 .328.074.594.203.787zm-27.059-8.241v29.379a2.178 2.178 0 0 0-.179.092c-.392.226-.751.595-1.03 1.025l-22.05-11.982c.158-.324.269-.666.317-.996l21.42-17.46c.289.335.783.38 1.343.056a1.81 1.81 0 0 0 .179-.114zm-23.51 18.954 22.053 11.983c-.209.434-.333.899-.333 1.325 0 .41.114.722.309.917l-29.388 33.091c-.13-.403-.424-.628-.805-.633l7.433-45.871a3.43 3.43 0 0 0 .731-.812zm50.672-12.769-25.992-7.691c.09-.211.16-.428.205-.642l28.506-19.45c.261.47.813.58 1.451.212a.537.537 0 0 0 .032-.019l-2.474 25.888a1.747 1.747 0 0 0-.423.18c-.536.31-1.012.887-1.305 1.522zm2.818-1.179c-.137-.347-.404-.546-.746-.562l2.496-26.117a3.69 3.69 0 0 0 .818-1.055l14.015 1.205a2.217 2.217 0 0 0-.013.24c0 .68.316 1.092.787 1.145l-17.357 25.144zm-.236 1.916c.21-.435.335-.901.335-1.329 0-.069-.003-.135-.01-.199l17.645-25.561c.142-.034.292-.096.448-.185a2.7 2.7 0 0 0 .179-.115v30.62a1.79 1.79 0 0 0-.179.092c-.448.258-.852.702-1.144 1.21l-17.274-4.533zm16.806 6.114c0-.363.09-.752.245-1.128l-17.303-4.541a3.431 3.431 0 0 1-.715.804l-9.778 56.453c.154.034.289.11.397.223l27.829-50.687c-.408-.102-.675-.5-.675-1.124zM244.75-12.73l-16.512 77.627a1.111 1.111 0 0 0-.451.044l-6.63-40.385c.42-.578.694-1.296.694-1.93 0-.183-.023-.346-.065-.488l22.126-34.805c.232.091.521.076.838-.063zm-23.926 37.683 6.592 40.149-.015.008a2.818 2.818 0 0 0-.668.553l-19.644-17.526c.272-.49.439-1.036.439-1.53a1.66 1.66 0 0 0-.082-.54l12.202-20.438a1.58 1.58 0 0 0 .592-.212c.206-.12.403-.278.584-.464zm-14.008 23.609 19.607 17.495c-.385.562-.633 1.241-.633 1.844 0 .279.053.513.148.695l-29.157 25.299c.003-.051.005-.102.005-.152 0-.393-.106-.696-.286-.892l9.599-43.57c.264-.186.508-.435.717-.719zm-10.598 44.091 9.508-43.158c-.261.115-.503.148-.71.105l-25.071 32.146c.007.068.011.139.011.213 0 .46-.144.964-.384 1.427l14.795 10.143c.237-.296.513-.546.807-.716.399-.23.763-.274 1.044-.16zm-2.14 1.29L179.311 83.82c-.269.389-.604.72-.966.93a1.649 1.649 0 0 1-.525.202l-16.185 28.583c.038.138.059.294.059.468 0 .142-.014.289-.04.437l31.949-18.446a1.814 1.814 0 0 1-.04-.39c0-.539.198-1.138.515-1.66zm-.348 2.391-32.203 18.593a3.924 3.924 0 0 1-.375.782l14.312 14.322c.219-.257.468-.473.732-.626.526-.303.992-.282 1.287-.003l17.274-32.69c-.45.121-.823-.023-1.027-.378zm-32.871 19.782 14.306 14.316c-.355.546-.58 1.19-.58 1.764 0 .228.035.425.1.589l-21.229 17.303c-.023-.522-.243-.871-.578-1l7.427-32.44c.199-.146.386-.327.554-.532zm-8.293 32.916 7.363-32.157c-.4.187-.757.181-1.018.013l-26.582 23.067.001.019.001.019v.029a2.787 2.787 0 0 1-.132.845l18.592 9.45c.283-.447.652-.832 1.056-1.065.258-.149.503-.22.719-.22zm-2.018 1.729-18.532-9.42c-.294.627-.765 1.196-1.296 1.502a1.693 1.693 0 0 1-.092.05l-20.847 58.638a.966.966 0 0 1 .274.435l40.55-48.951c-.231-.188-.369-.522-.369-.972 0-.412.116-.86.312-1.282zm-20.29-7.729-20.743 58.347a.887.887 0 0 0-.262-.043l3.234-36.029c.703-.606 1.225-1.64 1.225-2.514 0-.12-.01-.231-.029-.334l15.903-19.5c.185.105.415.133.672.073zm-18.136 22.54-3.215 35.815a1.78 1.78 0 0 0-.388.169c-.67.387-1.245 1.192-1.488 2.005l-14.34 1.26 18.935-39.045c.15-.033.309-.097.474-.192l.009-.005.013-.007zm32.24 33.126 7.402-45.679c-.332.172-.638.213-.887.139l-40.751 49.193c.003.044.005.089.005.136 0 .267-.049.549-.137.829l32.469-2.379c.231-.834.818-1.671 1.506-2.068.136-.078.267-.135.393-.171zM227.657 68.66l-2.753 40.115c-.118.036-.241.09-.367.163-.692.4-1.282 1.243-1.51 2.082l-13.9-1.195c.122-.332.191-.672.191-.99 0-.327-.072-.591-.2-.784l18.132-39.14.037-.018.053-.027.061-.035c.087-.05.173-.107.256-.17zm-18.759 39.164 17.97-38.789c-.292.05-.546-.016-.733-.183L196.701 94.39c-.064.255-.162.51-.286.755l10.686 13.246c.187-.196.392-.363.606-.486.472-.273.896-.284 1.191-.081zm-2.113.947-10.634-13.182c-.268.392-.602.726-.965.939l-17.513 33.14a1.521 1.521 0 0 1 .133.743l28.329-19.329a1.783 1.783 0 0 1-.039-.386c0-.632.272-1.348.689-1.925zm11.912-84.862c-.045.196-.069.39-.069.577 0 .631.272 1.032.688 1.128l-12.03 20.151c-.285-.363-.791-.422-1.369-.088a2.403 2.403 0 0 0-.294.2l-8.991-18.616c.237-.279.44-.604.59-.944l21.475-2.408zm.91-1.699a3.877 3.877 0 0 0-.769 1.237l-21.448 2.405c.072-.252.112-.505.112-.745 0-.706-.341-1.124-.842-1.15L202.842.714c.069-.03.139-.065.21-.106.286-.165.555-.406.788-.691l15.767 22.293zm2.032-.386c-.278-.399-.801-.474-1.399-.129a2.416 2.416 0 0 0-.28.19L204.132-.495c.213-.346.375-.727.461-1.103l38.86-12.929c-.075.26-.117.52-.117.767 0 .423.122.743.328.936l-22.025 34.648zm21.994-36.833c.168-.369.397-.719.665-1.01l-18.566-14.446c-.294.546-.721 1.03-1.195 1.303-.459.265-.874.283-1.167.096L204.513-2.883c.096.184.15.42.15.7 0 .047-.001.094-.004.14l38.974-12.966zM86.859 127.953l5.672 39.004 10.764-17.715c-.414-.098-.684-.498-.684-1.127 0-.512.179-1.078.468-1.581l-16.07-18.741c-.048.055-.099.109-.15.16zm18.568 17.3c-.295-.213-.725-.206-1.205.071-.317.183-.613.46-.863.788l-16.045-18.713c.211-.314.38-.663.487-1.014l33.901-16.722c.144.334.413.52.755.529l-17.03 35.061zm.4.837a1.31 1.31 0 0 0-.185-.606l17.165-35.341c.126-.036.258-.093.394-.171.449-.26.856-.707 1.148-1.218l20.57-2.086a2.545 2.545 0 0 0-.055.513c0 .257.045.476.127.651l-39.164 38.258zm-.153 1.064c.07-.206.118-.413.142-.616l39.354-38.443c.146.149.338.23.56.236l-13.88 30.673c-.29-.163-.689-.136-1.13.118-.629.363-1.173 1.093-1.439 1.853l-23.607 6.179zm23.482-5.717-23.683 6.198a3.888 3.888 0 0 1-.48.739l6.864 13.65c.079-.059.161-.113.243-.161.658-.38 1.223-.252 1.474.256l15.784-19.355c-.158-.197-.249-.485-.249-.851 0-.155.016-.315.047-.476zm-24.495 7.285 6.846 13.614c-.596.617-1.018 1.532-1.018 2.318 0 .685.321 1.099.799 1.146l-18.703 38.565v-36.933l11.042-18.174c.184-.022.385-.091.595-.213.153-.088.3-.197.439-.323zm27.61-9.142 26.41-22.919c-.134-.194-.21-.463-.21-.797 0-.422.122-.881.327-1.311l-11.255-7.524c-.284.454-.658.846-1.067 1.082-.138.08-.273.137-.401.174l-13.991 30.919c.081.101.145.227.187.376zm-44.366-13.661 33.7-16.623a2.048 2.048 0 0 1-.016-.254c0-.245.041-.501.115-.758L87.206 95.715a3.376 3.376 0 0 1-.53.566v28.209c.718-.227 1.254.205 1.254 1.091 0 .11-.009.224-.025.338zm57.144-19.711c.124-.341.303-.676.52-.972l-20.171-21.977a2.993 2.993 0 0 1-.676.61l-1.047 22.19c.659-.146 1.137.285 1.137 1.122 0 .354-.086.735-.234 1.102l20.471-2.075zm1.427-1.818c.432-.249.824-.279 1.113-.127l19.039-41.243c-.376-.113-.622-.487-.636-1.062l-39.775 19.534a3.619 3.619 0 0 1-.525 1.361l20.196 22.004a2.75 2.75 0 0 1 .588-.467zm1.611.93c0 .406-.112.846-.303 1.262l11.261 7.528c.28-.435.642-.809 1.038-1.037.183-.106.36-.172.524-.202l6.725-49.905a1.312 1.312 0 0 1-.396.089l-19.111 41.4c.166.196.262.49.262.865zM201.444-.21c.039.728.464 1.114 1.048 1.026l-6.164 23.177a1.717 1.717 0 0 0-.437.183c-.27.156-.523.378-.746.642L184.254 9.906c.317-.428.554-.937.658-1.432L201.444-.21zm.6-1.912c-.304.458-.518.987-.583 1.489l-16.493 8.665.001-.085c0-.972-.646-1.397-1.469-1.005l-.463-25.376a2.99 2.99 0 0 0 .765-.687l18.242 17zm-18.902 9.28-.464-25.42c-.377.129-.706.079-.938-.122l-33.51 53.228c.097.138.164.315.196.527l33.339-25.288a1.987 1.987 0 0 1-.019-.275c0-.943.608-2.073 1.396-2.65zm-35.126 27.476 33.531-53.261a1.3 1.3 0 0 1-.139-.432l-38.692 30.325c-.005.952-.625 2.092-1.424 2.66l5.278 20.971c.086-.066.174-.125.264-.177.467-.27.888-.283 1.182-.086zm-5.338-23.759 38.714-30.34c.02-.367.126-.757.295-1.128l-26.605-11.544c-.286.468-.668.873-1.087 1.114-.15.087-.296.148-.434.183l-11.933 40.963c.526-.095.929.186 1.05.752zm10.551-41.678-11.955 41.04a1.922 1.922 0 0 0-.169.088c-.852.492-1.549 1.657-1.608 2.657L116.934 23.64c-.003-.395-.115-.698-.301-.89l36.212-53.666a.816.816 0 0 0 .384.113zm31.32 10.15c-.083.381-.244.769-.459 1.12l18.257 17.014c.213-.243.452-.448.705-.594v-21.5c-.86.496-1.563.123-1.609-.83l-16.894 4.79zm19.819-7.655 17.322-38.118a1.792 1.792 0 0 0 .427-.208l2.482 33.717a2.307 2.307 0 0 0-.062.034c-.89.514-1.612 1.763-1.612 2.79 0 .35.083.628.228.823L204.325-3.128c-.224-.204-.545-.262-.915-.146v-21.592c.718-.603 1.253-1.653 1.253-2.539 0-.4-.109-.707-.295-.903zM181.86 10.43l-33.418 25.347c-.033.58-.28 1.215-.648 1.743l19.204 22.08c.186-.196.391-.362.604-.485.569-.328 1.068-.277 1.355.07l25.52-31.438c-.126-.192-.198-.456-.198-.78 0-.568.221-1.204.568-1.746l-10.911-14.94a2.74 2.74 0 0 1-.578.457c-.68.393-1.261.242-1.498-.308zm-15.178 49.55-19.197-22.073c-.199.217-.42.4-.651.534-.273.158-.53.228-.755.22l-20.313 41.424c.282.16.462.498.477.98l39.778-19.536a3.691 3.691 0 0 1 .661-1.55zM125.485 79.99l20.297-41.394c-.342-.143-.56-.523-.56-1.086 0-.32.07-.662.194-.996l-29.062-11.091a3.425 3.425 0 0 1-.752.837l8.932 54.001.099-.06c.313-.18.605-.246.852-.21zm-10.242-53.497 8.938 54.043a3.805 3.805 0 0 0-1.083 1.843L87.807 94.529c.08-.266.123-.533.123-.786 0-.41-.115-.723-.31-.919l26.883-66.159c.219.023.471-.03.74-.17zm24.269-13.104-22.614 10.682c-.05.302-.153.613-.295.91l29.018 11.074c.164-.311.37-.602.604-.847l-5.302-21.07c-.723.324-1.301.012-1.411-.75zm55.172 14.577-25.567 31.497c.063.163.097.358.097.581 0 .043-.002.085-.004.129L204.321 48.2c.079-.699.451-1.457.957-2.003l-8.981-18.594c-.13.114-.266.213-.406.294-.48.278-.911.284-1.207.07zm-25.538 32.65 35.165-11.992c.032.404.185.698.42.857l-24.874 31.892c-.226-.58-.818-.746-1.512-.345-.104.06-.206.13-.304.209l-9.489-19.308a3.75 3.75 0 0 0 .594-1.313zm8.55 20.943-9.456-19.244a2.88 2.88 0 0 1-.549.466l-6.748 50.081a.79.79 0 0 1 .542.344l15.995-28.248c-.449-.071-.747-.48-.747-1.14 0-.76.396-1.644.963-2.26zm-53.331 2.492-1.045 22.135c-.039.019-.079.04-.119.064-.549.316-1.033.912-1.324 1.563l-34.392-12.53c.05-.089.095-.179.138-.27l35.405-12.188a2.349 2.349 0 0 0-.006.167c0 .922.58 1.352 1.343 1.06z" fill="#F2F3F4"></path>
        <path d="m214.69 133.23-100.979 58.3v10.75l100.979-58.3v-10.75z" fill="url(#m)"></path>
        <path d="m214.69 141.499-100.979 58.3v10.75l100.979-58.3v-10.75z" fill="url(#n)"></path>
      </g>
      <path d="M122.037 401.835v-3.101l2.148-1.241v3.101l-2.148 1.241zm2.148-1.241v-3.101l2.149-1.24v3.101l-2.149 1.24zm2.149-1.24v-3.101l2.148-1.241v3.101l-2.148 1.241zm2.148-1.241v-3.101l2.148-1.24v3.101l-2.148 1.24zm2.148-1.24v-3.101l2.149-1.24v3.101l-2.149 1.24z" fill="#99A3B4"></path>
      <path d="M183.204 367.347v-2.584l1.79-1.034v2.584l-1.79 1.034zm1.79-1.034v-2.584l1.79-1.034v2.585l-1.79 1.033zm1.79-1.033v-2.585l1.791-1.033v2.584l-1.791 1.034zm1.791-1.034v-2.584l1.79-1.034v2.584l-1.79 1.034zm1.79-1.034v-2.584l1.791-1.034v2.584l-1.791 1.034zm1.791-1.034v-2.584l1.79-1.033v2.584l-1.79 1.033zm1.79-1.033v-2.584l1.79-1.034v2.584l-1.79 1.034zm1.79-1.034v-2.584l1.791-1.034v2.584l-1.791 1.034zm1.791-1.034v-2.584l1.79-1.033v2.584l-1.79 1.033zm1.79-1.033v-2.584l1.791-1.034v2.584l-1.791 1.034zm1.791-1.034v-2.584l1.79-1.034v2.584l-1.79 1.034zm1.79-1.034v-2.584l1.79-1.034v2.585l-1.79 1.033z" fill="#D5D7DC"></path>
      <path d="M121.947 110.147v-4.134l2.865-1.654v4.135l-2.865 1.653zm2.865-1.653v-4.135l2.864-1.654v4.135l-2.864 1.654zm2.864-1.654v-4.135l2.865-1.654v4.135l-2.865 1.654zm2.865-1.654v-4.135l2.865-1.654v4.135l-2.865 1.654zm2.865-1.654v-4.135l2.864-1.654v4.135l-2.864 1.654zm2.864-1.654v-4.135l2.865-1.654v4.135l-2.865 1.654zm2.865-1.654v-4.135l2.864-1.654v4.135l-2.864 1.654zm4.297-2.48v-4.135l2.864-1.654v4.134l-2.864 1.654zm2.864-1.655v-4.134l2.865-1.654v4.134l-2.865 1.654zm2.865-1.654v-4.134l2.865-1.654v4.134l-2.865 1.654zm2.865-1.654v-4.134l2.864-1.654v4.135l-2.864 1.653zm2.864-1.653v-4.135l2.865-1.654v4.135l-2.865 1.654zm2.865-1.654v-4.135l2.865-1.654v4.135l-2.865 1.654zm2.865-1.654v-4.135l2.864-1.654v4.135l-2.864 1.654zm2.864-1.654v-4.135l2.865-1.654v4.135l-2.865 1.654z" fill="#99A3B4"></path>
      <g clip-path="url(#o)">
        <rect width="9.923" height="9.923" rx="4.962" transform="matrix(.86603 -.5 0 1 122.305 379.66)" fill="#62CBC1"></rect>
        <path transform="matrix(.86603 -.5 0 1 125.528 386.481)" stroke="#62CBC1" stroke-width=".579" stroke-linecap="round" stroke-linejoin="round" d="M.289-.289h1.902"></path>
        <path transform="matrix(.86603 -.5 0 1 125.886 387.101)" stroke="#62CBC1" stroke-width=".579" stroke-linecap="round" stroke-linejoin="round" d="M.289-.289h1.075"></path>
        <path d="M126.602 384.621v-1.654M126.245 383.173l.716-.413M126.602 378.832v-.827M128.628 378.631l.507-.877M124.071 386.525l.506-.877M129.467 380.486l.716-.414M123.022 384.207l.716-.414M128.628 383.309l.507.292M124.071 380.678l.506.292M127.677 383.669c.642-.8 1.074-1.851 1.074-2.77 0-1.37-.962-1.925-2.149-1.24-1.186.685-2.148 2.351-2.148 3.721 0 .919.432 1.471 1.074 1.529" stroke="#62CBC1" stroke-width=".579" stroke-linecap="round" stroke-linejoin="round"></path>
      </g>
      <path d="m206.096 346.583-83.791 48.376v.413l83.791-48.376v-.413z" fill="#F2F3F4"></path>
      <path d="M121.992 141.959v-3.618l2.507-1.447v3.618l-2.507 1.447zm2.507-1.447v-3.618l2.506-1.447v3.617l-2.506 1.448zm2.506-1.448v-3.617l2.507-1.448v3.618l-2.507 1.447zm2.507-1.447v-3.618l2.506-1.447v3.618l-2.506 1.447zm3.76-2.17v-3.618l2.506-1.448v3.618l-2.506 1.448zm2.506-1.448v-3.618l2.507-1.447v3.618l-2.507 1.447zm2.507-1.447v-3.618l2.506-1.447v3.618l-2.506 1.447zm2.506-1.447v-3.618l2.507-1.447v3.618l-2.507 1.447zm2.507-1.447v-3.618l2.506-1.447v3.618l-2.506 1.447zm2.506-1.447v-3.618l2.507-1.447v3.618l-2.507 1.447z" fill="#D5D7DC"></path>
      <path d="M121.902 131.02v-4.652l3.223-1.861v4.652l-3.223 1.861zm3.223-1.861v-4.652l3.223-1.86v4.651l-3.223 1.861zm3.223-1.861v-4.651l3.222-1.861v4.652l-3.222 1.86zm3.222-1.86v-4.652l3.223-1.86v4.651l-3.223 1.861zm3.223-1.861v-4.651l3.223-1.861v4.652l-3.223 1.86z" fill="#99A3B4"></path>
      <path d="M121.992 167.181v-3.618l2.506-1.447v3.617l-2.506 1.448zm2.506-1.448v-3.617l2.507-1.448v3.618l-2.507 1.447zm2.507-1.447v-3.618l2.507-1.447v3.618l-2.507 1.447zm2.507-1.447v-3.618l2.506-1.447v3.618l-2.506 1.447zm2.506-1.447v-3.618l2.507-1.447v3.618l-2.507 1.447zm2.507-1.447v-3.618l2.506-1.447v3.618l-2.506 1.447zm3.759-2.171v-3.618l2.507-1.447v3.618l-2.507 1.447zm2.507-1.447v-3.618l2.507-1.447v3.618l-2.507 1.447zm2.507-1.447v-3.618l2.506-1.447v3.618l-2.506 1.447zm2.506-1.447v-3.618l2.507-1.447v3.618l-2.507 1.447zm2.507-1.447v-3.618l2.506-1.448v3.618l-2.506 1.448zm2.506-1.448v-3.618l2.507-1.447v3.618l-2.507 1.447zm2.507-1.447v-3.618l2.506-1.447v3.618l-2.506 1.447z" fill="#D5D7DC"></path>
      <path d="M121.902 156.242v-4.652l3.223-1.861v4.652l-3.223 1.861zm3.223-1.861v-4.652l3.223-1.86v4.651l-3.223 1.861zm3.223-1.861v-4.651l3.222-1.861v4.652l-3.222 1.86zm3.222-1.86v-4.652l3.223-1.86v4.651l-3.223 1.861zm3.223-1.861v-4.651l3.223-1.861v4.651l-3.223 1.861zm3.223-1.861v-4.651l3.223-1.861v4.652l-3.223 1.86z" fill="#99A3B4"></path>
      <rect width="9.923" height="9.923" rx="4.962" transform="matrix(.86603 -.5 0 1 122.305 214.684)" fill="#C0C5CB"></rect>
      <path d="M136.27 213.583v-4.135l2.865-1.654v4.135l-2.865 1.654zm2.865-1.654v-4.135L142 206.14v4.135l-2.865 1.654zm2.865-1.654v-4.135l2.864-1.654v4.135L142 210.275zm2.864-1.654v-4.135l2.865-1.654v4.135l-2.865 1.654zm2.865-1.654v-4.135l2.864-1.653v4.134l-2.864 1.654zm2.864-1.654v-4.134l2.865-1.654v4.134l-2.865 1.654zm2.865-1.654v-4.134l2.865-1.654v4.134l-2.865 1.654z" fill="#99A3B4"></path>
      <rect width="9.923" height="9.923" rx="4.962" transform="matrix(.86603 -.5 0 1 122.305 232.877)" fill="#C0C5CB"></rect>
      <path d="M136.27 231.776v-4.135l2.865-1.654v4.135l-2.865 1.654zm2.865-1.654v-4.135l2.865-1.654v4.135l-2.865 1.654zm2.865-1.654v-4.135l2.864-1.654v4.135L142 228.468zm2.864-1.654v-4.135l2.865-1.654v4.135l-2.865 1.654zm2.865-1.654v-4.135l2.864-1.654v4.135l-2.864 1.654zm2.864-1.654v-4.135l2.865-1.654v4.135l-2.865 1.654zm2.865-1.654v-4.135l2.865-1.653v4.134l-2.865 1.654zm4.297-2.481v-4.134l2.865-1.654v4.134l-2.865 1.654zm2.865-1.654v-4.134l2.864-1.654v4.135l-2.864 1.653zm2.864-1.653v-4.135l2.865-1.654v4.135l-2.865 1.654zm2.865-1.654v-4.135l2.865-1.654v4.135l-2.865 1.654zm2.865-1.654v-4.135l2.864-1.654v4.135l-2.864 1.654z" fill="#99A3B4"></path>
      <rect width="9.923" height="9.923" rx="4.962" transform="matrix(.86603 -.5 0 1 122.305 251.07)" fill="#C0C5CB"></rect>
      <path d="M136.27 249.968v-4.134l2.865-1.654v4.135l-2.865 1.653zm2.865-1.653v-4.135l2.865-1.654v4.135l-2.865 1.654zm2.865-1.654v-4.135l2.864-1.654v4.135L142 246.661zm2.864-1.654v-4.135l2.865-1.654v4.135l-2.865 1.654zm2.865-1.654v-4.135l2.864-1.654v4.135l-2.864 1.654zm2.864-1.654v-4.135l2.865-1.654v4.135l-2.865 1.654zm2.865-1.654v-4.135l2.865-1.654v4.135l-2.865 1.654zm2.865-1.654v-4.135l2.864-1.653v4.134l-2.864 1.654zm2.864-1.654v-4.134l2.865-1.654v4.134l-2.865 1.654zm2.865-1.654v-4.134l2.865-1.654v4.135l-2.865 1.653zm2.865-1.653v-4.135l2.864-1.654v4.135l-2.864 1.654z" fill="#99A3B4"></path>
      <rect width="9.923" height="9.923" rx="4.962" transform="matrix(.86603 -.5 0 1 122.305 269.262)" fill="#C0C5CB"></rect>
      <path d="M136.27 268.161v-4.135l2.865-1.654v4.135l-2.865 1.654zm2.865-1.654v-4.135l2.865-1.653v4.134l-2.865 1.654zm2.865-1.654v-4.134l2.864-1.654v4.134L142 264.853zm2.864-1.654v-4.134l2.865-1.654v4.135l-2.865 1.653zm2.865-1.653v-4.135l2.864-1.654v4.135l-2.864 1.654zm2.864-1.654v-4.135l2.865-1.654v4.135l-2.865 1.654zm2.865-1.654v-4.135l2.865-1.654v4.135l-2.865 1.654zm4.297-2.481v-4.135l2.865-1.654v4.135l-2.865 1.654zm2.865-1.654v-4.135l2.864-1.654v4.135l-2.864 1.654zm2.864-1.654v-4.135l2.865-1.654v4.135l-2.865 1.654zm2.865-1.654v-4.135l2.865-1.653v4.134l-2.865 1.654zm2.865-1.654v-4.134l2.864-1.654v4.134l-2.864 1.654zm2.864-1.654v-4.134l2.865-1.654v4.135l-2.865 1.653zm2.865-1.653v-4.135l2.864-1.654v4.135l-2.864 1.654z" fill="#99A3B4"></path>
      <rect width="9.923" height="9.923" rx="4.962" transform="matrix(.86603 -.5 0 1 122.305 287.455)" fill="#C0C5CB"></rect>
      <path d="M136.27 286.354v-4.135l2.865-1.654v4.135l-2.865 1.654zm2.865-1.654v-4.135l2.865-1.654v4.135l-2.865 1.654zm2.865-1.654v-4.135l2.864-1.653v4.134L142 283.046zm2.864-1.654v-4.134l2.865-1.654v4.134l-2.865 1.654zm4.297-2.481v-4.134l2.865-1.654v4.135l-2.865 1.653zm2.865-1.653v-4.135l2.864-1.654v4.135l-2.864 1.654zm2.864-1.654v-4.135l2.865-1.654v4.135l-2.865 1.654zm2.865-1.654v-4.135l2.865-1.654v4.135l-2.865 1.654zm2.865-1.654v-4.135l2.864-1.654v4.135l-2.864 1.654zm2.864-1.654v-4.135l2.865-1.654v4.135l-2.865 1.654z" fill="#99A3B4"></path>
      <rect width="9.923" height="9.923" rx="4.962" transform="matrix(.86603 -.5 0 1 122.305 305.648)" fill="#C0C5CB"></rect>
      <path d="M136.27 304.547v-4.135l2.865-1.654v4.135l-2.865 1.654zm2.865-1.654v-4.135l2.865-1.654v4.135l-2.865 1.654zm2.865-1.654v-4.135l2.864-1.654v4.135L142 301.239zm2.864-1.654v-4.135l2.865-1.653v4.134l-2.865 1.654zm2.865-1.654v-4.134l2.864-1.654v4.134l-2.864 1.654zm2.864-1.654v-4.134l2.865-1.654v4.134l-2.865 1.654zm2.865-1.654v-4.134l2.865-1.654v4.135l-2.865 1.653zm2.865-1.653v-4.135l2.864-1.654v4.135l-2.864 1.654z" fill="#99A3B4"></path>
      <rect width="9.923" height="9.923" rx="4.962" transform="matrix(.86603 -.5 0 1 122.305 323.841)" fill="#C0C5CB"></rect>
      <path d="M136.27 322.74v-4.135l2.865-1.654v4.135l-2.865 1.654zm2.865-1.654v-4.135l2.865-1.654v4.135l-2.865 1.654zm2.865-1.654v-4.135l2.864-1.654v4.135L142 319.432zm2.864-1.654v-4.135l2.865-1.654v4.135l-2.865 1.654zm2.865-1.654v-4.135l2.864-1.654v4.135l-2.864 1.654zm2.864-1.654v-4.135l2.865-1.653v4.134l-2.865 1.654zm2.865-1.654v-4.134l2.865-1.654v4.134l-2.865 1.654z" fill="#99A3B4"></path>
      <path d="M160.994 307.706c.593-.343 1.074-1.176 1.074-1.861s-.481-.963-1.074-.62c-.594.343-1.075 1.176-1.075 1.861s.481.962 1.075.62z" fill="#EF7C87"></path>
      <path d="M121.902 181.463v-4.651l3.223-1.861v4.652l-3.223 1.86zm3.223-1.86v-4.652l3.223-1.861v4.652l-3.223 1.861zm3.223-1.861v-4.652l3.222-1.86v4.651l-3.222 1.861zm3.222-1.861v-4.651l3.223-1.861v4.652l-3.223 1.86zm3.223-1.86v-4.652l3.223-1.86v4.651l-3.223 1.861zm3.223-1.861v-4.651l3.223-1.861v4.652l-3.223 1.86zm3.223-1.86v-4.652l3.222-1.861v4.652l-3.222 1.861zm3.222-1.861v-4.652l3.223-1.86v4.651l-3.223 1.861z" fill="#99A3B4"></path>
      <path d="M148.329 166.206v-4.651l3.222-1.861v4.651l-3.222 1.861zm3.938-2.274v-4.652l3.223-1.86v4.651l-3.223 1.861zm3.223-1.861v-4.651l3.223-1.861v4.652l-3.223 1.86zm3.223-1.86v-4.652l3.223-1.86v4.651l-3.223 1.861zm3.223-1.861v-4.651l3.222-1.861v4.652l-3.222 1.86zm3.222-1.86v-4.652l3.223-1.861v4.652l-3.223 1.861z" fill="#62CBC1"></path>
      <path d="M121.992 187.479v-3.618l2.506-1.447v3.618l-2.506 1.447zm2.506-1.447v-3.618l2.507-1.447v3.618l-2.507 1.447zm2.507-1.447v-3.618l2.507-1.447v3.618l-2.507 1.447zm2.507-1.447v-3.618l2.506-1.448v3.618l-2.506 1.448zm2.506-1.448v-3.618l2.507-1.447v3.618l-2.507 1.447zm2.507-1.447v-3.618l2.506-1.447v3.618l-2.506 1.447zm2.506-1.447v-3.618l2.507-1.447v3.618l-2.507 1.447zm3.76-2.171v-3.618l2.507-1.447v3.618l-2.507 1.447zm2.507-1.447v-3.618l2.506-1.447v3.618l-2.506 1.447zm2.506-1.447v-3.618l2.507-1.447v3.618l-2.507 1.447zm2.507-1.447v-3.618l2.506-1.447v3.618l-2.506 1.447zm2.506-1.447v-3.618l2.507-1.447v3.618l-2.507 1.447z" fill="#D5D7DC"></path>
    </g>
    <path transform="matrix(.86603 -.5 0 1 113.711 86.094)" fill="url(#p)" fill-opacity=".3" style="mix-blend-mode:multiply" d="M0 0h155.141v335.74H0z"></path>
  </g>
  <mask id="q" fill="#fff">
    <path fill-rule="evenodd" clip-rule="evenodd" d="M285.565 339.648h6.196v18.967h-.02c0 .458-.302.915-.907 1.264-1.209.699-3.17.699-4.38 0-.691-.399-.988-.94-.889-1.46v-18.771z"></path>
  </mask>
  <path fill-rule="evenodd" clip-rule="evenodd" d="M285.565 339.648h6.196v18.967h-.02c0 .458-.302.915-.907 1.264-1.209.699-3.17.699-4.38 0-.691-.399-.988-.94-.889-1.46v-18.771z" fill="#CDFFFA"></path>
  <path d="M291.761 339.648v-1h1v1h-1zm-6.196 0h-1v-1h1v1zm6.196 18.967h1v1h-1v-1zm-.02 0h-1l.001-1h.999v1zm-.907 1.264-.5-.866.5.866zm-4.38 0-.5.866.5-.866zm-.889-1.46h1v.094l-.017.092-.983-.186zm6.196-17.771h-6.196v-2h6.196v2zm-1 17.967v-18.967h2v18.967h-2zm.98-1h.02v2h-.02v-2zm-1.407 1.398c.204-.118.311-.228.362-.3a.262.262 0 0 0 .04-.074.066.066 0 0 0 .005-.024l2 .001c0 .94-.62 1.675-1.407 2.129l-1-1.732zm-3.38 0c.417.241 1.026.39 1.69.39.664 0 1.273-.149 1.69-.39l1 1.732c-.792.458-1.768.658-2.69.658-.922 0-1.897-.2-2.69-.658l1-1.732zm-.406-.408c-.001.002-.009.022.026.08.04.069.145.193.38.328l-1 1.732c-.901-.52-1.579-1.419-1.371-2.513l1.965.373zm.017-18.957v18.771h-2v-18.771h2z" fill="#012135" mask="url(#q)"></path>
  <circle r="2.029" transform="matrix(-.86603 .5 .86603 .5 288.648 339.775)" fill="#CDFFFA" stroke="#012135"></circle>
  <mask id="r" fill="#fff">
    <path fill-rule="evenodd" clip-rule="evenodd" d="M277.234 270.312h22.933v70.205h-.07c0 1.694-1.12 3.388-3.358 4.68-4.477 2.585-11.736 2.585-16.213 0-2.553-1.473-3.65-3.469-3.292-5.391v-69.494z"></path>
  </mask>
  <path fill-rule="evenodd" clip-rule="evenodd" d="M277.234 270.312h22.933v70.205h-.07c0 1.694-1.12 3.388-3.358 4.68-4.477 2.585-11.736 2.585-16.213 0-2.553-1.473-3.65-3.469-3.292-5.391v-69.494z" fill="#CDFFFA"></path>
  <path d="M300.167 270.312v-1h1v1h-1zm-22.933 0h-1v-1h1v1zm22.933 70.205h1v1h-1v-1zm-.07 0h-1v-1h1v1zm-3.358 4.68-.5-.866.5.866zm-16.213 0-.5.866.5-.866zm-3.292-5.391h1v.092l-.017.091-.983-.183zm22.933-68.494h-22.933v-2h22.933v2zm-1 69.205v-70.205h2v70.205h-2zm.93-1h.07v2h-.07v-2zm-3.858 4.814c2.056-1.187 2.858-2.603 2.858-3.814h2c-.001 2.177-1.438 4.149-3.858 5.546l-1-1.732zm-15.213 0c2.051 1.184 4.801 1.805 7.606 1.805 2.805 0 5.556-.621 7.607-1.805l1 1.732c-2.426 1.401-5.544 2.073-8.607 2.073-3.063 0-6.18-.672-8.606-2.073l1-1.732zm-2.809-4.342c-.251 1.35.465 2.989 2.809 4.342l-1 1.732c-2.761-1.594-4.239-3.946-3.775-6.44l1.966.366zm.017-69.677v69.494h-2v-69.494h2z" fill="#012135" mask="url(#r)"></path>
  <mask id="t" style="mask-type:alpha" maskUnits="userSpaceOnUse" x="277" y="270" width="24" height="78">
    <mask id="s" fill="#fff">
      <path fill-rule="evenodd" clip-rule="evenodd" d="M277.234 270.312h22.933v70.205h-.07c0 1.694-1.12 3.388-3.358 4.68-4.477 2.585-11.736 2.585-16.213 0-2.553-1.473-3.65-3.469-3.292-5.391v-69.494z"></path>
    </mask>
    <path fill-rule="evenodd" clip-rule="evenodd" d="M277.234 270.312h22.933v70.205h-.07c0 1.694-1.12 3.388-3.358 4.68-4.477 2.585-11.736 2.585-16.213 0-2.553-1.473-3.65-3.469-3.292-5.391v-69.494z" fill="#CDFFFA"></path>
    <path d="M300.167 270.312v-1h1v1h-1zm-22.933 0h-1v-1h1v1zm22.933 70.205h1v1h-1v-1zm-.07 0h-1v-1h1v1zm-3.358 4.68-.5-.866.5.866zm-16.213 0-.5.866.5-.866zm-3.292-5.391h1v.092l-.017.091-.983-.183zm22.933-68.494h-22.933v-2h22.933v2zm-1 69.205v-70.205h2v70.205h-2zm.93-1h.07v2h-.07v-2zm-3.858 4.814c2.056-1.187 2.858-2.603 2.858-3.814h2c-.001 2.177-1.438 4.149-3.858 5.546l-1-1.732zm-15.213 0c2.051 1.184 4.801 1.805 7.606 1.805 2.805 0 5.556-.621 7.607-1.805l1 1.732c-2.426 1.401-5.544 2.073-8.607 2.073-3.063 0-6.18-.672-8.606-2.073l1-1.732zm-2.809-4.342c-.251 1.35.465 2.989 2.809 4.342l-1 1.732c-2.761-1.594-4.239-3.946-3.775-6.44l1.966.366zm.017-69.677v69.494h-2v-69.494h2z" fill="#012135" mask="url(#s)"></path>
  </mask>
  <g mask="url(#t)" fill="#083B5A">
    <path d="M265.264 251.492h19.168v103.461h-19.168zM285.546 253.766h2.223v103.461h-2.223z"></path>
  </g>
  <circle r="8.861" transform="matrix(-.86603 .5 .86603 .5 288.632 270.783)" fill="#CDFFFA" stroke="#012135"></circle>
  <mask id="u" fill="#fff">
    <path fill-rule="evenodd" clip-rule="evenodd" d="M285.565 250.254h6.196v18.967h-.02c0 .457-.302.915-.907 1.264-1.209.698-3.17.698-4.38 0-.691-.399-.988-.94-.889-1.461v-18.77z"></path>
  </mask>
  <path fill-rule="evenodd" clip-rule="evenodd" d="M285.565 250.254h6.196v18.967h-.02c0 .457-.302.915-.907 1.264-1.209.698-3.17.698-4.38 0-.691-.399-.988-.94-.889-1.461v-18.77z" fill="#CDFFFA"></path>
  <path d="M291.761 250.254v-1h1v1h-1zm-6.196 0h-1v-1h1v1zm6.196 18.967h1v1h-1v-1zm-.02 0-1-.001.001-.999h.999v1zm-.907 1.264-.5-.866.5.866zm-4.38 0-.5.866.5-.866zm-.889-1.461h1v.094l-.017.093-.983-.187zm6.196-17.77h-6.196v-2h6.196v2zm-1 17.967v-18.967h2v18.967h-2zm.98-1h.02v2h-.02v-2zm-1.407 1.398c.204-.118.311-.228.362-.3a.277.277 0 0 0 .04-.075.066.066 0 0 0 .005-.024l2 .001c0 .941-.62 1.676-1.407 2.13l-1-1.732zm-3.38 0c.417.241 1.026.39 1.69.39.664 0 1.273-.149 1.69-.39l1 1.732c-.792.457-1.768.658-2.69.658-.922 0-1.897-.201-2.69-.658l1-1.732zm-.406-.408c-.001.002-.009.022.026.08.04.068.145.192.38.328l-1 1.732c-.901-.52-1.579-1.42-1.371-2.514l1.965.374zm.017-18.957v18.77h-2v-18.77h2z" fill="#012135" mask="url(#u)"></path>
  <circle r="2.029" transform="matrix(-.86603 .5 .86603 .5 288.648 250.38)" fill="#CDFFFA" stroke="#012135"></circle>
  <defs>
    <clipPath id="j">
      <rect width="140.586" height="28.041" rx="5.542" transform="matrix(.86603 -.5 0 1 118.494 378.585)" fill="#fff"></rect>
    </clipPath>
    <clipPath id="k">
      <path fill="#fff" transform="matrix(.86603 -.5 0 1 113.711 86.094)" d="M0 0h116.6v335.74H0z"></path>
    </clipPath>
    <clipPath id="l">
      <path fill="#fff" transform="matrix(.86603 -.5 0 1 113.711 86.094)" d="M0 0h116.6v124.455H0z"></path>
    </clipPath>
    <clipPath id="o">
      <rect width="9.923" height="9.923" rx="4.962" transform="matrix(.86603 -.5 0 1 122.305 379.66)" fill="#fff"></rect>
    </clipPath>
    <linearGradient id="m" x1="164.2" y1="162.38" x2="168.856" y2="170.442" gradientUnits="userSpaceOnUse">
      <stop stop-color="#fff" stop-opacity="0"></stop>
      <stop offset="1" stop-color="#fff"></stop>
    </linearGradient>
    <linearGradient id="n" x1="164.2" y1="170.649" x2="168.856" y2="178.712" gradientUnits="userSpaceOnUse">
      <stop stop-color="#fff" stop-opacity="0"></stop>
      <stop offset="1" stop-color="#fff"></stop>
    </linearGradient>
    <linearGradient id="p" x1="-.004" y1="332.354" x2="-104.13" y2="141.317" gradientUnits="userSpaceOnUse">
      <stop stop-color="#708AA9"></stop>
      <stop offset="1" stop-color="#C2FFF9" stop-opacity="0"></stop>
    </linearGradient>
  </defs>
</svg>
