<?xml version="1.0" encoding="UTF-8"?>
<svg xmlns="http://www.w3.org/2000/svg" width="670" height="267" fill="none">
  <g clip-path="url(#a)">
    <path fill="url(#b)" d="M0 0h670v267H0z"></path>
    <g opacity=".2">
      <path d="M183.003 239.469c-17.337 10.012-17.337 26.386 0 36.386L405.136 404.11c17.337 10.012 45.697 10.012 63.034 0l330.828-191.003c17.336-10.012 17.336-26.386 0-36.386L576.864 48.478c-17.337-10.012-45.697-10.012-63.033 0L183.003 239.481v-.012z" fill="#CDFFFA" stroke="#001928" stroke-linecap="round" stroke-linejoin="round"></path>
      <path d="M651.282 209.776c4.15 2.39 10.927 2.39 15.065 0l56.743-32.759c4.15-2.39 4.15-6.303 0-8.705l-7.657-4.423c-4.15-2.39-10.928-2.39-15.066 0l-56.743 32.759c-4.15 2.39-4.15 6.303 0 8.705l7.658 4.423zM675.683 149.632c4.15-2.39 4.15-6.302 0-8.704l-7.658-4.424c-4.15-2.39-10.928-2.39-15.066 0l-51.975 30.013h-7.967l.096 7.146c.023 1.558 1.058 3.116 3.103 4.305l7.658 4.423c4.15 2.391 10.928 2.391 15.066 0l56.743-32.759z" fill="#CDFFFA" stroke="#001928" stroke-linecap="round" stroke-linejoin="round"></path>
      <path d="M658.166 138.895c-.951.808-.832 1.986.238 2.616l9.358 5.41c1.034.595 2.664.487 3.603-.262.939-.749.844-1.807-.166-2.39l-9.81-5.66c-.952-.547-2.402-.416-3.223.297v-.011z" fill="#083A5A"></path>
      <path d="M610.401 177.017v7.086" stroke="#001928" stroke-linecap="round" stroke-linejoin="round"></path>
      <path d="M613.124 184.103c2.129-.202 4.186-.76 5.815-1.712l28.764-16.599-34.579 1.129v17.182z" fill="#001928" stroke="#001928" stroke-linecap="round" stroke-linejoin="round"></path>
      <path d="M603.861 174.721c4.15 2.391 10.583 3.484 15.066 1.808l28.764-10.737-22.736-13.128-28.764 10.737c-4.78 1.784-3.733 4.745 0 6.897l7.658 4.423h.012z" fill="#CDFFFA" stroke="#001928" stroke-linecap="round" stroke-linejoin="round"></path>
      <path d="M402.974 144.296h11.986l155.972 88.135 92.321-44.519v103.569l-137.744 79.526-122.535-70.738V144.296z" fill="#083A5A"></path>
      <path d="M576.259 241.029v100.68" stroke="#99D3CE" stroke-linecap="round" stroke-linejoin="round"></path>
      <path d="M402.973 144.296h11.986l155.972 88.135v112.357l-45.423 26.219-122.535-70.738V144.296z" fill="#99D3CE"></path>
      <path d="M402.974 144.296h11.986l155.972 88.135 92.321-44.519v103.569l-137.744 79.526-122.535-70.738V144.296z" stroke="#001928" stroke-miterlimit="10"></path>
      <path d="M409.465 153.809c-8.668-5.006-8.668-13.199 0-18.205l70.454-40.679c8.668-5.006 22.866-5.006 31.534 0l145.295 83.89c8.669 5.006 8.669 13.199 0 18.205l-70.453 40.679c-8.669 5.006-22.866 5.006-31.535 0l-145.295-83.89z" fill="#CDFFFA" stroke="#001928" stroke-linecap="round" stroke-linejoin="round"></path>
      <path d="m405.136 404.113-126.543-73.057V216.095h11.986l155.973 88.146 92.321-44.519v103.57l-70.704 40.821c-17.336 10.012-45.696 10.012-63.033 0z" fill="#083A5A"></path>
      <path d="m405.136 404.113-126.542-73.057V216.095h11.985l155.973 88.146V410.95c-14.447 1.879-30.227-.38-41.416-6.837z" fill="#99D3CE"></path>
      <path d="m405.136 404.113-126.543-73.057V216.095h11.986l155.973 88.146 92.321-44.519v103.57l-70.704 40.821c-17.336 10.012-45.696 10.012-63.033 0z" stroke="#001928" stroke-miterlimit="10"></path>
      <path d="m532.369 268.83-70.453 40.679c-8.669 5.006-22.867 5.006-31.535 0l-145.294-83.891c-8.669-5.006-8.669-13.198 0-18.204l70.453-40.679c8.668-5.006 22.866-5.006 31.535 0l145.294 83.89c8.668 5.006 8.668 13.199 0 18.205z" fill="#CDFFFA" stroke="#001928" stroke-linecap="round" stroke-linejoin="round"></path>
      <path d="M482.691 93.599c7.175-4.142 18.806-4.142 25.981 0l150.126 86.675c7.174 4.142 7.174 10.858 0 15l-51.144 29.528-176.107-101.675 51.144-29.528z" fill="#083A5A"></path>
      <path d="M799 181.623 576.867 53.368c-17.337-10.012-45.697-10.012-63.034 0L183.005 244.37c-7.598 4.387-11.855 9.988-12.794 15.744-1.213-7.385 3.056-15.018 12.794-20.643L513.833 48.469c17.337-10.012 45.697-10.012 63.034 0L799 176.712c9.739 5.624 14.008 13.258 12.795 20.642-.94-5.755-5.209-11.367-12.795-15.743v.012z" fill="#083A5A" stroke="#083A5A" stroke-linecap="round" stroke-linejoin="round"></path>
      <path d="M548.959 41.06c10.19.476 20.155 2.926 27.908 7.409L799 176.712c9.739 5.624 14.007 13.258 12.795 20.642-.94-5.755-5.209-11.367-12.795-15.743L576.867 53.356c-7.753-4.47-17.718-6.932-27.908-7.408V41.05v.012z" fill="#99D3CE" stroke="#083A5A" stroke-linecap="round" stroke-linejoin="round"></path>
      <path d="M468.664 101.428c4.157 17.548 9.154 32.148 16.759 36.535 10.662 6.155 16.168-25.962 21.554-58.6 5.557-33.636 10.993-67.882 21.835-61.616 8.244 4.657 13.241 20.645 17.448 39.632 7.265 32.977 11.862 75.187 25.892 83.282 20.046 11.571 22.794-38.883 42.34-27.601 9.094 5.256 12.441 16.109 17.168 34.676 6.375 25.042 9.863 43.149 13.56 55.96l-38.633 22.295-176.765-102.139 38.842-22.424z" fill="#99D3CE" stroke="#001928" stroke-miterlimit="10"></path>
      <path d="M528.812 17.697v155.311a13.856 13.856 0 0 1-6.925 11.991l-26.041 14.99M485.423 137.962v9.993a13.85 13.85 0 0 1-6.925 11.991l-26.042 14.99M442.034 116.807v.25c0 7.614-5.396 16.988-11.991 20.775l-20.985 12.112M572.152 140.62v57.41a13.855 13.855 0 0 1-6.925 11.991l-26.042 14.99M610.415 111.752v111.951" stroke="#001928" stroke-miterlimit="10"></path>
      <path d="m371.463 157.81 163.116 94.175c7.175 4.142 7.175 10.858 0 15l-51.144 29.528-176.107-101.675 64.135-37.028z" fill="#083A5A"></path>
      <rect width="16.392" height="63.441" rx="8.196" transform="matrix(.86603 .5 -.86603 .5 415.313 203.701)" fill="#083A5A"></rect>
      <path d="M364.101 207.125v27.064c0 3.413 4.792 6.183 10.714 6.183 5.921 0 10.713-2.77 10.713-6.183v-27.064h-21.427z" fill="#F1843E"></path>
      <path d="M372.317 207.125h-8.216v27.064c0 2.913 3.508 5.363 8.216 6.005v-33.069z" fill="#F1843E"></path>
      <path d="M364.101 207.125v27.064c0 3.413 4.792 6.183 10.714 6.183 5.921 0 10.713-2.77 10.713-6.183v-27.064h-21.427v0z" stroke="#001928" stroke-linecap="round" stroke-linejoin="round"></path>
      <path d="M374.815 213.309c-5.917 0-10.714-2.769-10.714-6.184s4.797-6.183 10.714-6.183c5.917 0 10.713 2.768 10.713 6.183s-4.796 6.184-10.713 6.184z" fill="#F1843E" stroke="#001928" stroke-linecap="round" stroke-linejoin="round"></path>
      <rect width="16.392" height="63.441" rx="8.196" transform="matrix(.86603 .5 -.86603 .5 454.321 244.184)" fill="#083A5A"></rect>
      <path d="M402.651 234.486v40.203c0 3.413 4.792 6.183 10.714 6.183 5.921 0 10.713-2.77 10.713-6.183v-40.203h-21.427z" fill="#F1843E"></path>
      <path d="M410.867 234.486h-8.216v40.203c0 2.913 3.508 5.363 8.216 6.005v-46.22.012z" fill="#F1843E"></path>
      <path d="M402.651 234.486v40.203c0 3.413 4.792 6.183 10.714 6.183 5.921 0 10.713-2.77 10.713-6.183v-40.203h-21.427v0z" stroke="#001928" stroke-linecap="round" stroke-linejoin="round"></path>
      <path d="M413.365 240.669c-5.917 0-10.714-2.768-10.714-6.183s4.797-6.183 10.714-6.183c5.916 0 10.713 2.768 10.713 6.183s-4.797 6.183-10.713 6.183z" fill="#F1843E" stroke="#001928" stroke-linecap="round" stroke-linejoin="round"></path>
      <path d="M285.086 176.328c-8.668-5.006-8.668-13.199 0-18.205l70.454-40.679c8.668-5.006 22.866-5.006 31.534 0l145.295 83.89c8.668 5.006 8.668 13.199 0 18.205l-70.454 40.679c-8.668 5.006-22.866 5.006-31.534 0l-145.295-83.89z" fill="#CDFFFA" stroke="#083A5A" stroke-linecap="round" stroke-linejoin="round"></path>
      <path d="M306.275 139.109v27.064c0 3.413 4.792 6.184 10.714 6.184 5.922 0 10.713-2.771 10.713-6.184v-27.064h-21.427z" fill="#F1843E"></path>
      <path d="M306.275 139.109v27.064c0 3.413 4.792 6.184 10.714 6.184 5.922 0 10.713-2.771 10.713-6.184v-27.064h-21.427v0z" stroke="#001928" stroke-linecap="round" stroke-linejoin="round"></path>
      <path d="M316.989 145.293c-5.917 0-10.714-2.769-10.714-6.184s4.797-6.183 10.714-6.183c5.917 0 10.714 2.768 10.714 6.183s-4.797 6.184-10.714 6.184z" fill="#F1843E" stroke="#001928" stroke-linecap="round" stroke-linejoin="round"></path>
      <path d="M325.552 97.67v53.354c0 3.412 4.792 6.183 10.713 6.183 5.922 0 10.714-2.771 10.714-6.183V97.67h-21.427z" fill="#99D3CE"></path>
      <path d="M325.552 97.67v53.354c0 3.412 4.792 6.183 10.713 6.183 5.922 0 10.714-2.771 10.714-6.183V97.67h-21.427z" fill="#99D3CE" stroke="#001928" stroke-linecap="round" stroke-linejoin="round"></path>
      <path d="M336.265 103.853c-5.917 0-10.713-2.768-10.713-6.183s4.796-6.184 10.713-6.184c5.917 0 10.714 2.769 10.714 6.184s-4.797 6.183-10.714 6.183z" fill="#99D3CE" stroke="#001928" stroke-linecap="round" stroke-linejoin="round"></path>
      <path d="M344.827 135.079v53.353c0 3.413 4.792 6.184 10.713 6.184 5.922 0 10.714-2.771 10.714-6.184v-53.353h-21.427z" fill="#99D3CE"></path>
      <path d="M344.827 135.079v53.353c0 3.413 4.792 6.184 10.713 6.184 5.922 0 10.714-2.771 10.714-6.184v-53.353h-21.427z" fill="#99D3CE" stroke="#001928" stroke-linecap="round" stroke-linejoin="round"></path>
      <path d="M355.54 141.262c-5.917 0-10.714-2.768-10.714-6.183s4.797-6.184 10.714-6.184c5.917 0 10.714 2.769 10.714 6.184s-4.797 6.183-10.714 6.183z" fill="#99D3CE" stroke="#001928" stroke-linecap="round" stroke-linejoin="round"></path>
      <path d="M364.101 181.69v17.861c0 3.412 4.792 6.183 10.714 6.183 5.921 0 10.713-2.771 10.713-6.183V181.69h-21.427z" fill="#F1843E"></path>
      <path d="M364.101 181.69v17.861c0 3.412 4.792 6.183 10.714 6.183 5.921 0 10.713-2.771 10.713-6.183V181.69h-21.427v0z" stroke="#001928" stroke-linecap="round" stroke-linejoin="round"></path>
      <path d="M374.815 187.874c-5.917 0-10.714-2.769-10.714-6.184s4.797-6.182 10.714-6.182c5.917 0 10.713 2.767 10.713 6.182 0 3.415-4.796 6.184-10.713 6.184z" fill="#F1843E" stroke="#001928" stroke-linecap="round" stroke-linejoin="round"></path>
      <path d="M383.376 170.478v40.203c0 3.412 4.792 6.183 10.714 6.183 5.921 0 10.713-2.771 10.713-6.183v-40.203h-21.427z" fill="#99D3CE"></path>
      <path d="M383.376 170.478v40.203c0 3.412 4.792 6.183 10.714 6.183 5.921 0 10.713-2.771 10.713-6.183v-40.203h-21.427z" fill="#99D3CE" stroke="#001928" stroke-linecap="round" stroke-linejoin="round"></path>
      <path d="M394.09 176.661c-5.917 0-10.714-2.768-10.714-6.183s4.797-6.184 10.714-6.184c5.917 0 10.713 2.769 10.713 6.184s-4.796 6.183-10.713 6.183z" fill="#99D3CE" stroke="#001928" stroke-linecap="round" stroke-linejoin="round"></path>
      <path d="M402.651 214.462v7.349c0 3.412 4.792 6.183 10.714 6.183 5.921 0 10.713-2.771 10.713-6.183v-7.349h-21.427z" fill="#F1843E"></path>
      <path d="M402.651 214.462v7.349c0 3.412 4.792 6.183 10.714 6.183 5.921 0 10.713-2.771 10.713-6.183v-7.349h-21.427v0z" stroke="#001928" stroke-linecap="round" stroke-linejoin="round"></path>
      <path d="M413.365 220.645c-5.917 0-10.714-2.768-10.714-6.183s4.797-6.183 10.714-6.183c5.916 0 10.713 2.768 10.713 6.183s-4.797 6.183-10.713 6.183z" fill="#F1843E" stroke="#001928" stroke-linecap="round" stroke-linejoin="round"></path>
    </g>
  </g>
  <defs>
    <linearGradient id="b" x1="0" y1="267" x2="564.261" y2="-143.061" gradientUnits="userSpaceOnUse">
      <stop stop-color="#011222"></stop>
      <stop offset="1" stop-color="#002F45"></stop>
    </linearGradient>
    <clipPath id="a">
      <rect width="670" height="267" rx="16" fill="#fff"></rect>
    </clipPath>
  </defs>
</svg>
