<?xml version="1.0" encoding="UTF-8"?>
<svg xmlns="http://www.w3.org/2000/svg" width="65" height="65" fill="none">
  <g clip-path="url(#a)">
    <path d="M32.115 64.23c17.736 0 32.115-14.379 32.115-32.115C64.23 14.378 49.85 0 32.115 0 14.378 0 0 14.378 0 32.115 0 49.85 14.378 64.23 32.115 64.23z" fill="#62CBC1"></path>
    <path d="m45.738 41.093 4.726-8.186-9.474-16.408H22.045l-9.478 16.408 9.473 16.408h28.502l-4.804-8.222zm-10.105 1.482h-9.697l-5.582-9.668 5.582-9.669h11.166l4.91 8.505h-12.72l6.341 10.832z" fill="#fff"></path>
  </g>
  <defs>
    <clipPath id="a">
      <path fill="#fff" d="M0 0h64.231v64.231H0z"></path>
    </clipPath>
  </defs>
</svg>
