<?xml version="1.0" encoding="UTF-8"?>
<svg xmlns="http://www.w3.org/2000/svg" width="354" height="419" fill="none">
  <g clip-path="url(#a)">
    <rect width="186.516" height="194.207" rx="30.856" transform="scale(-1.22452 .7075) rotate(45 -483.964 -29.667)" fill="#001928"></rect>
    <path d="M331.961 321.176h-.138l-.119-.069-99.672-57.588c-7.281-4.207-16.857-6.325-26.46-6.325-9.603 0-19.178 2.118-26.459 6.325L79.44 321.107l-.119.069H59.767v11.335c-.33 5.571 3.177 11.315 10.788 15.713l108.558 62.722c7.281 4.207 16.856 6.325 26.459 6.325 9.603 0 19.179-2.118 26.46-6.325l108.558-62.722c7.538-4.356 11.051-10.034 10.796-15.554v-11.494h-19.425z" fill="#99D3CE" stroke="#012135" stroke-width="1.029"></path>
    <mask id="b" style="mask-type:alpha" maskUnits="userSpaceOnUse" x="59" y="255" width="293" height="162">
      <path d="M178.855 262.074c14.756-8.526 38.679-8.526 53.434 0l99.672 57.588H351.9v11.985c.267 5.78-3.417 11.61-11.053 16.022l-108.558 62.722c-14.755 8.526-38.678 8.526-53.434 0L70.297 347.669c-7.708-4.454-11.39-10.354-11.044-16.188v-11.819h19.93l99.672-57.588z" fill="#083A5A"></path>
    </mask>
    <g mask="url(#b)" fill="#083A5A">
      <path d="M55.288 252.266h148.636v174.461H55.288zM206.894 252h-1v175h1z"></path>
    </g>
    <rect width="187.087" height="187.087" rx="30.856" transform="scale(-1.22452 .7075) rotate(45 -471.358 -42.176)" fill="#CDFFFA" stroke="#012135" stroke-width="1.029" stroke-linecap="round" stroke-linejoin="round"></rect>
    <rect width="86.313" height="30.736" rx="8" transform="scale(-1.22452 .7075) rotate(45 -661.865 -82.073)" fill="#CDFFFA" stroke="#012135" stroke-width="1.029" stroke-linecap="round" stroke-linejoin="round"></rect>
    <rect width="171.248" height="129.635" rx="21" transform="scale(-1.22452 .7075) rotate(45 -484.874 -36.578)" fill="#99D3CE" stroke="#012135" stroke-width="1.029" stroke-linecap="round" stroke-linejoin="round"></rect>
    <path fill-rule="evenodd" clip-rule="evenodd" d="M187.389 245.498c10.043-5.802 26.324-5.802 36.367 0l75.708 43.743c3.947 2.28 6.343 5.118 7.187 8.074l-82.895-47.895c-10.043-5.802-26.324-5.802-36.367 0L75.478 314.08c-4.156 2.401-6.592 5.42-7.308 8.545-1.015-4.426 1.421-9.066 7.308-12.467l111.911-64.66z" fill="#083A5A"></path>
    <path d="m223.756 245.498.257-.445-.257.445zm-36.367 0 .258.445-.258-.445zm112.075 43.743-.257.445.257-.445zm7.187 8.074.494-.141a.515.515 0 0 1-.751.586l.257-.445zm-82.895-47.895-.258.445.258-.445zm-36.367 0 .258.445-.258-.445zM75.478 314.08l-.258-.445.258.445zm-7.308 8.545.5.115a.514.514 0 0 1-1.002 0l.501-.115zm7.308-12.467-.258-.445.258.445zm148.02-64.215c-4.924-2.845-11.411-4.282-17.926-4.282-6.514 0-13.001 1.437-17.925 4.282l-.515-.89c5.118-2.957 11.793-4.421 18.44-4.421 6.648 0 13.323 1.464 18.441 4.421l-.515.89zm75.709 43.743-75.709-43.743.515-.89 75.708 43.742-.514.891zm6.949 7.77c-.796-2.79-3.078-5.533-6.949-7.77l.514-.891c4.023 2.325 6.532 5.256 7.424 8.379l-.989.282zm.238.304-82.896-47.895.515-.89 82.895 47.895-.514.89zm-82.896-47.895c-4.924-2.845-11.411-4.282-17.926-4.282-6.514 0-13.001 1.437-17.925 4.282l-.515-.89c5.118-2.957 11.793-4.421 18.44-4.421 6.648 0 13.323 1.464 18.441 4.421l-.515.89zm-35.851 0-111.912 64.66-.515-.89 111.912-64.66.515.89zm-111.912 64.66c-4.077 2.356-6.39 5.272-7.064 8.215l-1.003-.23c.758-3.307 3.317-6.428 7.552-8.875l.515.89zm0-3.922c-5.775 3.337-8.01 7.783-7.064 11.907l-1.003.23c-1.083-4.729 1.555-9.562 7.552-13.027l.515.89zm111.912-64.66-111.912 64.66-.515-.89 111.912-64.66.515.89z" fill="#012135"></path>
    <rect y=".5" width="25.07" height="12.226" rx="6.113" transform="matrix(-.86603 .5 .86603 .5 213.203 369.695)" fill="#F1843E" stroke="#012135"></rect>
    <circle r="4.642" transform="matrix(-.86603 .5 .86603 .5 202.776 382.326)" fill="#CDFFFA" stroke="#012135"></circle>
    <rect y="-.5" width="25.07" height="12.226" rx="6.113" transform="matrix(.86603 -.5 -.86603 -.5 216.593 396.547)" fill="#083A5A" stroke="#001928"></rect>
    <circle r="4.642" transform="matrix(.86603 -.5 -.86603 -.5 227.882 384.417)" fill="#CDFFFA" stroke="#001928"></circle>
    <path transform="matrix(-.86603 -.5 -.86603 .5 293.733 347.906)" stroke="#012135" d="M0-.5h20.186"></path>
    <rect width="156.326" height="34.565" rx="9" transform="scale(-1.22452 .7075) rotate(45 -507.543 -29.058)" fill="#083A5A" stroke="#012135" stroke-width="1.029" stroke-linecap="round" stroke-linejoin="round"></rect>
    <rect width="156.326" height="34.565" rx="9" transform="scale(-1.22452 .7075) rotate(45 -501.204 -31.683)" fill="#CDFFFA" stroke="#012135" stroke-width="1.029" stroke-linecap="round" stroke-linejoin="round"></rect>
    <rect width="156.326" height="34.565" rx="9" transform="scale(-1.22452 .7075) rotate(45 -552.088 -47.478)" fill="#083A5A" stroke="#012135" stroke-width="1.029" stroke-linecap="round" stroke-linejoin="round"></rect>
    <rect width="156.326" height="34.565" rx="9" transform="scale(-1.22452 .7075) rotate(45 -545.757 -50.101)" fill="#CDFFFA" stroke="#012135" stroke-width="1.029" stroke-linecap="round" stroke-linejoin="round"></rect>
    <rect width="156.326" height="34.565" rx="9" transform="scale(-1.22452 .7075) rotate(45 -596.917 -68.01)" fill="#083A5A" stroke="#001928" stroke-width="1.029" stroke-linecap="round" stroke-linejoin="round"></rect>
    <rect width="156.326" height="34.565" rx="9" transform="scale(-1.22452 .7075) rotate(45 -590.578 -70.636)" fill="#CDFFFA" stroke="#001928" stroke-width="1.029" stroke-linecap="round" stroke-linejoin="round"></rect>
    <g clip-path="url(#c)">
      <path d="M308.382 333.776s1.147-.963.277-1.375c-.838-.422-1.819.056-2.188.271-.373.213-1.202.779-.47 1.264.714.502 2.381-.16 2.381-.16m4.442-1.429c.858-.766 1.856-2.348-.852-3.12-1.477-1.414-3.033-1.751-4.342-2.02.242-.922-.438-2.678-3.27-2.659-1.614.011-3.051 1.682-2.656 2.51-1.062.125-2.109.452-2.805 1.242-1.369.402-1.936 1.007-2.153 1.62-1.434-.228-4.328.602-4.346 1.533-.034 1.636 3.009 2.028 4.606 1.888.465.756 1.048 1.654 3.498 2.507 1.337 1.564 4.077.988 5.404.493m6.916-3.994c-2.749-1.642-4.942-2.305-7.926-.582-2.983 1.722-1.834 2.988 1.01 4.576m6.916-3.994c.436.516.127 1.803-1.833 2.935-1.959 1.131-4.189 1.31-5.083 1.059m-2.451-9.681c.06-.312.526-.991 1.166-.975.836.02 1.019.716 1.125 1.061m-9.691 4.186c-.541.035-1.716.304-1.689.673.036.483 1.241.589 1.838.65m14.292 1.664-1.866 1.077m-3.488-4.595 1.866-.291s.804-.679.325-.987c-.48-.247-1.229-.231-1.721.014-.601.299-.774.862-.47 1.264zm-2.606 1.505-.506 1.078s-1.176.464-1.709.187c-.428-.277-.4-.709.024-.993.519-.348 1.494-.448 2.191-.272z" stroke="#012135" stroke-miterlimit="10" stroke-linecap="round" stroke-linejoin="round"></path>
    </g>
    <g clip-path="url(#d)">
      <path d="M264.645 351.093c-.57.01-1.859.321-2.144 1.532-2.097.165-2.637.909-2.653 1.238m9.188-.661c.158.221.436.794.288 1.32m2.113 1.645c-.376-.269-1.294-.515-1.752.606m0 0 1.356.783m-1.356-.783c-1.941.264-1.515.795-1.05 1.011m2.377-5.704c1.582 1.216.748 2.146 1.177 2.97.43.825 1.488 1.195 1.677 1.414.19.218-.036.306-.123.521-.086.215.175.352.032.605-.142.253-.556.282-.898.431a2.333 2.333 0 0 0-.515.297 2.4 2.4 0 0 0-.515.298c-.259.197-.308.436-.747.519-.438.082-.675-.069-1.048-.019-.372.05-.524.18-.903.071-.378-.109-1.019-.72-2.447-.968-1.428-.248-3.039.234-5.145-.68m1.943-1.141c.383.091 1.376.252 2.285.166m-2.648-8.56c1.219.088 3.741.397 4.079.929.422.665-.541 1.31-.873 1.764-.333.454-.248.96.864 1.253 1.231.323 2.395-.07 3.002-1.031.607-.96.992-1.892-.03-2.536-1.021-.644-4.013-.966-7.042-.379zm-8.64 4.989c.153.703.687 2.159 1.609 2.354 1.151.244 2.268-.312 3.055-.504.787-.192 1.664-.142 2.17.499.561.711-.122 1.383-1.785 1.734-1.664.35-3.278.572-4.393-.018-1.116-.589-1.673-2.317-.656-4.065z" stroke="#012135" stroke-linecap="round" stroke-linejoin="round"></path>
    </g>
    <circle r="8.431" transform="matrix(-.86603 .5 .86603 .5 103.362 319.931)" fill="#F1843E" stroke="#012135"></circle>
    <circle r="8.431" transform="matrix(-.86603 .5 .86603 .5 134.295 339.282)" fill="#CDFFFA" stroke="#012135"></circle>
    <circle r="8.431" transform="matrix(-.86603 .5 .86603 .5 168.983 358.239)" fill="#CDFFFA" stroke="#001928"></circle>
    <path d="M205.604 2.004v6.034M196.284 9.84l3.108 1.733M215.913 9.84l-3.108 1.733" stroke="#012135" stroke-width="2" stroke-linecap="round"></path>
    <path d="M135.308 375.551c-.957-.552-2.507-.552-3.464 0l-4.523 2.614c-1.913 1.105-1.913 2.897 0 4.002l19.047 11.005c1.913 1.105 5.014 1.105 6.927 0l4.523-2.614c.957-.552.957-1.448 0-2.001l-22.51-13.006z" fill="#CDFFFA" stroke="#012135" stroke-width="1.029" stroke-linecap="round" stroke-linejoin="round"></path>
    <path fill-rule="evenodd" clip-rule="evenodd" d="M131.49 244.765a65.766 65.766 0 0 1-.038-1.82h-4c0 .672.021 1.414.044 2.208.061 2.151.134 4.686-.175 7.247-.425 3.523-1.505 6.283-3.66 7.647-1.773 1.123-5.548 2.805-10.92 4.963-5.309 2.133-11.997 4.662-19.467 7.479l-1.18.445c-14.68 5.536-32.15 12.124-47.762 18.893-15.942 6.913-30.256 14.141-37.6 20.766-1.855 1.673-3.36 3.391-4.328 5.144-.976 1.77-1.459 3.686-1.05 5.637.409 1.949 1.64 3.603 3.435 4.983 1.783 1.37 4.22 2.552 7.288 3.58l2.82.945c22.02 7.376 34.659 11.609 42.518 16.372 4.01 2.431 6.674 4.947 8.667 8.031 2.016 3.12 3.42 6.934 4.741 12.092 2.829 11.045 11.729 22.615 24.217 27.919 12.653 5.374 28.707 4.205 45.439-9.76.281-1.691-.662-2.911-2.564-3.071-15.72 13.121-30.201 13.868-41.311 9.149-11.276-4.789-19.368-15.322-21.906-25.23-1.362-5.318-2.896-9.617-5.256-13.27-2.383-3.687-5.531-6.6-9.954-9.28-8.253-5.002-21.29-9.368-42.77-16.561l-3.37-1.129c-2.84-.952-4.821-1.959-6.12-2.958-1.286-.988-1.802-1.883-1.959-2.633-.157-.749-.025-1.682.638-2.884.672-1.218 1.828-2.594 3.505-4.106 6.784-6.121 20.495-13.121 36.511-20.066 15.521-6.73 32.914-13.289 47.617-18.833l1.146-.432c7.458-2.813 14.19-5.358 19.546-7.51 5.294-2.127 9.43-3.941 11.568-5.295 3.752-2.376 5.033-6.744 5.492-10.548.349-2.89.261-5.923.198-8.114z" fill="#CDFFFA" stroke="#012135"></path>
    <mask id="e" fill="#fff">
      <path fill-rule="evenodd" clip-rule="evenodd" d="M123.623 226.758h12.427v19.228H136c-.088.844-.691 1.673-1.808 2.318-2.426 1.4-6.359 1.4-8.785 0-1.382-.798-1.977-1.879-1.784-2.92v-18.626z"></path>
    </mask>
    <path fill-rule="evenodd" clip-rule="evenodd" d="M123.623 226.758h12.427v19.228H136c-.088.844-.691 1.673-1.808 2.318-2.426 1.4-6.359 1.4-8.785 0-1.382-.798-1.977-1.879-1.784-2.92v-18.626z" fill="#99D3CE"></path>
    <path d="M136.05 226.758v-1h1v1h-1zm-12.427 0h-1v-1h1v1zm12.427 19.228h1v1h-1v-1zm-.05 0-.994-.105.094-.895h.9v1zm-1.808 2.318.5.866-.5-.866zm-8.785 0-.5.866.5-.866zm-1.784-2.92h1v.092l-.017.09-.983-.182zm12.427-17.626h-12.427v-2h12.427v2zm-1 18.228v-19.228h2v19.228h-2zm.95-1h.05v2H136v-2zm-2.308 2.451c.948-.547 1.27-1.137 1.314-1.556l1.989.209c-.133 1.269-1.017 2.337-2.303 3.08l-1-1.733zm-7.785 0c1.025.592 2.432.917 3.893.917 1.461 0 2.867-.325 3.892-.917l1 1.733c-1.4.808-3.173 1.184-4.892 1.184-1.719 0-3.492-.376-4.893-1.184l1-1.733zm-1.301-1.871c-.086.47.128 1.194 1.301 1.871l-1 1.733c-1.59-.919-2.566-2.355-2.267-3.968l1.966.364zm.017-18.808v18.626h-2v-18.626h2z" fill="#012135" mask="url(#e)"></path>
    <circle r="4.572" transform="matrix(-.86603 .5 .86603 .5 129.8 227.013)" fill="#CDFFFA" stroke="#012135"></circle>
    <path fill-rule="evenodd" clip-rule="evenodd" d="m226.476 163.625-.66.655v2.253c0 1.657-1.164 3.672-2.599 4.5L21.849 287.293l4.7 2.712c-1.518 1.107-4.394 3.341-4.394 3.341s-4.134-2.11-6.242-3.376c-.54-.238-.88-.846-.88-1.742v-9.498c0-1.657 1.164-3.671 2.599-4.5l205.585-118.695c.681-.392 1.3-.448 1.763-.222h.001l.025.013.064.036 6.413 3.573c-1.072.781-3.6 3.292-5.007 4.69z" fill="#CDFFFA"></path>
    <path d="M225.816 164.28h-.5c0-.135.053-.263.149-.357l.351.357zm.66-.655.354.354-.001.001-.353-.355zm-3.259 7.408.25.433-.25-.433zM21.849 287.293l-.25.433a.5.5 0 0 1 0-.866l.25.433zm4.7 2.712.25-.433a.501.501 0 0 1 .045.837l-.294-.404zm-4.394 3.341.307.395a.5.5 0 0 1-.534.051l.227-.446zm-6.242-3.376.202-.457a.405.405 0 0 1 .055.029l-.257.428zm1.719-15.74.25.433-.25-.433zm205.585-118.695-.25-.433.25.433zm1.763-.222.359.348a.5.5 0 0 1-.579.102l.22-.45zm.001 0-.359-.348a.499.499 0 0 1 .602-.089l-.243.437zm.025.013-.231.444a.178.178 0 0 1-.013-.007l.244-.437zm.064.036-.243.437-.013-.007.256-.43zm6.413 3.573.244-.437a.498.498 0 0 1 .051.841l-.295-.404zm-5.007 4.69.353.355a.11.11 0 0 0-.011.01l-.342-.365zm0 0-.353-.354.012-.012.341.366zm-1.011.298c.167-.164.392-.388.659-.653l.705.71c-.266.264-.493.49-.663.656l-.701-.713zm-.149 2.61v-2.253h1v2.253h-1zm-2.349 4.067c.624-.36 1.217-.998 1.655-1.756.437-.759.694-1.591.694-2.311h1c0 .937-.326 1.941-.828 2.811-.503.87-1.209 1.654-2.021 2.122l-.5-.866zM21.599 286.86 222.968 170.6l.5.866-201.368 116.26-.5-.866zm4.701 3.578-4.7-2.712.5-.866 4.7 2.712-.5.866zm-4.145 2.908-.307-.395.002-.001.007-.005.024-.019.094-.073.347-.269 1.157-.89a166.23 166.23 0 0 1 2.776-2.093l.59.808c-.755.55-1.849 1.382-2.758 2.079-.454.348-.86.661-1.153.888l-.346.267-.094.073-.024.019-.006.005-.002.001-.307-.395zm-5.985-3.804c1.042.625 2.591 1.463 3.888 2.149a211.6 211.6 0 0 0 2.144 1.117l.134.069a5.1 5.1 0 0 0 .035.018l.008.004.002.002h.001l-.227.445-.228.446v-.001l-.003-.001-.009-.005a3.258 3.258 0 0 1-.035-.018l-.135-.069-.499-.257c-.421-.218-1.005-.522-1.655-.866-1.297-.686-2.869-1.535-3.936-2.176l.515-.857zm-.637-1.314c0 .782.29 1.156.582 1.285l-.404.915c-.787-.348-1.178-1.19-1.178-2.2h1zm0-9.498v9.498h-1v-9.498h1zm2.349-4.067c-.624.36-1.217.998-1.655 1.757-.437.758-.694 1.59-.694 2.31h-1c0-.937.326-1.94.829-2.81.502-.871 1.208-1.654 2.02-2.123l.5.866zm205.585-118.695L17.882 274.663l-.5-.866 205.585-118.695.5.866zm1.293-.205c-.262-.129-.699-.137-1.293.205l-.5-.866c.767-.442 1.569-.562 2.233-.238l-.44.899zm.58-.102h-.001l-.718-.695.001-.001.718.696zm-.578.102-.025-.014.487-.873.025.014-.487.873zm.052.029a.767.767 0 0 0-.039-.022l.461-.888c.03.016.061.033.091.051l-.513.859zm6.426 3.58-6.413-3.573.487-.873 6.413 3.572-.487.874zm-5.116 3.898c.703-.698 1.69-1.679 2.636-2.582.937-.896 1.861-1.743 2.429-2.157l.589.808c-.505.368-1.38 1.167-2.327 2.071-.938.897-1.918 1.87-2.622 2.57l-.705-.71zm.011-.011.683.731v.001l-.683-.732zm-.012.013v-.001l.707.708-.707-.707z" fill="#012135"></path>
    <mask id="g" style="mask-type:alpha" maskUnits="userSpaceOnUse" x="14" y="155" width="218" height="139">
      <mask id="f" fill="#fff">
        <path fill-rule="evenodd" clip-rule="evenodd" d="M226.335 163.445c-.266.265-.492.489-.661.655v2.253c0 1.657-1.163 3.672-2.598 4.5L21.708 287.113l4.7 2.713c-1.518 1.106-4.395 3.341-4.395 3.341s-4.133-2.11-6.241-3.376c-.54-.239-.88-.847-.88-1.743v-9.497c0-1.657 1.163-3.672 2.598-4.5l205.586-118.695c.68-.393 1.299-.449 1.763-.222v-.001l.025.014a.824.824 0 0 1 .065.036l6.413 3.572c-1.072.782-3.6 3.293-5.007 4.69z"></path>
      </mask>
      <path fill-rule="evenodd" clip-rule="evenodd" d="M226.335 163.445c-.266.265-.492.489-.661.655v2.253c0 1.657-1.163 3.672-2.598 4.5L21.708 287.113l4.7 2.713c-1.518 1.106-4.395 3.341-4.395 3.341s-4.133-2.11-6.241-3.376c-.54-.239-.88-.847-.88-1.743v-9.497c0-1.657 1.163-3.672 2.598-4.5l205.586-118.695c.68-.393 1.299-.449 1.763-.222v-.001l.025.014a.824.824 0 0 1 .065.036l6.413 3.572c-1.072.782-3.6 3.293-5.007 4.69z" fill="#99D3CE"></path>
      <path d="M225.674 164.1h-1c0-.269.108-.526.3-.714l.7.714zm.661-.655.707.708-.002.002-.705-.71zm-3.259 7.408.5.866-.5-.866zM21.708 287.113l-.5.866a.998.998 0 0 1 0-1.732l.5.866zm4.7 2.713.5-.867a1.001 1.001 0 0 1 .09 1.675l-.59-.808zm-4.395 3.341.614.789a.999.999 0 0 1-1.068.101l.454-.89zm-6.241-3.376.404-.915c.038.017.075.036.11.057l-.514.858zm1.718-15.74.5.866-.5-.866zm205.586-118.695-.5-.866.5.866zm1.763-.222.718.696a1.001 1.001 0 0 1-1.158.202l.44-.898zm0-.001-.718-.696c.315-.325.81-.398 1.205-.178l-.487.874zm.025.014-.46.888-.027-.015.487-.873zm.065.036-.487.873-.026-.015.513-.858zm6.413 3.572.487-.873a1 1 0 0 1 .102 1.682l-.589-.809zm-5.007 4.69.705.71a.48.48 0 0 1-.023.021l-.682-.731zm0 0-.707-.707a.578.578 0 0 1 .025-.024l.682.731zm-1.361-.059.656-.65 1.41 1.419-.665.658-1.401-1.427zm-.3 2.967V164.1h2v2.253h-2zm-2.098 3.634c.53-.305 1.066-.87 1.471-1.573.406-.703.627-1.449.627-2.061h2c0 1.046-.36 2.135-.895 3.061-.534.926-1.298 1.783-2.203 2.305l-1-1.732zM21.208 286.247l201.368-116.26 1 1.732-201.368 116.26-1-1.732zm4.7 4.445-4.7-2.713 1-1.732 4.7 2.712-1 1.733zm-3.895 2.475-.613-.79v-.001l.002-.001.007-.005a.401.401 0 0 0 .024-.019l.095-.073.347-.269c.294-.227.702-.542 1.158-.891.909-.697 2.016-1.539 2.787-2.101l1.178 1.617c-.749.545-1.839 1.374-2.748 2.071-.453.347-.86.66-1.152.886l-.345.268-.094.072a.43.43 0 0 1-.024.019l-.006.005-.002.001-.613-.789zm-5.727-4.234c1.029.618 2.568 1.451 3.864 2.136.646.342 1.226.643 1.644.86l.495.255.133.068.035.018.008.005.003.001-.454.891-.455.89-.003-.001-.01-.005a2.787 2.787 0 0 1-.035-.018l-.136-.07-.5-.258c-.422-.218-1.008-.523-1.66-.868-1.296-.685-2.878-1.541-3.958-2.189l1.03-1.715zm-.394-.885c0 .669.24.808.284.828l-.809 1.829c-1.034-.457-1.475-1.533-1.475-2.657h2zm0-9.497v9.497h-2v-9.497h2zm2.098-3.634c-.53.305-1.065.87-1.47 1.573-.407.703-.628 1.449-.628 2.061h-2c0-1.046.36-2.135.895-3.061.535-.926 1.298-1.783 2.203-2.305l1 1.732zm205.586-118.695L17.99 274.917l-1-1.732L222.576 154.49l1 1.732zm.823-.19c-.062-.03-.316-.103-.823.19l-1-1.732c.854-.493 1.838-.677 2.702-.254l-.879 1.796zm1.158-.203v.001l-1.437-1.392.001-.001 1.436 1.392zm-1.18.191-.024-.013.973-1.748.025.014-.974 1.747zm.039.021-.012-.006.92-1.776c.04.02.079.042.118.065l-1.026 1.717zm6.439 3.588-6.413-3.573.974-1.747 6.413 3.573-.974 1.747zm-5.225 3.107c.703-.698 1.693-1.682 2.643-2.59.932-.891 1.881-1.762 2.48-2.199l1.178 1.617c-.473.344-1.324 1.119-2.276 2.028a192.26 192.26 0 0 0-2.615 2.563l-1.41-1.419zm.023-.022 1.364 1.462-1.364-1.462zm-.025.024 1.414 1.414v.001l-1.414-1.415z" fill="#012135" mask="url(#f)"></path>
    </mask>
    <g mask="url(#g)" fill="#083A5A">
      <path d="m30.892 285.996-21-12.125v14.358l21 12.124zM30.892 282.946l-21-12.125v1.05l21 12.124z"></path>
    </g>
    <rect width="243.39" height="15.146" rx="3" transform="matrix(-.86603 .5 0 1 232.14 157.684)" fill="#99D3CE" stroke="#012135" stroke-linecap="round" stroke-linejoin="round"></rect>
    <path fill="#083A5A" d="M212.753 42.484 32.08 146.796V269.69l180.673-104.312z"></path>
    <path d="M212.315 41.281v123.081M186.522 56.172v123.081M161.108 70.848v123.08M135.312 85.738V208.82M109.897 100.41v123.081M84.1 115.305v123.08M58.69 129.977v123.08M32.515 145.09v123.081M212.128 164.691 32.706 268.281M212.124 134.027 32.702 237.617M212.124 103.367 32.702 206.956M212.124 72.27 32.702 175.858M212.128 41.172 32.706 144.76M212.128 164.691 32.706 268.281M212.315 41.281v123.081" stroke="#001928"></path>
    <path d="M212.128 96.777s-15.379 41.188-25.632 47.107c-10.252 5.919-15.379 5.494-25.631-.587-10.253-6.081-15.379-35.737-25.632-29.818-10.253 5.92-15.379 87.343-25.632 93.263-10.252 5.919-15.379-75.739-25.632-69.82-10.252 5.919-15.378 87.343-25.631 93.262-10.253 5.92-25.632 8.645-25.632 8.645" stroke="#F1843E" stroke-width="2" stroke-linecap="round"></path>
    <path d="M212.129 99.803c.741-.428 1.451-1.177 1.974-2.084.524-.907.818-1.897.818-2.752.001-.855-.293-1.505-.817-1.808-.523-.303-1.233-.233-1.973.194-.741.428-1.451 1.177-1.975 2.084-.524.906-.818 1.896-.819 2.751-.001.855.293 1.506.816 1.81.523.302 1.233.233 1.973-.193l.003-.002zM186.71 147.385c.855-.493 1.675-1.358 2.279-2.405.604-1.046.944-2.189.944-3.176 0-.987-.339-1.737-.943-2.087-.604-.349-1.423-.268-2.278.225s-1.674 1.357-2.279 2.404c-.605 1.046-.945 2.189-.945 3.176-.001.987.338 1.738.942 2.088.603.35 1.422.27 2.277-.223l.003-.002zM160.916 147.031c.873-.504 1.711-1.389 2.329-2.459.618-1.07.965-2.238.966-3.247 0-1.009-.347-1.776-.965-2.133-.617-.358-1.455-.275-2.329.229-.874.504-1.712 1.388-2.33 2.458-.618 1.07-.966 2.238-.966 3.247-.001 1.009.345 1.777.963 2.135.617.358 1.455.276 2.328-.228l.004-.002zM135.502 117.257c.927-.535 1.815-1.473 2.47-2.607.655-1.135 1.023-2.373 1.024-3.443 0-1.07-.368-1.884-1.023-2.262-.654-.379-1.543-.291-2.469.243-.927.534-1.815 1.472-2.471 2.606-.655 1.134-1.024 2.373-1.024 3.443-.001 1.07.366 1.884 1.021 2.263.654.38 1.542.293 2.469-.241l.003-.002zM109.708 210.195c.844-.487 1.653-1.342 2.25-2.375.597-1.034.932-2.162.932-3.136 0-.975-.335-1.716-.931-2.061-.597-.345-1.406-.265-2.25.221-.844.487-1.653 1.341-2.25 2.374-.597 1.034-.933 2.162-.934 3.137 0 .975.334 1.716.93 2.062.596.345 1.405.266 2.249-.22h.001l.003-.002zM84.294 140.795v-.001c.95-.548 1.86-1.509 2.531-2.672.672-1.163 1.05-2.432 1.05-3.529s-.377-1.931-1.048-2.319c-.671-.388-1.582-.298-2.532.249-.95.548-1.86 1.509-2.532 2.672-.672 1.163-1.05 2.432-1.05 3.529-.001 1.097.375 1.931 1.046 2.32.671.389 1.581.3 2.531-.247l.004-.002zM58.495 233.575c.832-.48 1.63-1.322 2.218-2.341.589-1.019.92-2.131.92-3.091 0-.961-.33-1.692-.919-2.032-.587-.34-1.385-.261-2.217.219-.832.48-1.63 1.321-2.218 2.34-.589 1.018-.92 2.13-.92 3.091-.001.961.329 1.692.916 2.033.588.34 1.385.262 2.217-.217l.003-.002zM32.705 242.564c.884-.511 1.732-1.405 2.357-2.488.625-1.082.976-2.264.977-3.285 0-1.02-.351-1.797-.976-2.158s-1.472-.278-2.356.232c-.884.51-1.732 1.404-2.357 2.486-.626 1.083-.977 2.264-.978 3.285 0 1.021.35 1.798.974 2.16.625.362 1.472.279 2.356-.23l.003-.002z" fill="#F1843E" stroke="#001928"></path>
    <path fill-rule="evenodd" clip-rule="evenodd" d="M226.476 21.277c-.266.265-.492.49-.66.655v2.253c0 1.657-1.164 3.672-2.599 4.5L21.849 144.945l4.7 2.713c-1.518 1.106-4.394 3.341-4.394 3.341s-4.134-2.11-6.242-3.376c-.54-.239-.88-.847-.88-1.743v-9.497c0-1.657 1.164-3.672 2.599-4.5L223.217 13.188c.681-.393 1.3-.449 1.763-.222l.001-.001.025.014c.021.011.043.023.064.036l6.413 3.572c-1.072.782-3.6 3.293-5.007 4.69z" fill="#CDFFFA"></path>
    <path d="M225.816 21.932h-.5c0-.134.053-.263.149-.357l.351.357zm.66-.654.354.353-.001.001-.353-.355zm-3.259 7.407.25.433-.25-.433zM21.849 144.945l-.25.433a.5.5 0 0 1 0-.866l.25.433zm4.7 2.713.25-.433a.498.498 0 0 1 .045.837l-.294-.404zm-4.394 3.341.307.395a.502.502 0 0 1-.534.05l.227-.445zm-6.242-3.376.202-.458a.559.559 0 0 1 .055.029l-.257.429zm1.719-15.74.25.433-.25-.433zM223.217 13.188l-.25-.433.25.433zm1.763-.222.359.348a.5.5 0 0 1-.579.101l.22-.45zm.001-.001-.359-.348a.5.5 0 0 1 .602-.089l-.243.437zm.025.014-.231.444-.013-.008.244-.436zm.064.036-.243.437-.013-.008.256-.43zm6.413 3.572.244-.436a.498.498 0 0 1 .051.84l-.295-.404zm-5.007 4.69.353.355-.011.01-.342-.365zm0 0-.353-.353a.679.679 0 0 1 .012-.012l.341.365zm-1.011.298.659-.652.705.71-.663.656-.701-.714zm-.149 2.61v-2.253h1v2.253h-1zm-2.349 4.067c.624-.36 1.217-.997 1.655-1.756.437-.758.694-1.59.694-2.31h1c0 .936-.326 1.94-.828 2.81-.503.87-1.209 1.654-2.021 2.122l-.5-.866zM21.599 144.512l201.368-116.26.5.866-201.368 116.26-.5-.866zm4.701 3.579-4.7-2.713.5-.866 4.7 2.713-.5.866zm-4.145 2.908-.307-.395v-.001l.002-.001.007-.005a.442.442 0 0 0 .024-.019l.094-.073.347-.268c.294-.227.702-.542 1.157-.891a165.86 165.86 0 0 1 2.776-2.092l.59.808c-.755.549-1.849 1.381-2.758 2.078-.454.348-.86.661-1.153.888l-.346.268-.094.072a.418.418 0 0 1-.024.019l-.006.005-.002.001-.307-.394zm-5.985-3.805c1.042.625 2.591 1.464 3.888 2.149a211.6 211.6 0 0 0 2.144 1.118l.134.069.035.017.008.005.002.001h.001l-.227.446-.228.445-.003-.002-.009-.004a3.258 3.258 0 0 1-.035-.018l-.135-.07-.499-.257c-.421-.218-1.005-.522-1.655-.866-1.297-.685-2.869-1.535-3.936-2.176l.515-.857zm-.637-1.314c0 .783.29 1.156.582 1.285l-.404.915c-.787-.348-1.178-1.19-1.178-2.2h1zm0-9.497v9.497h-1v-9.497h1zm2.349-4.067c-.624.36-1.217.998-1.655 1.756-.437.758-.694 1.591-.694 2.311h-1c0-.937.326-1.941.829-2.811.502-.87 1.208-1.654 2.02-2.122l.5.866zM223.467 13.621 17.882 132.316l-.5-.866L222.967 12.755l.5.866zm1.293-.206c-.262-.128-.699-.137-1.293.206l-.5-.866c.767-.443 1.569-.563 2.233-.238l-.44.898zm.58-.102h-.001l-.718-.695.001-.001.718.696zm-.578.102-.025-.013.487-.874.025.014-.487.873zm.052.03a.94.94 0 0 0-.039-.022l.461-.888a2.3 2.3 0 0 1 .091.05l-.513.86zm6.426 3.58-6.413-3.573.487-.874 6.413 3.573-.487.873zm-5.116 3.898c.703-.699 1.69-1.68 2.636-2.583.937-.896 1.861-1.743 2.429-2.157l.589.808c-.505.368-1.38 1.167-2.327 2.072-.938.896-1.918 1.87-2.622 2.569l-.705-.71zm.011-.011.683.73-.683-.73zm-.012.012.707.707-.707-.707z" fill="#012135"></path>
    <mask id="i" style="mask-type:alpha" maskUnits="userSpaceOnUse" x="14" y="13" width="218" height="139">
      <mask id="h" fill="#fff">
        <path fill-rule="evenodd" clip-rule="evenodd" d="M226.335 21.445c-.266.265-.492.49-.661.655v2.253c0 1.657-1.163 3.672-2.598 4.5L21.708 145.113l4.7 2.713c-1.518 1.106-4.395 3.341-4.395 3.341s-4.133-2.11-6.241-3.376c-.54-.239-.88-.847-.88-1.743v-9.497c0-1.657 1.163-3.672 2.598-4.5L223.076 13.356c.68-.393 1.299-.449 1.763-.222v-.001l.025.014c.022.011.044.023.065.036l6.413 3.572c-1.072.782-3.6 3.293-5.007 4.69z"></path>
      </mask>
      <path fill-rule="evenodd" clip-rule="evenodd" d="M226.335 21.445c-.266.265-.492.49-.661.655v2.253c0 1.657-1.163 3.672-2.598 4.5L21.708 145.113l4.7 2.713c-1.518 1.106-4.395 3.341-4.395 3.341s-4.133-2.11-6.241-3.376c-.54-.239-.88-.847-.88-1.743v-9.497c0-1.657 1.163-3.672 2.598-4.5L223.076 13.356c.68-.393 1.299-.449 1.763-.222v-.001l.025.014c.022.011.044.023.065.036l6.413 3.572c-1.072.782-3.6 3.293-5.007 4.69z" fill="#99D3CE"></path>
      <path d="M225.674 22.1h-1c0-.269.108-.526.3-.714l.7.714zm.661-.655.707.708-.002.002-.705-.71zm-3.259 7.408.5.866-.5-.866zM21.708 145.113l-.5.866a.998.998 0 0 1 0-1.732l.5.866zm4.7 2.713.5-.867a1.001 1.001 0 0 1 .09 1.675l-.59-.808zm-4.395 3.341.614.789a.999.999 0 0 1-1.068.101l.454-.89zm-6.241-3.376.404-.915c.038.017.075.036.11.057l-.514.858zm1.718-15.74.5.866-.5-.866zM223.076 13.356l-.5-.867.5.867zm1.763-.222.718.696a1 1 0 0 1-1.158.202l.44-.898zm0-.001-.718-.696a1 1 0 0 1 1.205-.178l-.487.874zm.025.014-.46.887a1.168 1.168 0 0 1-.027-.014l.487-.873zm.065.036-.487.873c-.009-.004-.017-.01-.026-.015l.513-.858zm6.413 3.572.487-.873a1 1 0 0 1 .102 1.682l-.589-.809zm-5.007 4.69.705.71a.368.368 0 0 1-.023.021l-.682-.73zm0 0-.707-.707a.478.478 0 0 1 .025-.024l.682.731zm-1.361-.059.656-.65 1.41 1.419-.665.658-1.401-1.427zm-.3 2.967V22.1h2v2.253h-2zm-2.098 3.634c.53-.305 1.066-.87 1.471-1.573.406-.703.627-1.449.627-2.06h2c0 1.045-.36 2.134-.895 3.06-.534.926-1.298 1.783-2.203 2.305l-1-1.732zM21.208 144.247l201.368-116.26 1 1.732L22.208 145.98l-1-1.732zm4.7 4.445-4.7-2.713 1-1.732 4.7 2.712-1 1.733zm-3.895 2.475-.613-.79v-.001l.002-.001.007-.005a.401.401 0 0 0 .024-.019l.095-.073.347-.269c.294-.227.702-.542 1.158-.891.909-.697 2.016-1.539 2.787-2.101l1.178 1.617c-.749.545-1.839 1.374-2.748 2.071-.453.347-.86.66-1.152.886l-.345.268-.094.072a.43.43 0 0 1-.024.019l-.006.005-.002.001-.613-.789zm-5.727-4.234c1.029.618 2.568 1.451 3.864 2.136.646.342 1.226.643 1.644.86l.495.255.133.068.035.018.008.005.003.001-.454.891-.455.89-.003-.001-.01-.005a2.787 2.787 0 0 1-.035-.018l-.136-.07-.5-.258c-.422-.218-1.008-.523-1.66-.868-1.296-.685-2.878-1.541-3.958-2.189l1.03-1.715zm-.394-.885c0 .669.24.808.284.828l-.809 1.829c-1.034-.457-1.475-1.533-1.475-2.657h2zm0-9.497v9.497h-2v-9.497h2zm2.098-3.634c-.53.305-1.065.87-1.47 1.573-.407.703-.628 1.449-.628 2.061h-2c0-1.046.36-2.135.895-3.061.535-.926 1.298-1.783 2.203-2.305l1 1.732zM223.576 14.222 17.99 132.917l-1-1.732L222.576 12.489l1 1.733zm.823-.19c-.062-.03-.316-.103-.823.19l-1-1.732c.854-.493 1.838-.677 2.702-.255l-.879 1.797zm1.158-.203-1.437-1.391.001-.001 1.436 1.392zm-1.18.191-.024-.013.973-1.748.025.014-.974 1.747zm.039.021a.729.729 0 0 0-.012-.007l.92-1.775c.04.02.079.042.118.065l-1.026 1.717zm6.439 3.588-6.413-3.573.974-1.747 6.413 3.573-.974 1.747zm-5.225 3.107c.703-.698 1.693-1.682 2.643-2.59.932-.89 1.881-1.762 2.48-2.199l1.178 1.617c-.473.344-1.324 1.119-2.276 2.028a190.7 190.7 0 0 0-2.615 2.563l-1.41-1.42zm.023-.022 1.364 1.462-1.364-1.462zm-.025.024 1.414 1.414-1.414-1.414z" fill="#012135" mask="url(#h)"></path>
    </mask>
    <g mask="url(#i)" fill="#083A5A">
      <path d="m30.892 143.999-21-12.125v14.355l21 12.124zM30.892 140.946l-21-12.125v1.05l21 12.124z"></path>
    </g>
    <rect width="243.39" height="15.146" rx="3" transform="matrix(-.86603 .5 0 1 232.14 15.336)" fill="#99D3CE" stroke="#012135" stroke-linecap="round" stroke-linejoin="round"></rect>
    <mask id="j" fill="#fff">
      <path fill-rule="evenodd" clip-rule="evenodd" d="M31.201 116.695h12.427v6.326h-.031c-.043.882-.647 1.756-1.813 2.429-2.42 1.398-6.345 1.398-8.765 0-1.166-.673-1.77-1.547-1.813-2.429h-.005v-6.326z"></path>
    </mask>
    <path fill-rule="evenodd" clip-rule="evenodd" d="M31.201 116.695h12.427v6.326h-.031c-.043.882-.647 1.756-1.813 2.429-2.42 1.398-6.345 1.398-8.765 0-1.166-.673-1.77-1.547-1.813-2.429h-.005v-6.326z" fill="#99D3CE"></path>
    <path d="M43.628 116.695v-1h1v1h-1zm-12.427 0h-1v-1h1v1zm12.427 6.326h1v1h-1v-1zm-.031 0-1-.049.047-.951h.953v1zm-1.813 2.429.5.866-.5-.866zm-8.765 0-.5.866.5-.866zm-1.813-2.429v-1h.953l.046.951-.999.049zm-.005 0v1h-1v-1h1zm12.427-5.326H31.2v-2h12.427v2zm-1 5.326v-6.326h2v6.326h-2zm.969-1h.03v2h-.03v-2zm-2.313 2.563c.99-.571 1.293-1.187 1.314-1.612l1.998.097c-.065 1.339-.97 2.472-2.312 3.247l-1-1.732zm-7.765 0c1.022.59 2.425.914 3.882.914 1.457 0 2.86-.324 3.883-.914l1 1.732c-1.398.807-3.167 1.182-4.883 1.182-1.715 0-3.484-.375-4.882-1.182l1-1.732zm-1.314-1.612c.02.425.324 1.041 1.314 1.612l-1 1.732c-1.342-.775-2.247-1.908-2.312-3.247l1.998-.097zm-1.004-.951h.005v2h-.005v-2zm1-5.326v6.326h-2v-6.326h2z" fill="#012135" mask="url(#j)"></path>
    <circle r="4.572" transform="matrix(-.86603 .5 .86603 .5 37.382 116.947)" fill="#CDFFFA" stroke="#012135"></circle>
    <mask id="k" fill="#fff">
      <path fill-rule="evenodd" clip-rule="evenodd" d="M37.518 108.117a4.208 4.208 0 0 1 4.196 3.891h.016v3.474c.689.979.346 2.143-1.03 2.937-1.833 1.059-4.804 1.059-6.637 0-1.532-.884-1.783-2.229-.753-3.264v-3.147h.012a4.208 4.208 0 0 1 4.196-3.891z"></path>
    </mask>
    <path fill-rule="evenodd" clip-rule="evenodd" d="M37.518 108.117a4.208 4.208 0 0 1 4.196 3.891h.016v3.474c.689.979.346 2.143-1.03 2.937-1.833 1.059-4.804 1.059-6.637 0-1.532-.884-1.783-2.229-.753-3.264v-3.147h.012a4.208 4.208 0 0 1 4.196-3.891z" fill="#CDFFFA"></path>
    <path d="M41.714 112.008v1h-.928l-.07-.926.998-.074zm.016 0v-1h1v1h-1zm0 3.474-.818.576-.182-.259v-.317h1zm-1.03 2.937.5.866-.5-.866zm-6.637 0-.5.866.5-.866zm-.753-3.264h1v.413l-.29.292-.71-.705zm0-3.147h-1v-1h1v1zm.012 0 .997.074-.069.926h-.928v-1zm7.395.074a3.208 3.208 0 0 0-3.2-2.965v-2a5.208 5.208 0 0 1 5.194 4.816l-1.994.149zm1.013.926h-.016v-2h.016v2zm-1 2.474v-3.474h2v3.474h-2zm-.53 2.071c.547-.315.77-.636.84-.85.062-.184.051-.391-.128-.645l1.635-1.152c.51.724.672 1.589.39 2.431-.27.811-.908 1.47-1.737 1.948l-1-1.732zm-5.637 0c.73.421 1.747.66 2.819.66 1.072 0 2.09-.239 2.818-.66l1 1.732c-1.104.638-2.488.928-3.818.928s-2.714-.29-3.819-.928l1-1.732zm-.544-1.693c-.325.327-.355.59-.316.771.047.214.25.57.86.922l-1 1.732c-.92-.531-1.61-1.291-1.814-2.228-.212-.972.148-1.899.852-2.607l1.418 1.41zm.291-3.852v3.147h-2v-3.147h2zm-.988 1h-.012v-2h.012v2zm4.196-3.891a3.208 3.208 0 0 0-3.199 2.965l-1.994-.149a5.208 5.208 0 0 1 5.193-4.816v2z" fill="#012135" mask="url(#k)"></path>
    <mask id="l" fill="#fff">
      <path fill-rule="evenodd" clip-rule="evenodd" d="M199.397 19.273h12.426V25.6h-.035c-.043.882-.647 1.756-1.813 2.43-2.42 1.397-6.344 1.397-8.765 0-1.166-.674-1.77-1.548-1.813-2.43v-.02a1.49 1.49 0 0 1 0-.163v-6.143z"></path>
    </mask>
    <path fill-rule="evenodd" clip-rule="evenodd" d="M199.397 19.273h12.426V25.6h-.035c-.043.882-.647 1.756-1.813 2.43-2.42 1.397-6.344 1.397-8.765 0-1.166-.674-1.77-1.548-1.813-2.43v-.02a1.49 1.49 0 0 1 0-.163v-6.143z" fill="#99D3CE"></path>
    <path d="M211.823 19.273v-1h1v1h-1zm-12.426 0h-1v-1h1v1zm12.426 6.326h1v1h-1v-1zm-.035 0-.999-.049.046-.951h.953v1zm-1.813 2.43.5.865-.5-.866zm-8.765 0-.5.865.5-.866zm-1.813-2.43v-1h.953l.046.951-.999.049zm0 0v1h-1v-1h1zm0-.02.999-.038.001.02v.019h-1zm0-.163h1v.02l-.001.02-.999-.04zm12.426-5.143h-12.426v-2h12.426v2zm-1 5.326v-6.326h2V25.6h-2zm.965-1h.035v2h-.035v-2zm-2.313 2.563c.99-.571 1.294-1.187 1.314-1.612l1.998.097c-.065 1.339-.97 2.473-2.312 3.247l-1-1.732zm-7.765 0c1.023.59 2.426.914 3.883.914 1.457 0 2.86-.323 3.882-.914l1 1.732c-1.398.807-3.167 1.182-4.882 1.182-1.715 0-3.485-.375-4.883-1.182l1-1.732zm-1.314-1.612c.021.425.324 1.04 1.314 1.612l-1 1.732c-1.341-.774-2.247-1.908-2.311-3.247l1.997-.097zm-.999-.951v2-2zm1 .98v.02h-2v-.02h2zm-.001-.123a1.205 1.205 0 0 0 0 .085l-1.999.078a3.265 3.265 0 0 1 0-.242l1.999.079zm.001-6.183v6.143h-2v-6.143h2z" fill="#012135" mask="url(#l)"></path>
    <circle r="4.572" transform="matrix(-.86603 .5 .86603 .5 205.573 19.525)" fill="#CDFFFA" stroke="#012135"></circle>
    <mask id="m" fill="#fff">
      <path fill-rule="evenodd" clip-rule="evenodd" d="M205.709 10.695a4.208 4.208 0 0 1 4.196 3.89h.016v3.475c.689.979.346 2.143-1.029 2.938-1.833 1.058-4.804 1.058-6.637 0-1.532-.885-1.784-2.23-.753-3.265v-3.147h.011a4.209 4.209 0 0 1 4.196-3.89z"></path>
    </mask>
    <path fill-rule="evenodd" clip-rule="evenodd" d="M205.709 10.695a4.208 4.208 0 0 1 4.196 3.89h.016v3.475c.689.979.346 2.143-1.029 2.938-1.833 1.058-4.804 1.058-6.637 0-1.532-.885-1.784-2.23-.753-3.265v-3.147h.011a4.209 4.209 0 0 1 4.196-3.89z" fill="#F1843E"></path>
    <path d="M209.905 14.586v1h-.928l-.069-.926.997-.074zm.016 0v-1h1v1h-1zm0 3.474-.818.576-.182-.26v-.316h1zm-1.029 2.938.5.866-.5-.867zm-6.637 0-.5.866.5-.867zm-.753-3.265h1v.413l-.291.293-.709-.706zm0-3.147h-1v-1h1v1zm.011 0 .998.074-.069.926h-.929v-1zm7.395.074a3.208 3.208 0 0 0-3.199-2.965v-2a5.207 5.207 0 0 1 5.193 4.816l-1.994.15zm1.013.926h-.016v-2h.016v2zm-1 2.474v-3.474h2v3.474h-2zm-.529 2.072c.546-.316.769-.637.84-.851.062-.184.051-.39-.129-.645l1.636-1.152c.51.725.672 1.59.39 2.431-.271.811-.908 1.47-1.737 1.949l-1-1.733zm-5.637 0c.728.42 1.746.66 2.818.66s2.09-.24 2.819-.66l1 1.732c-1.105.637-2.489.927-3.819.927s-2.714-.29-3.818-.927l1-1.733zm-.544-1.694c-.326.327-.356.59-.317.77.047.216.25.57.861.924l-1 1.732c-.921-.532-1.61-1.292-1.815-2.23-.211-.97.148-1.898.853-2.606l1.418 1.41zm.291-3.852v3.147h-2v-3.147h2zm-.989 1h-.011v-2h.011v2zm4.196-3.89a3.208 3.208 0 0 0-3.198 2.964l-1.995-.149a5.208 5.208 0 0 1 5.193-4.816v2z" fill="#001928" mask="url(#m)"></path>
    <rect width="30.097" height="4.244" rx="2" transform="matrix(-.86603 -.5 0 1 124.375 371.375)" fill="#99D3CE" stroke="#012135"></rect>
    <rect width="30.097" height="4.244" rx="2" transform="matrix(-.86603 -.5 0 1 94.011 353.699)" fill="#99D3CE" stroke="#012135"></rect>
  </g>
  <defs>
    <clipPath id="a">
      <path fill="#fff" transform="matrix(-1 0 0 1 354 0)" d="M0 0h354v419H0z"></path>
    </clipPath>
    <clipPath id="c">
      <path fill="#fff" transform="matrix(-.86603 .5 .86603 .5 304.781 320.273)" d="M0 0h22.847v22.316H0z"></path>
    </clipPath>
    <clipPath id="d">
      <path fill="#fff" transform="matrix(-.86603 .5 .86603 .5 266.285 343.387)" d="M0 0h22.847v22.316H0z"></path>
    </clipPath>
  </defs>
</svg>
