<?xml version="1.0" standalone="no"?>
<!DOCTYPE svg PUBLIC "-//W3C//DTD SVG 20010904//EN"
 "http://www.w3.org/TR/2001/REC-SVG-20010904/DTD/svg10.dtd">
<svg version="1.0" xmlns="http://www.w3.org/2000/svg"
 width="512.000000pt" height="512.000000pt" viewBox="0 0 512.000000 512.000000"
 preserveAspectRatio="xMidYMid meet">
<metadata>
Created by potrace 1.14, written by Peter Selinger 2001-2017
</metadata>
<g transform="translate(0.000000,512.000000) scale(0.100000,-0.100000)"
fill="#000000" stroke="none">
<path d="M875 5109 c-87 -12 -218 -55 -311 -101 -212 -105 -398 -306 -489
-530 -75 -184 -70 -57 -70 -1928 l0 -1675 22 -85 c50 -198 145 -361 290 -501
139 -134 283 -214 469 -261 l89 -23 1685 0 1685 0 85 22 c198 50 361 145 501
290 134 139 214 283 261 469 l23 89 0 1685 0 1685 -22 81 c-56 210 -128 338
-273 484 -116 117 -209 181 -342 235 -184 74 -42 69 -1888 71 -910 1 -1682 -2
-1715 -7z m1968 -1029 c307 -60 567 -199 793 -425 225 -224 362 -482 426 -798
32 -157 32 -434 0 -583 -41 -193 -118 -381 -216 -533 l-45 -71 262 -300 c144
-166 262 -309 262 -318 0 -16 -66 -17 -985 -17 -982 0 -985 0 -1086 22 -320
71 -568 206 -789 427 -168 168 -285 350 -359 556 -247 685 13 1445 626 1833
178 113 423 199 639 226 116 15 348 6 472 -19z"/>
<path d="M2449 3520 c-395 -46 -714 -326 -815 -715 -32 -123 -37 -314 -10
-432 99 -448 475 -753 931 -755 109 -1 279 26 273 43 -2 4 -153 163 -335 354
-201 209 -333 354 -333 366 0 19 16 19 664 19 l664 0 8 43 c12 71 6 238 -11
322 -86 411 -415 707 -840 755 -99 11 -101 11 -196 0z"/>
</g>
</svg>
