<?xml version="1.0" encoding="utf-8"?><svg xmlns="http://www.w3.org/2000/svg" xmlns:xlink="http://www.w3.org/1999/xlink"><symbol viewBox="0 0 14 8" id="ic-arrow" xmlns="http://www.w3.org/2000/svg"><path fill-rule="evenodd" clip-rule="evenodd" d="M.646 1.354l.708-.708L7 6.293 12.646.646l.708.708L7 7.707.646 1.354z"/></symbol><symbol viewBox="0 0 24 24" id="ic-check" xmlns="http://www.w3.org/2000/svg"><path fill-rule="evenodd" clip-rule="evenodd" d="M15.663 3.773A9 9 0 1021 12v-.92a1 1 0 112 0V12a11.001 11.001 0 01-20.228 5.982A11 11 0 0116.477 1.946a1 1 0 11-.814 1.827z"/><path fill-rule="evenodd" clip-rule="evenodd" d="M22.707 3.293a1 1 0 010 1.414l-10 10.01a1 1 0 01-1.414 0l-3-3a1 1 0 111.414-1.414L12 12.595l9.293-9.302a1 1 0 011.414 0z"/></symbol><symbol viewBox="0 0 32 32" id="ic-close" xmlns="http://www.w3.org/2000/svg"><path d="M8 7l16.97 16.97-1.414 1.415-16.97-16.97z"/><path d="M7 24L23.97 7.03l1.415 1.414-16.97 16.97z"/></symbol><symbol viewBox="0 0 13 17" id="ic-copy" xmlns="http://www.w3.org/2000/svg"><path fill-rule="evenodd" clip-rule="evenodd" d="M0 2A1.5 1.5 0 011.5.5h9a.5.5 0 010 1h-9A.5.5 0 001 2v12a.5.5 0 01-1 0V2zm2 2a1.5 1.5 0 011.5-1.5h8A1.5 1.5 0 0113 4v11a1.5 1.5 0 01-1.5 1.5h-8A1.5 1.5 0 012 15V4zm1.5-.5A.5.5 0 003 4v11a.5.5 0 00.5.5h8a.5.5 0 00.5-.5V4a.5.5 0 00-.5-.5h-8z"/></symbol><symbol viewBox="0 0 16 12" id="ic-copy-check" xmlns="http://www.w3.org/2000/svg"><path fill-rule="evenodd" clip-rule="evenodd" d="M15.347.64a.5.5 0 01.013.707l-9.625 10a.5.5 0 01-.72 0L.64 6.8a.5.5 0 01.72-.693l4.015 4.171L14.64.653a.5.5 0 01.707-.013z"/></symbol><symbol viewBox="0 0 24 24" id="ic-file" xmlns="http://www.w3.org/2000/svg"><path fill-rule="evenodd" clip-rule="evenodd" d="M4.055 2.055A2.75 2.75 0 016 1.25h7a.75.75 0 01.53.22l7 7c.141.14.22.331.22.53v11A2.75 2.75 0 0118 22.75H6A2.75 2.75 0 013.25 20V4c0-.73.29-1.429.805-1.945zM6 2.75A1.25 1.25 0 004.75 4v16c0 .331.132.65.366.884l-.53.53.53-.53c.235.234.552.366.884.366h12A1.25 1.25 0 0019.25 20V9.31l-6.56-6.56H6z"/><path fill-rule="evenodd" clip-rule="evenodd" d="M13 1.25a.75.75 0 01.75.75v6.25H20a.75.75 0 010 1.5h-7a.75.75 0 01-.75-.75V2a.75.75 0 01.75-.75z"/></symbol><symbol viewBox="0 0 42 42" id="ic-google" xmlns="http://www.w3.org/2000/svg"><path d="M21 0C9.5 0 0 9.5 0 21s9.5 21 21 21 21-9.5 21-21S32.5 0 21 0zm3.1 22.4c-.1 1.7-.8 3.4-2 4.6-3.1 3-8.7 3-11.8-.1-3.2-3.2-3.2-8.7.1-11.8 2.4-2.4 5.8-2.9 8.8-1.7l1.2.7 1.3.9-2.1 2.1-.8-.5c-1.8-1.2-4.5-.9-6.2.8-2 2-2.1 5.5 0 7.6 2 2.1 5.5 2.1 7.4 0 .5-.5 1-1.3 1.2-2.1v-.3h-4.7V20H24l.1.7v1.7zm9.9-.2h-2.4v2.4h-2.4v-2.4h-2.4v-2.4h2.4v-2.4h2.4v2.4H34v2.4z"/></symbol><symbol viewBox="0 0 42 42" id="ic-instagram" xmlns="http://www.w3.org/2000/svg"><path clip-rule="evenodd" d="M21 42c11.598 0 21-9.402 21-21S32.598 0 21 0 0 9.402 0 21s9.402 21 21 21zm-6.662-21a6.655 6.655 0 016.665-6.666A6.655 6.655 0 0127.668 21a6.655 6.655 0 01-6.665 6.666A6.655 6.655 0 0114.338 21zm2.332 0a4.341 4.341 0 004.333 4.334A4.341 4.341 0 0025.336 21a4.338 4.338 0 00-4.333-4.334A4.338 4.338 0 0016.67 21zm11.27-5.384a1.555 1.555 0 100-3.11 1.555 1.555 0 000 3.11zm3.869-5.424c1.525 1.52 2.001 3.364 2.1 5.447.122 2.147.122 8.575 0 10.722-.105 2.082-.58 3.927-2.1 5.447-1.52 1.526-3.364 2.002-5.447 2.1-2.146.123-8.578.123-10.724 0-2.083-.104-3.921-.58-5.447-2.1-1.525-1.52-2.001-3.364-2.1-5.447-.121-2.147-.121-8.58 0-10.728.105-2.082.575-3.927 2.1-5.447 1.526-1.52 3.37-1.996 5.447-2.095 2.146-.121 8.578-.121 10.724 0 2.083.105 3.927.58 5.447 2.1zm-3.144 20.943a4.387 4.387 0 002.471-2.471c.582-1.463.55-4.663.529-6.738a82.957 82.957 0 01-.007-.926c0-.27.003-.582.007-.926.02-2.074.053-5.27-.529-6.738a4.387 4.387 0 00-2.47-2.471c-1.468-.58-4.683-.549-6.756-.529-.337.003-.643.006-.907.006-.27 0-.582-.003-.926-.006-2.073-.021-5.269-.054-6.736.529a4.387 4.387 0 00-2.471 2.471c-.58 1.468-.548 4.683-.528 6.757.003.337.006.643.006.907 0 .27-.004.582-.007.926-.021 2.074-.053 5.27.529 6.738a4.387 4.387 0 002.47 2.471c1.468.58 4.683.549 6.756.529.337-.004.643-.006.907-.006.269 0 .582.003.926.006 2.073.021 5.269.054 6.736-.529z"/></symbol><symbol viewBox="0 0 24 24" id="ic-linkedin" xmlns="http://www.w3.org/2000/svg"><path d="M22.223 0H1.772C.792 0 0 .773 0 1.73v20.536C0 23.222.792 24 1.772 24h20.451c.98 0 1.777-.778 1.777-1.73V1.73C24 .773 23.203 0 22.223 0zM7.12 20.452H3.558V8.995H7.12v11.457zM5.34 7.434a2.064 2.064 0 110-4.125 2.063 2.063 0 010 4.125zm15.112 13.018h-3.558v-5.57c0-1.326-.024-3.037-1.852-3.037-1.851 0-2.133 1.449-2.133 2.944v5.663H9.356V8.995h3.413v1.566h.047c.473-.9 1.636-1.852 3.365-1.852 3.605 0 4.27 2.372 4.27 5.457v6.286z"/></symbol><symbol viewBox="0 0 165 36" id="ic-logo" xmlns="http://www.w3.org/2000/svg"><path d="M17.995 36h20.389a.306.306 0 00.231-.507l-6.087-6.999a18.04 18.04 0 003.348-11.299A18.03 18.03 0 0031.534 6.24 17.93 17.93 0 0021.365.33 17.9 17.9 0 009.731 1.997a17.975 17.975 0 00-8.111 8.531A18.05 18.05 0 00.511 22.263 18 18 0 006.88 32.17 17.91 17.91 0 0017.995 36zM8.12 23.029a11.11 11.11 0 01-1.18-4.994 11.12 11.12 0 01.811-4.276 11.09 11.09 0 012.389-3.632 11.05 11.05 0 013.599-2.43 11.02 11.02 0 018.508 0 11.05 11.05 0 013.599 2.43 11.09 11.09 0 012.389 3.632c.549 1.357.825 2.81.811 4.275a10.86 10.86 0 01-.179 1.887h-3.102l-12.133.029a.306.306 0 00-.22.518l7.821 8.172a11.013 11.013 0 01-5.107.329 11.04 11.04 0 01-4.707-2.014 11.064 11.064 0 01-3.297-3.925zm52.4 1.818l-.922.903c-.151.151-.282.151-.395 0l-1.166-1.223c-.828.464-1.8.696-2.916.696-1.668 0-2.966-.458-3.895-1.373-.928-.928-1.392-2.214-1.392-3.857v-3.462c0-1.643.464-2.922 1.392-3.838s2.226-1.373 3.895-1.373 2.966.458 3.894 1.373 1.392 2.195 1.392 3.838v3.462c0 1.355-.326 2.465-.978 3.33l1.091 1.129c.125.138.125.27 0 .395zm-8.372-4.854c0 2.032.978 3.06 2.935 3.085.439 0 .865-.088 1.279-.263l-1.317-1.392c-.113-.125-.113-.257 0-.395l.903-.903c.151-.125.282-.125.395 0l1.43 1.468a3.96 3.96 0 00.32-1.599v-3.443c0-1.016-.257-1.787-.771-2.314-.502-.527-1.236-.79-2.201-.79-1.982 0-2.973 1.035-2.973 3.104v3.443z" fill-rule="evenodd"/><path d="M72.738 23.908c.941-.89 1.411-2.082 1.411-3.575v-8.485c0-.188-.094-.282-.282-.282h-1.75c-.188 0-.282.094-.282.282v8.353c0 .941-.251 1.668-.752 2.182-.489.502-1.179.753-2.069.753s-1.58-.251-2.07-.753c-.477-.514-.715-1.242-.715-2.182v-8.353c0-.188-.094-.282-.282-.282h-1.75c-.188 0-.282.094-.282.282v8.485c0 1.48.464 2.672 1.392 3.575.928.89 2.164 1.336 3.706 1.336 1.555 0 2.797-.445 3.725-1.336z"/><path fill-rule="evenodd" d="M78.556 25.018h-1.844c-.213 0-.288-.107-.226-.32l4.515-12.906c.063-.15.163-.226.301-.226h2.145c.138 0 .238.075.301.226l4.515 12.906c.063.213-.013.32-.226.32h-1.844c-.176 0-.282-.075-.32-.226l-.922-2.841h-5.155l-.922 2.841c-.05.151-.157.226-.32.226zm3.782-10.968l-1.9 5.851h3.876l-1.9-5.851h-.075z"/><path d="M91.125 25.018h1.712c.176 0 .263-.094.263-.282v-4.308l-.169-5.174.056-.019A36.4 36.4 0 0095 18.941l3.556 5.889a.355.355 0 00.32.188h1.9c.188 0 .282-.094.282-.282V11.849c0-.188-.094-.282-.282-.282h-1.693c-.188 0-.282.094-.282.282v4.591l.169 5.099-.056.019-1.881-3.405-3.669-6.397a.4.4 0 00-.339-.188h-1.9c-.176 0-.263.094-.263.282v12.887c0 .188.088.282.263.282zm12.921-13.452h9.84c.188 0 .282.094.282.282v1.543c0 .176-.094.263-.282.263h-3.782v11.081c0 .188-.088.282-.263.282h-1.731c-.176 0-.264-.094-.264-.282v-11.08h-3.8c-.188 0-.282-.088-.282-.263v-1.543c0-.188.094-.282.282-.282zm21.39 1.825v-1.543c0-.188-.094-.282-.282-.282h-7.996c-.176 0-.263.094-.263.282v12.887c0 .188.087.282.263.282h1.731c.175 0 .263-.094.263-.282v-5.099h5.212c.175 0 .263-.094.263-.282V17.85c0-.188-.088-.282-.263-.282h-5.212v-3.913h6.002c.188 0 .282-.088.282-.263zm13.172 6.943c0 1.493-.471 2.684-1.411 3.575-.928.89-2.17 1.336-3.725 1.336-1.543 0-2.778-.445-3.707-1.336-.928-.903-1.392-2.095-1.392-3.575v-8.485c0-.188.094-.282.282-.282h1.75c.188 0 .282.094.282.282v8.353c0 .941.239 1.668.715 2.182.489.502 1.179.753 2.07.753s1.58-.251 2.069-.753c.502-.514.753-1.242.753-2.182v-8.353c0-.188.094-.282.282-.282h1.75c.188 0 .282.094.282.282v8.485z"/><path fill-rule="evenodd" d="M150.085 25.018h2.126c.251 0 .307-.113.169-.339l-3.442-4.816c.99-.263 1.755-.74 2.295-1.43.552-.69.828-1.549.828-2.577 0-1.342-.433-2.389-1.299-3.142-.852-.765-2.05-1.148-3.593-1.148h-4.365c-.175 0-.263.094-.263.282v12.887c0 .188.088.282.263.282h1.731c.176 0 .264-.094.264-.282v-4.628h1.674l3.292 4.722a.356.356 0 00.32.188zm-5.286-11.363h2.37c.878 0 1.524.182 1.938.546.426.351.64.909.64 1.674 0 .753-.214 1.311-.64 1.674-.414.351-1.06.527-1.938.527h-2.37v-4.421z"/><path d="M158.461 25.018h1.731c.188 0 .282-.094.282-.282v-4.647l4.308-8.184c.051-.088.057-.163.019-.226-.037-.075-.106-.113-.207-.113h-1.975c-.163 0-.27.069-.32.207l-2.973 6.19-2.991-6.19c-.05-.138-.151-.207-.301-.207h-1.975c-.113 0-.189.038-.226.113-.038.063-.032.138.019.226l4.327 8.146v4.685c0 .188.094.282.282.282z"/></symbol><symbol viewBox="0 0 19 18" id="ic-menu-arrow" xmlns="http://www.w3.org/2000/svg"><path fill-rule="evenodd" clip-rule="evenodd" d="M.47 8.5h16.323L9.397 1.104l.707-.707L18.707 9l-8.603 8.603-.707-.707L16.793 9.5H.47v-1z"/></symbol><symbol viewBox="0 0 32 32" id="ic-open" xmlns="http://www.w3.org/2000/svg"><path d="M4 7h24v2H4zm0 8h24v2H4zm0 8h24v2H4z"/></symbol><symbol viewBox="0 0 38 16" id="ic-ref" xmlns="http://www.w3.org/2000/svg"><path d="M37.707 8.707a1 1 0 000-1.414L31.343.929a1 1 0 10-1.414 1.414L35.586 8l-5.657 5.657a1 1 0 001.414 1.414l6.364-6.364zM0 9h37V7H0v2z"/></symbol><symbol viewBox="0 0 24 20" id="ic-twitter" xmlns="http://www.w3.org/2000/svg"><path d="M7.55 19.75c9.055 0 14.008-7.503 14.008-14.008 0-.21-.004-.426-.014-.637A9.999 9.999 0 0024 2.555c-.898.4-1.85.66-2.826.774A4.95 4.95 0 0023.339.606a9.897 9.897 0 01-3.126 1.195 4.93 4.93 0 00-8.394 4.49A13.985 13.985 0 011.673 1.15a4.93 4.93 0 001.523 6.57 4.93 4.93 0 01-2.23-.614v.061a4.922 4.922 0 003.95 4.828 4.894 4.894 0 01-2.221.085 4.934 4.934 0 004.597 3.42A9.875 9.875 0 010 17.54a13.969 13.969 0 007.55 2.211z"/></symbol></svg>