<?xml version="1.0" encoding="UTF-8"?>
<svg xmlns="http://www.w3.org/2000/svg" width="585" height="585" fill="none">
  <path d="M583.966 292.858c0 160.982-130.501 291.483-291.483 291.483S1 453.84 1 292.858 131.501 1.375 292.483 1.375s291.483 130.501 291.483 291.483z" stroke="#073952" stroke-linecap="round" stroke-linejoin="round"></path>
  <path d="M400.064 133.371c133.458 90.023 193.482 234.405 134.067 322.487-59.415 88.083-215.769 86.51-349.227-3.513C51.446 362.323-8.578 217.94 50.837 129.858c59.415-88.082 215.769-86.51 349.227 3.513z" stroke="#073952" stroke-linecap="round" stroke-linejoin="round"></path>
  <path d="M332.475 262.456c97.424 128.155 158.496 245.657 136.409 262.447-22.087 16.791-118.97-73.488-216.394-201.643S93.994 77.604 116.081 60.813c22.087-16.79 118.97 73.488 216.394 201.643z" stroke="#073952" stroke-linecap="round" stroke-linejoin="round"></path>
  <path d="M412.03 276.545c21.765 159.504-14.113 296.111-80.137 305.12-66.024 9.01-137.191-112.99-158.956-272.494-21.766-159.503 14.113-296.11 80.136-305.12 66.024-9.009 137.191 112.991 158.957 272.494z" stroke="#073952" stroke-linecap="round" stroke-linejoin="round"></path>
  <path d="M272.617 221.949c155.202-42.749 289.726-45.787 300.469-6.786 10.742 39.002-106.365 105.274-261.567 148.023-155.202 42.749-289.726 45.787-300.469 6.786C.307 330.971 117.415 264.699 272.617 221.949z" stroke="#073952" stroke-linecap="round" stroke-linejoin="round"></path>
  <path d="M340.854 347.734C220.09 454.181 100.535 515.905 73.821 485.598 47.107 455.291 123.35 344.43 244.114 237.982c120.765-106.447 240.32-168.171 267.034-137.864 26.714 30.307-49.529 141.168-170.294 247.616z" stroke="#073952" stroke-linecap="round" stroke-linejoin="round"></path>
  <path d="M203.028 346.347h.097l.084-.048 70.079-40.49c5.12-2.958 11.852-4.447 18.604-4.447 6.752 0 13.484 1.489 18.604 4.447l70.079 40.49.084.048h13.748V354.317c.233 3.916-2.234 7.955-7.585 11.047l-76.326 44.1c-5.12 2.958-11.852 4.447-18.604 4.447-6.752 0-13.484-1.489-18.604-4.447l-76.326-44.1c-5.301-3.062-7.77-7.054-7.591-10.935V346.347h13.657z" fill="#99D3CE" stroke="#001928" stroke-width=".723"></path>
  <mask id="a" style="mask-type:alpha" maskUnits="userSpaceOnUse" x="189" y="301" width="206" height="114">
    <path d="M203.028 346.347h.097l.084-.048 70.079-40.49c5.12-2.958 11.852-4.447 18.604-4.447 6.752 0 13.484 1.489 18.604 4.447l70.079 40.49.084.048h13.748V354.317c.233 3.916-2.234 7.955-7.585 11.047l-76.326 44.1c-5.12 2.958-11.852 4.447-18.604 4.447-6.752 0-13.484-1.489-18.604-4.447l-76.326-44.1c-5.301-3.062-7.77-7.054-7.591-10.935V346.347h13.657z" fill="#083A5A" stroke="#001928" stroke-width=".723"></path>
  </mask>
  <g mask="url(#a)" fill="#083A5A">
    <path d="M292 329h123v93H292zM289 329h1v93h-1z"></path>
  </g>
  <path d="M203.028 346.347h.097l.084-.048 70.079-40.49c5.12-2.958 11.852-4.447 18.604-4.447 6.752 0 13.484 1.489 18.604 4.447l70.079 40.49.084.048h13.748V354.317c.233 3.916-2.234 7.955-7.585 11.047l-76.326 44.1c-5.12 2.958-11.852 4.447-18.604 4.447-6.752 0-13.484-1.489-18.604-4.447l-76.326-44.1c-5.301-3.062-7.77-7.054-7.591-10.935V346.347h13.657z" stroke="#001928" stroke-width=".723"></path>
  <rect width="131.54" height="131.54" rx="21.694" transform="scale(1.22452 .7075) rotate(45 -358.241 485.209)" fill="#CDFFFA" stroke="#001928" stroke-width=".723" stroke-linecap="round" stroke-linejoin="round"></rect>
  <path fill-rule="evenodd" clip-rule="evenodd" d="M230.151 344.096c-.006-2.532 1.665-5.064 5.01-6.996 6.681-3.857 17.513-3.857 24.194 0 3.34 1.928 5.01 4.455 5.011 6.982v.609c.844.336 1.648.721 2.399 1.155 3.34 1.928 5.01 4.455 5.011 6.982v2.912c.005 2.532-1.665 5.065-5.011 6.996-2.639 1.524-5.925 2.446-9.348 2.766-6.696 2.86-16.188 2.538-22.256-.965-3.345-1.932-5.016-4.464-5.01-6.996v-2.898c-.003-1.302.437-2.604 1.321-3.824-.884-1.221-1.324-2.523-1.321-3.825v-2.898z" fill="#083A5A"></path>
  <path d="M383.979 333.213c-31.711 24.183-79.317 22.78-99.155 19.055-4.235-42.438 17.368-57.596 28.699-59.87l70.456 40.815zM319.519 372.065c-3.346 1.931-5.016 4.464-5.011 6.996v2.9c-.005 2.532 1.665 5.065 5.011 6.996 1.873 1.082 4.073 1.86 6.417 2.335l22.709-13.186c-.364-2.205-2.008-4.353-4.933-6.041-6.681-3.857-17.513-3.857-24.193 0z" fill="#083A5A"></path>
  <mask id="b" fill="#fff">
    <path fill-rule="evenodd" clip-rule="evenodd" d="M227.299 365.461c7.066 4.079 18.521 4.079 25.587 0 3.534-2.04 5.3-4.715 5.299-7.389v-4.001h-1.377c-.883-1.23-2.19-2.383-3.922-3.383-7.066-4.079-18.521-4.079-25.587 0-1.732 1-3.039 2.153-3.922 3.383H222v4.001c-.001 2.674 1.765 5.349 5.299 7.389z"></path>
  </mask>
  <path fill-rule="evenodd" clip-rule="evenodd" d="M227.299 365.461c7.066 4.079 18.521 4.079 25.587 0 3.534-2.04 5.3-4.715 5.299-7.389v-4.001h-1.377c-.883-1.23-2.19-2.383-3.922-3.383-7.066-4.079-18.521-4.079-25.587 0-1.732 1-3.039 2.153-3.922 3.383H222v4.001c-.001 2.674 1.765 5.349 5.299 7.389z" fill="#99D3CE"></path>
  <path d="m252.886 365.461.444.77-.444-.77zm-25.587 0-.444.77.444-.77zm30.886-7.389h-.889.889zm0-4.001h.889a.889.889 0 0 0-.889-.889v.889zm-1.377 0-.722.518a.89.89 0 0 0 .722.37v-.888zm-3.922-3.383-.445.77.445-.77zm-25.587 0 .445.77-.445-.77zm-3.922 3.383v.888a.89.89 0 0 0 .722-.37l-.722-.518zm-1.377 0v-.889a.889.889 0 0 0-.889.889H222zm0 4.001h.889H222zm30.441 6.619c-3.365 1.943-7.833 2.94-12.348 2.94-4.516 0-8.984-.997-12.349-2.94l-.889 1.54c3.699 2.136 8.493 3.178 13.238 3.178 4.745 0 9.538-1.042 13.237-3.178l-.889-1.54zm4.855-6.619c.001 2.245-1.482 4.672-4.855 6.619l.889 1.54c3.696-2.134 5.745-5.056 5.744-8.16l-1.778.001zm0-.002v.002h1.778v-.002h-1.778zm0-3.999v3.999h1.778v-3.999h-1.778zm-.488.888h1.377v-1.777h-1.377v1.777zm-4.367-3.501c1.647.951 2.85 2.024 3.645 3.131l1.444-1.037c-.971-1.353-2.382-2.584-4.2-3.633l-.889 1.539zm-24.697 0c3.365-1.943 7.833-2.94 12.349-2.94 4.515 0 8.983.997 12.348 2.94l.889-1.539c-3.699-2.136-8.492-3.179-13.237-3.179-4.745 0-9.539 1.043-13.238 3.179l.889 1.539zm-3.645 3.131c.795-1.107 1.998-2.18 3.645-3.131l-.889-1.539c-1.818 1.049-3.229 2.28-4.2 3.633l1.444 1.037zm-2.099.37h1.377v-1.777H222v1.777zm.889 3.113v-4.001h-1.778v4.001h1.778zm4.855 6.619c-3.372-1.947-4.856-4.374-4.855-6.619l-1.778-.001c-.001 3.104 2.048 6.026 5.744 8.16l.889-1.54z" fill="#083B5A" mask="url(#b)"></path>
  <mask id="d" style="mask-type:alpha" maskUnits="userSpaceOnUse" x="222" y="347" width="37" height="22">
    <mask id="c" fill="#fff">
      <path fill-rule="evenodd" clip-rule="evenodd" d="M227.299 365.461c7.066 4.079 18.521 4.079 25.587 0 3.534-2.04 5.3-4.715 5.299-7.389v-4.001h-1.377c-.883-1.23-2.19-2.383-3.922-3.383-7.066-4.079-18.521-4.079-25.587 0-1.732 1-3.039 2.153-3.922 3.383H222v4.001c-.001 2.674 1.765 5.349 5.299 7.389z"></path>
    </mask>
    <path fill-rule="evenodd" clip-rule="evenodd" d="M227.299 365.461c7.066 4.079 18.521 4.079 25.587 0 3.534-2.04 5.3-4.715 5.299-7.389v-4.001h-1.377c-.883-1.23-2.19-2.383-3.922-3.383-7.066-4.079-18.521-4.079-25.587 0-1.732 1-3.039 2.153-3.922 3.383H222v4.001c-.001 2.674 1.765 5.349 5.299 7.389z" fill="#fff"></path>
    <path d="m252.886 365.461.444.77-.444-.77zm-25.587 0-.444.77.444-.77zm30.886-7.389h-.889.889zm0-4.001h.889a.889.889 0 0 0-.889-.889v.889zm-1.377 0-.722.518a.89.89 0 0 0 .722.37v-.888zm-3.922-3.383-.445.77.445-.77zm-25.587 0 .445.77-.445-.77zm-3.922 3.383v.888a.89.89 0 0 0 .722-.37l-.722-.518zm-1.377 0v-.889a.889.889 0 0 0-.889.889H222zm0 4.001h.889H222zm30.441 6.619c-3.365 1.943-7.833 2.94-12.348 2.94-4.516 0-8.984-.997-12.349-2.94l-.889 1.54c3.699 2.136 8.493 3.178 13.238 3.178 4.745 0 9.538-1.042 13.237-3.178l-.889-1.54zm4.855-6.619c.001 2.245-1.482 4.672-4.855 6.619l.889 1.54c3.696-2.134 5.745-5.056 5.744-8.16l-1.778.001zm0-.002v.002h1.778v-.002h-1.778zm0-3.999v3.999h1.778v-3.999h-1.778zm-.488.888h1.377v-1.777h-1.377v1.777zm-4.367-3.501c1.647.951 2.85 2.024 3.645 3.131l1.444-1.037c-.971-1.353-2.382-2.584-4.2-3.633l-.889 1.539zm-24.697 0c3.365-1.943 7.833-2.94 12.349-2.94 4.515 0 8.983.997 12.348 2.94l.889-1.539c-3.699-2.136-8.492-3.179-13.237-3.179-4.745 0-9.539 1.043-13.238 3.179l.889 1.539zm-3.645 3.131c.795-1.107 1.998-2.18 3.645-3.131l-.889-1.539c-1.818 1.049-3.229 2.28-4.2 3.633l1.444 1.037zm-2.099.37h1.377v-1.777H222v1.777zm.889 3.113v-4.001h-1.778v4.001h1.778zm4.855 6.619c-3.372-1.947-4.856-4.374-4.855-6.619l-1.778-.001c-.001 3.104 2.048 6.026 5.744 8.16l.889-1.54z" fill="#000" mask="url(#c)"></path>
  </mask>
  <g mask="url(#d)">
    <path d="M224.228 353.137v15.817M226.495 353.137v15.817M228.76 353.137v15.817M231.025 353.137v15.817M233.292 353.137v15.817M235.561 353.137v15.817M237.824 353.137v15.817M240.091 353.137v15.817M242.358 353.137v15.817M244.624 353.137v15.817" stroke="#083B5A" stroke-width=".889"></path>
    <path fill="#083A5A" d="M246.888 353.648h17.573v15.191h-17.573z"></path>
    <path d="M246.89 353.137v15.817M248.021 353.137v15.817M249.155 353.137v15.817M250.29 353.137v15.817M251.42 353.137v15.817M252.555 353.137v15.817M253.689 353.137v15.817M254.821 353.137v15.817M255.955 353.137v15.817M257.085 353.137v15.817" stroke="#083B5A" stroke-width=".889"></path>
  </g>
  <path d="M252.665 361.072c-3.45 1.992-7.999 3-12.572 3-4.572 0-9.121-1.008-12.571-3-3.451-1.993-5.077-4.543-5.077-7.001 0-2.459 1.626-5.009 5.077-7.002 3.45-1.991 7.999-3 12.571-3 4.573 0 9.122 1.009 12.572 3 3.451 1.993 5.077 4.543 5.077 7.002 0 2.458-1.626 5.008-5.077 7.001z" fill="#CDFFFA" stroke="#083B5A" stroke-width=".889" stroke-linecap="round" stroke-linejoin="round"></path>
  <path d="M250.621 360.149c-5.815 3.357-15.243 3.357-21.058 0-5.815-3.358-5.815-8.801 0-12.158 5.815-3.358 15.243-3.358 21.058 0 5.816 3.357 5.816 8.8 0 12.158z" fill="#CDFFFA" stroke="#083B5A" stroke-width=".889" stroke-linecap="round" stroke-linejoin="round"></path>
  <mask id="e" fill="#fff">
    <path fill-rule="evenodd" clip-rule="evenodd" d="M220.299 361.457c7.066 4.079 18.521 4.079 25.587 0 3.534-2.04 5.3-4.715 5.299-7.389V350.066h-1.377c-.883-1.229-2.19-2.382-3.922-3.382-7.066-4.079-18.521-4.079-25.587 0-1.732 1-3.039 2.153-3.922 3.382H215v4.002c-.001 2.674 1.765 5.349 5.299 7.389z"></path>
  </mask>
  <path fill-rule="evenodd" clip-rule="evenodd" d="M220.299 361.457c7.066 4.079 18.521 4.079 25.587 0 3.534-2.04 5.3-4.715 5.299-7.389V350.066h-1.377c-.883-1.229-2.19-2.382-3.922-3.382-7.066-4.079-18.521-4.079-25.587 0-1.732 1-3.039 2.153-3.922 3.382H215v4.002c-.001 2.674 1.765 5.349 5.299 7.389z" fill="#99D3CE"></path>
  <path d="m245.886 361.457.444.77-.444-.77zm-25.587 0-.444.77.444-.77zm30.886-7.389h-.889.889zm0-4.002h.889a.889.889 0 0 0-.889-.888v.888zm-1.377 0-.722.519a.89.89 0 0 0 .722.37v-.889zm-3.922-3.382.444-.769-.444.769zm-25.587 0 .445.77-.445-.77zm-3.922 3.382v.889a.89.89 0 0 0 .722-.37l-.722-.519zm-1.377 0v-.888a.889.889 0 0 0-.889.888H215zm0 4.002h.889H215zm30.441 6.619c-3.365 1.943-7.833 2.941-12.348 2.941-4.516 0-8.984-.998-12.349-2.941l-.889 1.54c3.699 2.136 8.493 3.178 13.238 3.178 4.745 0 9.538-1.042 13.237-3.178l-.889-1.54zm4.855-6.619c.001 2.245-1.482 4.672-4.855 6.619l.889 1.54c3.696-2.134 5.745-5.056 5.744-8.16l-1.778.001zm0-.001v.001h1.778v-.001h-1.778zm0-4.001v4.001h1.778v-4.001h-1.778zm-.488.889h1.377v-1.777h-1.377v1.777zm-4.367-3.501c1.647.951 2.85 2.024 3.645 3.131l1.444-1.037c-.971-1.353-2.382-2.584-4.2-3.633l-.889 1.539zm-24.697 0c3.365-1.943 7.833-2.94 12.349-2.94 4.515 0 8.983.997 12.348 2.94l.889-1.539c-3.699-2.136-8.492-3.179-13.237-3.179-4.745 0-9.539 1.043-13.238 3.179l.889 1.539zm-3.645 3.131c.795-1.107 1.998-2.18 3.645-3.131l-.889-1.539c-1.818 1.049-3.229 2.28-4.2 3.633l1.444 1.037zm-2.099.37h1.377v-1.777H215v1.777zm.889 3.113v-4.002h-1.778v4.002h1.778zm4.855 6.619c-3.372-1.947-4.856-4.374-4.855-6.619l-1.778-.001c-.001 3.104 2.048 6.026 5.744 8.16l.889-1.54z" fill="#083B5A" mask="url(#e)"></path>
  <mask id="g" style="mask-type:alpha" maskUnits="userSpaceOnUse" x="215" y="343" width="37" height="22">
    <mask id="f" fill="#fff">
      <path fill-rule="evenodd" clip-rule="evenodd" d="M220.302 361.457c7.066 4.079 18.521 4.079 25.587 0 3.534-2.04 5.3-4.715 5.299-7.389v-4.002h-1.377c-.883-1.229-2.19-2.382-3.922-3.382-7.066-4.079-18.521-4.079-25.587 0-1.732 1-3.039 2.153-3.922 3.382h-1.377v3.955c-.022 2.69 1.745 5.384 5.299 7.436z"></path>
    </mask>
    <path fill-rule="evenodd" clip-rule="evenodd" d="M220.302 361.457c7.066 4.079 18.521 4.079 25.587 0 3.534-2.04 5.3-4.715 5.299-7.389v-4.002h-1.377c-.883-1.229-2.19-2.382-3.922-3.382-7.066-4.079-18.521-4.079-25.587 0-1.732 1-3.039 2.153-3.922 3.382h-1.377v3.955c-.022 2.69 1.745 5.384 5.299 7.436z" fill="#fff"></path>
    <path d="m245.889 361.457.444.77-.444-.77zm-25.587 0-.444.77.444-.77zm30.886-7.389v-.889a.893.893 0 0 0-.629.26.893.893 0 0 0-.26.629h.889zm0 0v.889a.889.889 0 0 0 .889-.889h-.889zm0-4.002h.889a.889.889 0 0 0-.889-.888v.888zm-1.377 0-.722.519a.89.89 0 0 0 .722.37v-.889zm-3.922-3.382.444-.769-.444.769zm-25.587 0 .445.77-.445-.77zm-3.922 3.382v.889a.89.89 0 0 0 .722-.37l-.722-.519zm-1.377 0v-.888a.889.889 0 0 0-.889.888h.889zm0 3.955.889.007v-.007h-.889zm30.441 6.666c-3.365 1.943-7.833 2.941-12.349 2.941-4.515 0-8.983-.998-12.348-2.941l-.889 1.54c3.699 2.136 8.493 3.178 13.237 3.178 4.745 0 9.539-1.042 13.238-3.178l-.889-1.54zm4.855-6.619c.001 2.245-1.483 4.672-4.855 6.619l.889 1.54c3.696-2.134 5.745-5.056 5.744-8.16l-1.778.001zm.889-.889v1.778-1.778zm-.889-3.113v4.002h1.778v-4.002h-1.778zm-.488.889h1.377v-1.777h-1.377v1.777zm-4.367-3.501c1.647.951 2.85 2.024 3.645 3.131l1.444-1.037c-.971-1.353-2.382-2.584-4.2-3.633l-.889 1.539zm-24.697 0c3.365-1.943 7.833-2.94 12.348-2.94 4.516 0 8.984.997 12.349 2.94l.889-1.539c-3.699-2.136-8.493-3.179-13.238-3.179-4.744 0-9.538 1.043-13.237 3.179l.889 1.539zm-3.645 3.131c.795-1.107 1.998-2.18 3.645-3.131l-.889-1.539c-1.818 1.049-3.229 2.28-4.2 3.633l1.444 1.037zm-2.099.37h1.377v-1.777h-1.377v1.777zm.889 3.066v-3.955h-1.778v3.955h1.778zm4.855 6.666c-3.392-1.958-4.873-4.402-4.855-6.659l-1.778-.014c-.025 3.123 2.026 6.066 5.744 8.213l.889-1.54z" fill="#000" mask="url(#f)"></path>
  </mask>
  <g mask="url(#g)">
    <path d="M217.232 349.133v15.817M219.499 349.133v15.817M221.762 349.133v15.817M224.031 349.133v15.817M226.294 349.133v15.817M228.564 349.133v15.817M230.826 349.133v15.817M233.093 349.133v15.817M234.226 349.133v15.817M235.36 349.133v15.817M236.491 349.133v15.817" stroke="#083B5A" stroke-width=".889"></path>
    <path fill="#083A5A" d="M233.09 350.273h17.573v15.191H233.09z"></path>
    <path d="M237.626 349.133v15.817M238.759 349.133v15.817M239.891 349.133v15.817M241.022 349.133v15.817M242.157 349.133v15.817M243.292 349.133v15.817M244.422 349.133v15.817M245.555 349.133v15.817M246.692 349.133v15.817M247.823 349.133v15.817M248.957 349.133v15.817M250.089 349.133v15.817" stroke="#083B5A" stroke-width=".889"></path>
  </g>
  <path d="M245.664 357.072c-3.45 1.992-7.999 3-12.571 3-4.573 0-9.122-1.008-12.572-3-3.451-1.993-5.077-4.543-5.077-7.001 0-2.459 1.626-5.009 5.077-7.002 3.45-1.991 7.999-3 12.572-3 4.572 0 9.121 1.009 12.571 3 3.451 1.993 5.077 4.543 5.077 7.002 0 2.458-1.626 5.008-5.077 7.001z" fill="#CDFFFA" stroke="#083B5A" stroke-width=".889" stroke-linecap="round" stroke-linejoin="round"></path>
  <path d="M243.621 356.149c-5.816 3.357-15.244 3.357-21.059 0-5.815-3.358-5.815-8.801 0-12.158 5.815-3.358 15.243-3.358 21.059 0 5.815 3.357 5.815 8.8 0 12.158z" fill="#CDFFFA" stroke="#083B5A" stroke-width=".889" stroke-linecap="round" stroke-linejoin="round"></path>
  <mask id="h" fill="#fff">
    <path fill-rule="evenodd" clip-rule="evenodd" d="M227.299 354.457c7.066 4.079 18.521 4.079 25.587 0 3.534-2.04 5.3-4.715 5.299-7.389v-4.001h-1.377c-.883-1.23-2.19-2.383-3.922-3.383-7.066-4.079-18.521-4.079-25.587 0-1.732 1-3.039 2.153-3.922 3.383H222v4.001c-.001 2.674 1.765 5.349 5.299 7.389z"></path>
  </mask>
  <path fill-rule="evenodd" clip-rule="evenodd" d="M227.299 354.457c7.066 4.079 18.521 4.079 25.587 0 3.534-2.04 5.3-4.715 5.299-7.389v-4.001h-1.377c-.883-1.23-2.19-2.383-3.922-3.383-7.066-4.079-18.521-4.079-25.587 0-1.732 1-3.039 2.153-3.922 3.383H222v4.001c-.001 2.674 1.765 5.349 5.299 7.389z" fill="#99D3CE"></path>
  <path d="m252.886 354.457.444.77-.444-.77zm-25.587 0-.444.77.444-.77zm30.886-7.389h-.889.889zm0-4.001h.889a.889.889 0 0 0-.889-.889v.889zm-1.377 0-.722.518c.167.233.436.37.722.37v-.888zm-3.922-3.383-.445.77.445-.77zm-25.587 0 .445.77-.445-.77zm-3.922 3.383v.888a.888.888 0 0 0 .722-.37l-.722-.518zm-1.377 0v-.889a.889.889 0 0 0-.889.889H222zm0 4.001h.889H222zm30.441 6.619c-3.365 1.943-7.833 2.941-12.348 2.941-4.516 0-8.984-.998-12.349-2.941l-.889 1.54c3.699 2.136 8.493 3.178 13.238 3.178 4.745 0 9.538-1.042 13.237-3.178l-.889-1.54zm4.855-6.619c.001 2.245-1.482 4.672-4.855 6.619l.889 1.54c3.696-2.134 5.745-5.056 5.744-8.16l-1.778.001zm0-.001v.001h1.778v-.001h-1.778zm0-4v4h1.778v-4h-1.778zm-.488.888h1.377v-1.777h-1.377v1.777zm-4.367-3.501c1.647.951 2.85 2.024 3.645 3.131l1.444-1.037c-.971-1.352-2.382-2.584-4.2-3.633l-.889 1.539zm-24.697 0c3.365-1.943 7.833-2.94 12.349-2.94 4.515 0 8.983.997 12.348 2.94l.889-1.539c-3.699-2.136-8.492-3.179-13.237-3.179-4.745 0-9.539 1.043-13.238 3.179l.889 1.539zm-3.645 3.131c.795-1.107 1.998-2.18 3.645-3.131l-.889-1.539c-1.818 1.049-3.229 2.281-4.2 3.633l1.444 1.037zm-2.099.37h1.377v-1.777H222v1.777zm.889 3.113v-4.001h-1.778v4.001h1.778zm4.855 6.619c-3.372-1.947-4.856-4.374-4.855-6.619l-1.778-.001c-.001 3.104 2.048 6.026 5.744 8.16l.889-1.54z" fill="#083B5A" mask="url(#h)"></path>
  <mask id="j" style="mask-type:alpha" maskUnits="userSpaceOnUse" x="222" y="336" width="37" height="22">
    <mask id="i" fill="#fff">
      <path fill-rule="evenodd" clip-rule="evenodd" d="M227.299 354.457c7.066 4.079 18.521 4.079 25.587 0 3.534-2.04 5.3-4.715 5.299-7.389v-4.001h-1.377c-.883-1.23-2.19-2.382-3.922-3.382-7.066-4.08-18.521-4.08-25.587 0-1.732 1-3.039 2.152-3.922 3.382H222v4.001c-.001 2.674 1.765 5.349 5.299 7.389z"></path>
    </mask>
    <path fill-rule="evenodd" clip-rule="evenodd" d="M227.299 354.457c7.066 4.079 18.521 4.079 25.587 0 3.534-2.04 5.3-4.715 5.299-7.389v-4.001h-1.377c-.883-1.23-2.19-2.382-3.922-3.382-7.066-4.08-18.521-4.08-25.587 0-1.732 1-3.039 2.152-3.922 3.382H222v4.001c-.001 2.674 1.765 5.349 5.299 7.389z" fill="#fff"></path>
    <path d="m252.886 354.457.444.77-.444-.77zm-25.587 0-.444.77.444-.77zm30.886-7.389h-.889.889zm0-4.001h.889a.889.889 0 0 0-.889-.889v.889zm-1.377 0-.722.518a.889.889 0 0 0 .722.371v-.889zm-3.922-3.382-.445.769.445-.769zm-25.587 0 .445.769-.445-.769zm-3.922 3.382v.889a.889.889 0 0 0 .722-.371l-.722-.518zm-1.377 0v-.889a.889.889 0 0 0-.889.889H222zm0 4.001h.889H222zm30.441 6.619c-3.365 1.944-7.833 2.941-12.348 2.941-4.516 0-8.984-.997-12.349-2.941l-.889 1.54c3.699 2.136 8.493 3.178 13.238 3.178 4.745 0 9.538-1.042 13.237-3.178l-.889-1.54zm4.855-6.619c.001 2.245-1.482 4.672-4.855 6.619l.889 1.54c3.696-2.134 5.745-5.055 5.744-8.159h-1.778zm0-.001v.001h1.778v-.001h-1.778zm0-4v4h1.778v-4h-1.778zm-.488.889h1.377v-1.778h-1.377v1.778zm-4.367-3.502c1.647.951 2.85 2.024 3.645 3.131l1.444-1.037c-.971-1.352-2.382-2.584-4.2-3.633l-.889 1.539zm-24.697 0c3.365-1.943 7.833-2.94 12.349-2.94 4.515 0 8.983.997 12.348 2.94l.889-1.539c-3.699-2.136-8.492-3.179-13.237-3.179-4.745 0-9.539 1.043-13.238 3.179l.889 1.539zm-3.645 3.131c.795-1.107 1.998-2.18 3.645-3.131l-.889-1.539c-1.818 1.049-3.229 2.281-4.2 3.633l1.444 1.037zm-2.099.371h1.377v-1.778H222v1.778zm.889 3.112v-4.001h-1.778v4.001h1.778zm4.855 6.619c-3.372-1.947-4.856-4.374-4.855-6.619h-1.778c-.001 3.104 2.048 6.025 5.744 8.159l.889-1.54z" fill="#000" mask="url(#i)"></path>
  </mask>
  <g mask="url(#j)">
    <path d="M224.228 342.129v15.817M226.495 342.129v15.817M228.76 342.129v15.817M231.025 342.129v15.817M233.292 342.129v15.817M235.561 342.129v15.817M237.827 342.129v15.817M240.091 342.129v15.817M242.358 342.129v15.817M244.624 342.129v15.817" stroke="#083B5A" stroke-width=".889"></path>
    <path fill="#083A5A" d="M246.991 341.871h13.338v15.191h-13.338z"></path>
    <path d="M246.89 342.129v15.817M248.021 342.129v15.817M249.155 342.129v15.817M250.29 342.129v15.817M251.42 342.129v15.817M252.556 342.129v15.817M253.688 342.129v15.817M254.823 342.129v15.817M255.955 342.129v15.817M257.085 342.129v15.817" stroke="#083B5A" stroke-width=".889"></path>
  </g>
  <path d="M252.666 350.072c-3.45 1.992-7.999 3-12.572 3-4.572 0-9.121-1.008-12.571-3-3.451-1.993-5.077-4.543-5.077-7.001 0-2.459 1.626-5.009 5.077-7.002 3.45-1.991 7.999-3 12.571-3 4.573 0 9.122 1.009 12.572 3 3.451 1.993 5.077 4.543 5.077 7.002 0 2.458-1.626 5.008-5.077 7.001z" fill="#F1843E" stroke="#083B5A" stroke-width=".889" stroke-linecap="round" stroke-linejoin="round"></path>
  <path d="M250.623 349.149c-5.815 3.357-15.243 3.357-21.058 0-5.815-3.358-5.815-8.801 0-12.158 5.815-3.358 15.243-3.358 21.058 0 5.815 3.357 5.815 8.8 0 12.158z" fill="#F1843E" stroke="#083B5A" stroke-width=".889" stroke-linecap="round" stroke-linejoin="round"></path>
  <mask id="k" fill="#fff">
    <path fill-rule="evenodd" clip-rule="evenodd" d="M315.299 391.457c7.066 4.079 18.521 4.079 25.587 0 3.534-2.04 5.3-4.715 5.299-7.389v-4.001h-1.377c-.883-1.23-2.19-2.383-3.922-3.383-7.066-4.079-18.521-4.079-25.587 0-1.732 1-3.039 2.153-3.922 3.383H310v4.001c-.001 2.674 1.765 5.349 5.299 7.389z"></path>
  </mask>
  <path fill-rule="evenodd" clip-rule="evenodd" d="M315.299 391.457c7.066 4.079 18.521 4.079 25.587 0 3.534-2.04 5.3-4.715 5.299-7.389v-4.001h-1.377c-.883-1.23-2.19-2.383-3.922-3.383-7.066-4.079-18.521-4.079-25.587 0-1.732 1-3.039 2.153-3.922 3.383H310v4.001c-.001 2.674 1.765 5.349 5.299 7.389z" fill="#99D3CE"></path>
  <path d="m340.886 391.457.444.77-.444-.77zm-25.587 0-.444.77.444-.77zm30.886-7.389h-.889.889zm0-4.001h.889a.889.889 0 0 0-.889-.889v.889zm-1.377 0-.722.518c.167.233.436.37.722.37v-.888zm-3.922-3.383-.445.77.445-.77zm-25.587 0 .445.77-.445-.77zm-3.922 3.383v.888a.888.888 0 0 0 .722-.37l-.722-.518zm-1.377 0v-.889a.889.889 0 0 0-.889.889H310zm0 4.001h.889H310zm30.441 6.619c-3.365 1.943-7.833 2.941-12.348 2.941-4.516 0-8.984-.998-12.349-2.941l-.889 1.54c3.699 2.136 8.493 3.178 13.238 3.178 4.745 0 9.538-1.042 13.237-3.178l-.889-1.54zm4.855-6.619c.001 2.245-1.482 4.672-4.855 6.619l.889 1.54c3.696-2.134 5.745-5.056 5.744-8.16l-1.778.001zm0-.001v.001h1.778v-.001h-1.778zm0-4v4h1.778v-4h-1.778zm-.488.888h1.377v-1.777h-1.377v1.777zm-4.367-3.501c1.647.951 2.85 2.024 3.645 3.131l1.444-1.037c-.971-1.352-2.382-2.584-4.2-3.633l-.889 1.539zm-24.697 0c3.365-1.943 7.833-2.94 12.349-2.94 4.515 0 8.983.997 12.348 2.94l.889-1.539c-3.699-2.136-8.492-3.179-13.237-3.179-4.745 0-9.539 1.043-13.238 3.179l.889 1.539zm-3.645 3.131c.795-1.107 1.998-2.18 3.645-3.131l-.889-1.539c-1.818 1.049-3.229 2.281-4.2 3.633l1.444 1.037zm-2.099.37h1.377v-1.777H310v1.777zm.889 3.113v-4.001h-1.778v4.001h1.778zm4.855 6.619c-3.372-1.947-4.856-4.374-4.855-6.619l-1.778-.001c-.001 3.104 2.048 6.026 5.744 8.16l.889-1.54z" fill="#083B5A" mask="url(#k)"></path>
  <mask id="m" style="mask-type:alpha" maskUnits="userSpaceOnUse" x="310" y="373" width="37" height="22">
    <mask id="l" fill="#fff">
      <path fill-rule="evenodd" clip-rule="evenodd" d="M315.299 391.457c7.066 4.079 18.521 4.079 25.587 0 3.534-2.04 5.3-4.715 5.299-7.389v-4.001h-1.377c-.883-1.23-2.19-2.382-3.922-3.382-7.066-4.08-18.521-4.08-25.587 0-1.732 1-3.039 2.152-3.922 3.382H310v4.001c-.001 2.674 1.765 5.349 5.299 7.389z"></path>
    </mask>
    <path fill-rule="evenodd" clip-rule="evenodd" d="M315.299 391.457c7.066 4.079 18.521 4.079 25.587 0 3.534-2.04 5.3-4.715 5.299-7.389v-4.001h-1.377c-.883-1.23-2.19-2.382-3.922-3.382-7.066-4.08-18.521-4.08-25.587 0-1.732 1-3.039 2.152-3.922 3.382H310v4.001c-.001 2.674 1.765 5.349 5.299 7.389z" fill="#fff"></path>
    <path d="m340.886 391.457.444.77-.444-.77zm-25.587 0-.444.77.444-.77zm30.886-7.389h-.889.889zm0-4.001h.889a.889.889 0 0 0-.889-.889v.889zm-1.377 0-.722.518a.889.889 0 0 0 .722.371v-.889zm-3.922-3.382-.445.769.445-.769zm-25.587 0 .445.769-.445-.769zm-3.922 3.382v.889a.889.889 0 0 0 .722-.371l-.722-.518zm-1.377 0v-.889a.889.889 0 0 0-.889.889H310zm0 4.001h.889H310zm30.441 6.619c-3.365 1.944-7.833 2.941-12.348 2.941-4.516 0-8.984-.997-12.349-2.941l-.889 1.54c3.699 2.136 8.493 3.178 13.238 3.178 4.745 0 9.538-1.042 13.237-3.178l-.889-1.54zm4.855-6.619c.001 2.245-1.482 4.672-4.855 6.619l.889 1.54c3.696-2.134 5.745-5.055 5.744-8.159h-1.778zm0-.001v.001h1.778v-.001h-1.778zm0-4v4h1.778v-4h-1.778zm-.488.889h1.377v-1.778h-1.377v1.778zm-4.367-3.502c1.647.951 2.85 2.024 3.645 3.131l1.444-1.037c-.971-1.352-2.382-2.584-4.2-3.633l-.889 1.539zm-24.697 0c3.365-1.943 7.833-2.94 12.349-2.94 4.515 0 8.983.997 12.348 2.94l.889-1.539c-3.699-2.136-8.492-3.179-13.237-3.179-4.745 0-9.539 1.043-13.238 3.179l.889 1.539zm-3.645 3.131c.795-1.107 1.998-2.18 3.645-3.131l-.889-1.539c-1.818 1.049-3.229 2.281-4.2 3.633l1.444 1.037zm-2.099.371h1.377v-1.778H310v1.778zm.889 3.112v-4.001h-1.778v4.001h1.778zm4.855 6.619c-3.372-1.947-4.856-4.374-4.855-6.619h-1.778c-.001 3.104 2.048 6.025 5.744 8.159l.889-1.54z" fill="#000" mask="url(#l)"></path>
  </mask>
  <g mask="url(#m)">
    <path d="M312.228 379.129v15.817M314.495 379.129v15.817M316.76 379.129v15.817M319.025 379.129v15.817M321.292 379.129v15.817M323.561 379.129v15.817M325.827 379.129v15.817M328.091 379.129v15.817M330.358 379.129v15.817M332.624 379.129v15.817" stroke="#083B5A" stroke-width=".889"></path>
    <path fill="#083A5A" d="M334.991 378.871h13.338v15.191h-13.338z"></path>
    <path d="M334.89 379.129v15.817M336.021 379.129v15.817M337.155 379.129v15.817M338.29 379.129v15.817M339.42 379.129v15.817M340.556 379.129v15.817M341.688 379.129v15.817M342.823 379.129v15.817M343.955 379.129v15.817M345.085 379.129v15.817" stroke="#083B5A" stroke-width=".889"></path>
  </g>
  <path d="M340.666 387.072c-3.45 1.992-7.999 3-12.572 3-4.572 0-9.121-1.008-12.571-3-3.451-1.993-5.077-4.543-5.077-7.001 0-2.459 1.626-5.009 5.077-7.002 3.45-1.991 7.999-3 12.571-3 4.573 0 9.122 1.009 12.572 3 3.451 1.993 5.077 4.543 5.077 7.002 0 2.458-1.626 5.008-5.077 7.001z" fill="#CDFFFA" stroke="#083B5A" stroke-width=".889" stroke-linecap="round" stroke-linejoin="round"></path>
  <path d="M338.623 386.149c-5.815 3.357-15.243 3.357-21.058 0-5.815-3.358-5.815-8.801 0-12.158 5.815-3.358 15.243-3.358 21.058 0 5.815 3.357 5.815 8.8 0 12.158z" fill="#CDFFFA" stroke="#083B5A" stroke-width=".889" stroke-linecap="round" stroke-linejoin="round"></path>
  <mask id="n" fill="#fff">
    <path fill-rule="evenodd" clip-rule="evenodd" d="M327.299 432.457c7.066 4.079 18.521 4.079 25.587 0 3.534-2.04 5.3-4.715 5.299-7.389v-4.001h-1.377c-.883-1.23-2.19-2.383-3.922-3.383-7.066-4.079-18.521-4.079-25.587 0-1.732 1-3.039 2.153-3.922 3.383H322v4.001c-.001 2.674 1.765 5.349 5.299 7.389z"></path>
  </mask>
  <path fill-rule="evenodd" clip-rule="evenodd" d="M327.299 432.457c7.066 4.079 18.521 4.079 25.587 0 3.534-2.04 5.3-4.715 5.299-7.389v-4.001h-1.377c-.883-1.23-2.19-2.383-3.922-3.383-7.066-4.079-18.521-4.079-25.587 0-1.732 1-3.039 2.153-3.922 3.383H322v4.001c-.001 2.674 1.765 5.349 5.299 7.389z" fill="#99D3CE"></path>
  <path d="m352.886 432.457.444.77-.444-.77zm-25.587 0-.444.77.444-.77zm30.886-7.389h-.889.889zm0-4.001h.889a.889.889 0 0 0-.889-.889v.889zm-1.377 0-.722.518c.167.233.436.37.722.37v-.888zm-3.922-3.383-.445.77.445-.77zm-25.587 0 .445.77-.445-.77zm-3.922 3.383v.888a.888.888 0 0 0 .722-.37l-.722-.518zm-1.377 0v-.889a.889.889 0 0 0-.889.889H322zm0 4.001h.889H322zm30.441 6.619c-3.365 1.943-7.833 2.941-12.348 2.941-4.516 0-8.984-.998-12.349-2.941l-.889 1.54c3.699 2.136 8.493 3.178 13.238 3.178 4.745 0 9.538-1.042 13.237-3.178l-.889-1.54zm4.855-6.619c.001 2.245-1.482 4.672-4.855 6.619l.889 1.54c3.696-2.134 5.745-5.056 5.744-8.16l-1.778.001zm0-.001v.001h1.778v-.001h-1.778zm0-4v4h1.778v-4h-1.778zm-.488.888h1.377v-1.777h-1.377v1.777zm-4.367-3.501c1.647.951 2.85 2.024 3.645 3.131l1.444-1.037c-.971-1.352-2.382-2.584-4.2-3.633l-.889 1.539zm-24.697 0c3.365-1.943 7.833-2.94 12.349-2.94 4.515 0 8.983.997 12.348 2.94l.889-1.539c-3.699-2.136-8.492-3.179-13.237-3.179-4.745 0-9.539 1.043-13.238 3.179l.889 1.539zm-3.645 3.131c.795-1.107 1.998-2.18 3.645-3.131l-.889-1.539c-1.818 1.049-3.229 2.281-4.2 3.633l1.444 1.037zm-2.099.37h1.377v-1.777H322v1.777zm.889 3.113v-4.001h-1.778v4.001h1.778zm4.855 6.619c-3.372-1.947-4.856-4.374-4.855-6.619l-1.778-.001c-.001 3.104 2.048 6.026 5.744 8.16l.889-1.54z" fill="#083B5A" mask="url(#n)"></path>
  <mask id="p" style="mask-type:alpha" maskUnits="userSpaceOnUse" x="322" y="414" width="37" height="22">
    <mask id="o" fill="#fff">
      <path fill-rule="evenodd" clip-rule="evenodd" d="M327.299 432.457c7.066 4.079 18.521 4.079 25.587 0 3.534-2.04 5.3-4.715 5.299-7.389v-4.001h-1.377c-.883-1.23-2.19-2.382-3.922-3.382-7.066-4.08-18.521-4.08-25.587 0-1.732 1-3.039 2.152-3.922 3.382H322v4.001c-.001 2.674 1.765 5.349 5.299 7.389z"></path>
    </mask>
    <path fill-rule="evenodd" clip-rule="evenodd" d="M327.299 432.457c7.066 4.079 18.521 4.079 25.587 0 3.534-2.04 5.3-4.715 5.299-7.389v-4.001h-1.377c-.883-1.23-2.19-2.382-3.922-3.382-7.066-4.08-18.521-4.08-25.587 0-1.732 1-3.039 2.152-3.922 3.382H322v4.001c-.001 2.674 1.765 5.349 5.299 7.389z" fill="#fff"></path>
    <path d="m352.886 432.457.444.77-.444-.77zm-25.587 0-.444.77.444-.77zm30.886-7.389h-.889.889zm0-4.001h.889a.889.889 0 0 0-.889-.889v.889zm-1.377 0-.722.518a.889.889 0 0 0 .722.371v-.889zm-3.922-3.382-.445.769.445-.769zm-25.587 0 .445.769-.445-.769zm-3.922 3.382v.889a.889.889 0 0 0 .722-.371l-.722-.518zm-1.377 0v-.889a.889.889 0 0 0-.889.889H322zm0 4.001h.889H322zm30.441 6.619c-3.365 1.944-7.833 2.941-12.348 2.941-4.516 0-8.984-.997-12.349-2.941l-.889 1.54c3.699 2.136 8.493 3.178 13.238 3.178 4.745 0 9.538-1.042 13.237-3.178l-.889-1.54zm4.855-6.619c.001 2.245-1.482 4.672-4.855 6.619l.889 1.54c3.696-2.134 5.745-5.055 5.744-8.159h-1.778zm0-.001v.001h1.778v-.001h-1.778zm0-4v4h1.778v-4h-1.778zm-.488.889h1.377v-1.778h-1.377v1.778zm-4.367-3.502c1.647.951 2.85 2.024 3.645 3.131l1.444-1.037c-.971-1.352-2.382-2.584-4.2-3.633l-.889 1.539zm-24.697 0c3.365-1.943 7.833-2.94 12.349-2.94 4.515 0 8.983.997 12.348 2.94l.889-1.539c-3.699-2.136-8.492-3.179-13.237-3.179-4.745 0-9.539 1.043-13.238 3.179l.889 1.539zm-3.645 3.131c.795-1.107 1.998-2.18 3.645-3.131l-.889-1.539c-1.818 1.049-3.229 2.281-4.2 3.633l1.444 1.037zm-2.099.371h1.377v-1.778H322v1.778zm.889 3.112v-4.001h-1.778v4.001h1.778zm4.855 6.619c-3.372-1.947-4.856-4.374-4.855-6.619h-1.778c-.001 3.104 2.048 6.025 5.744 8.159l.889-1.54z" fill="#000" mask="url(#o)"></path>
  </mask>
  <g mask="url(#p)">
    <path d="M324.228 420.129v15.817M326.495 420.129v15.817M328.76 420.129v15.817M331.025 420.129v15.817M333.292 420.129v15.817M335.561 420.129v15.817M337.827 420.129v15.817M340.091 420.129v15.817M342.358 420.129v15.817M344.624 420.129v15.817" stroke="#083B5A" stroke-width=".889"></path>
    <path fill="#083A5A" d="M346.991 419.871h13.338v15.191h-13.338z"></path>
    <path d="M346.89 420.129v15.817M348.021 420.129v15.817M349.155 420.129v15.817M350.29 420.129v15.817M351.42 420.129v15.817M352.556 420.129v15.817M353.688 420.129v15.817M354.823 420.129v15.817M355.955 420.129v15.817M357.085 420.129v15.817" stroke="#083B5A" stroke-width=".889"></path>
  </g>
  <path d="M352.666 428.072c-3.45 1.992-7.999 3-12.572 3-4.572 0-9.121-1.008-12.571-3-3.451-1.993-5.077-4.543-5.077-7.001 0-2.459 1.626-5.009 5.077-7.002 3.45-1.991 7.999-3 12.571-3 4.573 0 9.122 1.009 12.572 3 3.451 1.993 5.077 4.543 5.077 7.002 0 2.458-1.626 5.008-5.077 7.001z" fill="#CDFFFA" stroke="#083B5A" stroke-width=".889" stroke-linecap="round" stroke-linejoin="round"></path>
  <path d="M350.623 427.149c-5.815 3.357-15.243 3.357-21.058 0-5.815-3.358-5.815-8.801 0-12.158 5.815-3.358 15.243-3.358 21.058 0 5.815 3.357 5.815 8.8 0 12.158z" fill="#CDFFFA" stroke="#083B5A" stroke-width=".889" stroke-linecap="round" stroke-linejoin="round"></path>
  <path fill-rule="evenodd" clip-rule="evenodd" d="M293.054 160.057c.135.047.272.102.409.165l-.005-.004c.128.066.256.14.384.222l.061.035c.121.076.242.157.362.244l.061.036c.793.581 1.536 1.406 2.133 2.368a341.747 341.747 0 0 0 18.674 23.553c11.25 13.036 25.87 27.88 38.82 35.357l4.038 2.331v66.598c0 34.01-15.974 48.188-31.622 53.598-9.449 3.257-20.033 4.063-31.356 2.389l-1.27-.252-1.251-1.204c-11.323-11.4-21.907-24.428-31.356-38.595-15.648-23.478-31.622-56.103-31.622-90.112v-52.474l-9.237-9.17 9.237-4.948v-.006l4.007 2.313c12.948 7.476 27.594 9.527 38.843 9.487 6.442.024 12.642-.632 18.552-1.96l.06-.035c.583-.269 1.305-.247 2.078.064zm22.995 67.583c-6.602-8.922-14.364-16.131-22.304-20.715v.003c-10.647-6.148-20.858-7.143-28.387-2.769-7.529 4.375-11.759 13.762-11.759 26.096.001 9.198 2.355 19.549 6.767 29.744 4.411 10.194 10.681 19.775 18.017 27.53 7.336 7.755 15.408 13.336 23.195 16.037 7.788 2.702 14.941 2.402 20.555-.86 5.614-3.263 9.438-9.342 10.987-17.469 1.549-8.127.754-17.937-2.285-28.189-3.039-10.253-8.184-20.487-14.786-29.408zm-4.31 14.804c1.077-.562 2.495-.427 3.984.387v.007c1.207.666 2.394 1.741 3.407 3.087a14.451 14.451 0 0 1 2.274 4.457c.469 1.559.593 3.053.356 4.287s-.824 2.152-1.685 2.634l-28.094 16.361c-1.129.651-2.657.5-4.25-.42-1.593-.919-3.122-2.533-4.25-4.487l-2.773-4.812-6.345 1.458-16.461-29.262 9.439-5.117.001.003.059-.036c.559-.326 1.222-.459 1.953-.389.73.07 1.514.34 2.305.795.791.456 1.575 1.087 2.307 1.859a14.158 14.158 0 0 1 1.957 2.64l11.824 20.523 14.914-8.689-.173-.332 9.25-4.956.001.002z" fill="#CDFFFA"></path>
  <path d="m293.463 160.222-.211.454.557-.814-.346.36zm-.409-.165-.186.464.012.005.012.004.162-.473zm.404.161.231-.444-.577.804.346-.36zm.384.222-.268.422.009.005.009.006.25-.433zm.061.035.265-.424-.007-.005-.008-.004-.25.433zm.362.244-.295.404.022.016.023.013.25-.433zm.061.036.295-.404-.022-.016-.023-.013-.25.433zm2.133 2.368-.424.264.009.015.011.014.404-.293zm18.674 23.553.379-.327-.001-.001-.378.328zm38.82 35.357.25-.433-.25.433zm4.038 2.331h.5v-.288l-.25-.145-.25.433zM326.369 344.56l.163.473-.163-.473zm-31.356 2.389-.097.49.012.003.012.001.073-.494zm-1.27-.252-.347.36.106.102.144.029.097-.491zm-1.251-1.204-.355.353.008.008.347-.361zm-31.356-38.595-.416.277.416-.277zm-31.622-90.112h.5-.5zm0-52.474h.5v-.208l-.148-.147-.352.355zm-9.237-9.17-.236-.441-.596.319.48.476.352-.354zm9.237-4.948.236.441.264-.142v-.299h-.5zm0-.006.25-.433-.75-.433v.866h.5zm4.007 2.313-.25.433.25-.433zm38.843 9.487.002-.5h-.003l.001.5zm18.552-1.96.11.488.075-.017.066-.039-.251-.432zm.06-.035-.209-.454-.022.01-.02.012.251.432zm2.769 46.932.25-.433-.75-.433v.866h.5zm22.304 20.715.402-.298-.402.298zm-22.304-20.712-.25.433.75.433v-.866h-.5zm-28.387-2.769.251.433-.251-.433zm-11.759 26.096h-.5.5zm6.767 29.744.459-.199-.459.199zm18.017 27.53-.363.344.363-.344zm23.195 16.037.164-.472-.164.472zm20.555-.86.251.432-.251-.432zm10.987-17.469.491.093-.491-.093zm-2.285-28.189-.479.142.479-.142zm-15.112-14.217h.5v-.296l-.26-.143-.24.439zm-3.984-.387-.473.163.189.549.515-.269-.231-.443zm3.984.394h-.5v.295l.259.143.241-.438zm5.681 7.544-.478.144.478-.144zm-1.329 6.921-.244-.436-.008.004.252.432zm-28.094 16.361.249.433.002-.001-.251-.432zm-4.25-.42.25-.433-.25.433zm-4.25-4.487-.433.249v.001l.433-.25zm-2.773-4.812.434-.25-.185-.32-.361.083.112.487zm-6.345 1.458-.436.245.183.326.365-.084-.112-.487zm-16.461-29.262-.238-.44-.446.243.249.442.435-.245zm9.439-5.117.422-.267-.25-.395-.411.223.239.439zm.001.003-.422.267.264.418.421-.26-.263-.425zm.059-.036-.252-.431.252.431zm4.258.406.249-.433-.249.433zm4.264 4.499.433-.25-.433.25zm11.824 20.523-.433.25.25.435.435-.253-.252-.432zm14.914-8.689.252.432.411-.24-.22-.423-.443.231zm-.173-.332-.236-.441-.435.234.228.438.443-.231zm9.25-4.956.473-.162-.191-.556-.518.278.236.44zm-18.065-82.673a4.842 4.842 0 0 0-.456-.185l-.325.946c.118.04.238.089.36.146l.421-.907zm-.561.809.004.005.693-.721-.004-.005-.693.721zm.998-.56a5.647 5.647 0 0 0-.421-.244l-.461.888c.114.059.23.126.346.2l.536-.844zm.043.024-.061-.035-.5.866.061.035.5-.866zm.406.273a6.385 6.385 0 0 0-.391-.264l-.529.848c.11.069.221.144.331.224l.589-.808zm.017.007-.061-.036-.5.866.061.036.5-.866zm2.308 2.537c-.626-1.008-1.411-1.883-2.263-2.508l-.591.807c.734.538 1.436 1.313 2.005 2.229l.849-.528zm18.627 23.489a340.823 340.823 0 0 1-18.647-23.519l-.809.587a341.844 341.844 0 0 0 18.701 23.588l.755-.656zm38.692 35.252c-12.871-7.431-27.445-22.219-38.691-35.251l-.757.654c11.253 13.04 25.92 27.941 38.948 35.463l.5-.866zm4.038 2.331-4.038-2.331-.5.866 4.038 2.331.5-.866zm.25 67.031v-66.598h-1v66.598h1zm-31.959 54.071c7.904-2.733 15.904-7.686 21.925-16.26 6.021-8.573 10.034-20.727 10.034-37.811h-1c0 16.926-3.974 28.866-9.852 37.236-5.878 8.37-13.689 13.212-21.433 15.89l.326.945zm-31.592 2.41c11.391 1.685 22.057.877 31.592-2.41l-.326-.945c-9.363 3.227-19.864 4.031-31.12 2.366l-.146.989zm-1.294-.255 1.27.251.194-.981-1.27-.251-.194.981zm-1.501-1.334 1.251 1.203.694-.72-1.251-1.204-.694.721zm-31.425-38.679c9.466 14.193 20.07 27.246 31.417 38.671l.71-.705c-11.299-11.376-21.863-24.379-31.295-38.52l-.832.554zm-31.706-90.389c0 34.154 16.036 66.879 31.706 90.389l.832-.554c-15.626-23.446-31.538-55.971-31.538-89.835h-1zm0-52.474v52.474h1v-52.474h-1zm-9.089-8.816 9.236 9.171.705-.71-9.236-9.17-.705.709zm9.353-5.743-9.237 4.948.472.881 9.237-4.947-.472-.882zm-.264.435v.006h1v-.006h-1zm4.757 1.88-4.007-2.313-.5.866 4.007 2.313.5-.866zm38.592 9.42c-11.197.04-25.747-2.003-38.592-9.42l-.5.866c13.05 7.535 27.793 9.594 39.095 9.554l-.003-1zm18.443-1.948c-5.871 1.32-12.033 1.972-18.44 1.948l-.003 1c6.476.024 12.714-.635 18.663-1.972l-.22-.976zm-.081.021-.06.035.502.864.061-.035-.503-.864zm2.516.032c-.861-.346-1.732-.396-2.474-.054l.419.908c.423-.195.996-.201 1.682.074l.373-.928zm.254 47.765c7.87 4.543 15.582 11.701 22.152 20.579l.804-.595c-6.635-8.965-14.445-16.225-22.456-20.85l-.5.866zm.75-.43v-.003h-1v.003h1zm-28.636-2.336c7.314-4.25 17.323-3.33 27.886 2.769l.5-.866c-10.731-6.196-21.145-7.268-28.888-2.768l.502.865zm-11.51 25.663c0-12.238 4.195-21.413 11.51-25.663l-.502-.865c-7.743 4.499-12.008 14.098-12.008 26.528h1zm6.726 29.545c-4.39-10.145-6.725-20.428-6.726-29.545h-1c.001 9.279 2.375 19.698 6.808 29.942l.918-.397zm17.921 27.385c-7.294-7.71-13.532-17.241-17.921-27.385l-.918.397c4.434 10.246 10.735 19.877 18.113 27.676l.726-.688zm22.996 15.909c-7.693-2.668-15.699-8.195-22.996-15.909l-.726.688c7.375 7.796 15.512 13.432 23.394 16.166l.328-.945zm20.14-.821c-5.456 3.171-12.45 3.489-20.14.821l-.328.945c7.885 2.735 15.198 2.454 20.97-.901l-.502-.865zm10.747-17.13c-1.53 8.027-5.291 13.96-10.747 17.13l.502.865c5.773-3.354 9.659-9.58 11.227-17.808l-.982-.187zm-2.273-27.953c3.022 10.197 3.803 19.924 2.273 27.953l.982.187c1.567-8.225.758-18.117-2.297-28.424l-.958.284zm-14.709-29.253c6.568 8.877 11.687 19.059 14.709 29.253l.958-.284c-3.055-10.311-8.228-20.597-14.863-29.564l-.804.595zm.316 14.455c-1.573-.859-3.177-1.059-4.456-.391l.463.886c.875-.457 2.109-.385 3.514.383l.479-.878zm.26.446v-.007h-1v.007h1zm3.306 2.786c-1.046-1.389-2.283-2.517-3.564-3.224l-.483.876c1.133.625 2.269 1.648 3.249 2.949l.798-.601zm2.354 4.614a14.925 14.925 0 0 0-2.354-4.614l-.798.601c.978 1.3 1.743 2.8 2.195 4.301l.957-.288zm.368 4.525c.257-1.333.118-2.911-.368-4.525l-.957.288c.452 1.504.561 2.913.343 4.048l.982.189zm-1.932 2.976c1.024-.573 1.676-1.64 1.932-2.976l-.982-.189c-.217 1.132-.739 1.901-1.438 2.293l.488.872zm-28.087 16.357 28.095-16.361-.504-.864-28.094 16.361.503.864zm-4.751-.419c1.677.968 3.406 1.195 4.749.42l-.499-.866c-.914.527-2.241.452-3.75-.42l-.5.866zm-4.433-4.67c1.162 2.013 2.748 3.698 4.433 4.67l.5-.866c-1.502-.867-2.973-2.409-4.067-4.304l-.866.5zm-2.773-4.813 2.773 4.812.866-.499-2.772-4.812-.867.499zm-5.8 1.696 6.345-1.458-.224-.974-6.345 1.457.224.975zm-17.008-29.504 16.46 29.262.871-.49-16.46-29.262-.871.49zm9.635-5.801-9.438 5.116.477.88 9.438-5.117-.477-.879zm.662.174-.001-.002-.845.535.002.002.844-.535zm-.615-.199a1.603 1.603 0 0 0-.07.041l.526.851.048-.029-.504-.863zm2.252-.456c-.82-.078-1.591.069-2.252.456l.504.863c.457-.267 1.013-.384 1.653-.323l.095-.996zm2.507.86c-.838-.483-1.69-.782-2.507-.86l-.095.996c.645.061 1.36.303 2.104.731l.498-.867zm2.421 1.948c-.76-.801-1.581-1.465-2.421-1.948l-.498.867c.743.427 1.489 1.027 2.193 1.769l.726-.688zm2.027 2.734a14.612 14.612 0 0 0-2.027-2.734l-.726.688a13.616 13.616 0 0 1 1.887 2.546l.866-.5zm11.824 20.524-11.824-20.524-.867.499 11.825 20.524.866-.499zm14.229-8.872-14.914 8.689.504.864 14.914-8.689-.504-.864zm-.364.331.172.332.887-.462-.172-.332-.887.462zm9.457-5.627-9.25 4.955.472.882 9.251-4.956-.473-.881zm.71.279-.001-.001-.945.325v.002l.946-.326z" fill="#001928"></path>
  <mask id="q" style="mask-type:alpha" maskUnits="userSpaceOnUse" x="219" y="149" width="140" height="200">
    <path fill-rule="evenodd" clip-rule="evenodd" d="M293.054 160.057c.135.047.272.102.409.165l-.005-.004c.128.066.256.14.384.222l.061.035c.121.076.242.157.362.244l.061.036c.793.581 1.536 1.406 2.133 2.368a341.747 341.747 0 0 0 18.674 23.553c11.25 13.036 25.87 27.88 38.82 35.357l4.038 2.331v66.598c0 34.01-15.974 48.188-31.622 53.598-9.449 3.257-20.033 4.063-31.356 2.389l-1.27-.252-1.251-1.204c-11.323-11.4-21.907-24.428-31.356-38.595-15.648-23.478-31.622-56.103-31.622-90.112v-52.474l-9.237-9.17 9.237-4.948v-.006l4.007 2.313c12.948 7.476 27.594 9.527 38.843 9.487 6.442.024 12.642-.632 18.552-1.96l.06-.035c.583-.269 1.305-.247 2.078.064zm22.995 67.583c-6.602-8.922-14.364-16.131-22.304-20.715v.003c-10.647-6.148-20.858-7.143-28.387-2.769-7.529 4.375-11.759 13.762-11.759 26.096.001 9.198 2.355 19.549 6.767 29.744 4.411 10.194 10.681 19.775 18.017 27.53 7.336 7.755 15.408 13.336 23.195 16.037 7.788 2.702 14.941 2.402 20.555-.86 5.614-3.263 9.438-9.342 10.987-17.469 1.549-8.127.754-17.937-2.285-28.189-3.039-10.253-8.184-20.487-14.786-29.408zm-4.31 14.804c1.077-.562 2.495-.427 3.984.387v.007c1.207.666 2.394 1.741 3.407 3.087a14.451 14.451 0 0 1 2.274 4.457c.469 1.559.593 3.053.356 4.287s-.824 2.152-1.685 2.634l-28.094 16.361c-1.129.651-2.657.5-4.25-.42-1.593-.919-3.122-2.533-4.25-4.487l-2.773-4.812-6.345 1.458-16.461-29.262 9.439-5.117.001.003.059-.036c.559-.326 1.222-.459 1.953-.389.73.07 1.514.34 2.305.795.791.456 1.575 1.087 2.307 1.859a14.158 14.158 0 0 1 1.957 2.64l11.824 20.523 14.914-8.689-.173-.332 9.25-4.956.001.002z" fill="#083A5A"></path>
    <path d="m293.463 160.222-.211.454a.5.5 0 0 0 .557-.814l-.346.36zm-.409-.165-.186.464.024.009.162-.473zm.404.161.231-.444a.5.5 0 0 0-.577.804l.346-.36zm.384.222-.268.422.018.011.25-.433zm.061.035.265-.424-.015-.009-.25.433zm.362.244-.295.404c.014.011.029.02.045.029l.25-.433zm.061.036.295-.404a.691.691 0 0 0-.045-.029l-.25.433zm2.133 2.368-.424.264.02.029.404-.293zm18.674 23.553.379-.327-.001-.001-.378.328zm38.82 35.357.25-.433-.25.433zm4.038 2.331h.5a.5.5 0 0 0-.25-.433l-.25.433zM326.369 344.56l.163.473-.163-.473zm-31.356 2.389-.097.49a.2.2 0 0 0 .024.004l.073-.494zm-1.27-.252-.347.36a.5.5 0 0 0 .25.131l.097-.491zm-1.251-1.204-.355.353.008.008.347-.361zm-31.356-38.595-.416.277.416-.277zm-31.622-90.112h.5-.5zm0-52.474h.5a.498.498 0 0 0-.148-.355l-.352.355zm-9.237-9.17-.236-.441a.498.498 0 0 0-.116.795l.352-.354zm9.237-4.948.236.441a.502.502 0 0 0 .264-.441h-.5zm0-.006.25-.433a.499.499 0 0 0-.75.433h.5zm4.007 2.313-.25.433.25-.433zm38.843 9.487.002-.5h-.003l.001.5zm18.552-1.96.11.488a.489.489 0 0 0 .141-.056l-.251-.432zm.06-.035-.209-.454a.423.423 0 0 0-.042.022l.251.432zm2.769 46.932.25-.433a.502.502 0 0 0-.75.433h.5zm22.304 20.715.402-.298-.402.298zm-22.304-20.712-.25.433a.502.502 0 0 0 .75-.433h-.5zm-28.387-2.769.251.433-.251-.433zm-11.759 26.096h-.5.5zm6.767 29.744.459-.199-.459.199zm18.017 27.53-.363.344.363-.344zm23.195 16.037.164-.472-.164.472zm20.555-.86.251.432-.251-.432zm10.987-17.469.491.093-.491-.093zm-2.285-28.189-.479.142.479-.142zm-15.112-14.217h.5a.5.5 0 0 0-.26-.439l-.24.439zm-3.984-.387-.473.163a.504.504 0 0 0 .704.28l-.231-.443zm3.984.394h-.5a.5.5 0 0 0 .259.438l.241-.438zm5.681 7.544-.478.144.478-.144zm-1.329 6.921-.244-.436-.008.004.252.432zm-28.094 16.361.249.433.002-.001-.251-.432zm-4.25-.42.25-.433-.25.433zm-4.25-4.487-.433.249v.001l.433-.25zm-2.773-4.812.434-.25a.5.5 0 0 0-.546-.237l.112.487zm-6.345 1.458-.436.245a.5.5 0 0 0 .548.242l-.112-.487zm-16.461-29.262-.238-.44a.501.501 0 0 0-.197.685l.435-.245zm9.439-5.117.422-.267a.501.501 0 0 0-.661-.172l.239.439zm.001.003-.422.267a.5.5 0 0 0 .685.158l-.263-.425zm.059-.036-.252-.431.252.431zm4.258.406.249-.433-.249.433zm4.264 4.499.433-.25-.433.25zm11.824 20.523-.433.25a.499.499 0 0 0 .685.182l-.252-.432zm14.914-8.689.252.432a.5.5 0 0 0 .191-.663l-.443.231zm-.173-.332-.236-.441a.5.5 0 0 0-.207.672l.443-.231zm9.25-4.956.473-.162a.5.5 0 0 0-.709-.278l.236.44zm-18.065-82.673a4.842 4.842 0 0 0-.456-.185l-.325.946c.118.04.238.089.36.146l.421-.907zm-.561.809.004.005.693-.721-.004-.005-.693.721zm.998-.56a5.647 5.647 0 0 0-.421-.244l-.461.888c.114.059.23.126.346.2l.536-.844zm.043.024-.061-.035-.5.866.061.035.5-.866zm.406.273a6.385 6.385 0 0 0-.391-.264l-.529.848c.11.069.221.144.331.224l.589-.808zm.017.007-.061-.036-.5.866.061.036.5-.866zm2.308 2.537c-.626-1.008-1.411-1.883-2.263-2.508l-.591.807c.734.538 1.436 1.313 2.005 2.229l.849-.528zm18.627 23.489a340.823 340.823 0 0 1-18.647-23.519l-.809.587a341.844 341.844 0 0 0 18.701 23.588l.755-.656zm38.692 35.252c-12.871-7.431-27.445-22.219-38.691-35.251l-.757.654c11.253 13.04 25.92 27.941 38.948 35.463l.5-.866zm4.038 2.331-4.038-2.331-.5.866 4.038 2.331.5-.866zm.25 67.031v-66.598h-1v66.598h1zm-31.959 54.071c7.904-2.733 15.904-7.686 21.925-16.26 6.021-8.573 10.034-20.727 10.034-37.811h-1c0 16.926-3.974 28.866-9.852 37.236-5.878 8.37-13.689 13.212-21.433 15.89l.326.945zm-31.592 2.41c11.391 1.685 22.057.877 31.592-2.41l-.326-.945c-9.363 3.227-19.864 4.031-31.12 2.366l-.146.989zm-1.294-.255 1.27.251.194-.981-1.27-.251-.194.981zm-1.501-1.334 1.251 1.203.694-.72-1.251-1.204-.694.721zm-31.425-38.679c9.466 14.193 20.07 27.246 31.417 38.671l.71-.705c-11.299-11.376-21.863-24.379-31.295-38.52l-.832.554zm-31.706-90.389c0 34.154 16.036 66.879 31.706 90.389l.832-.554c-15.626-23.446-31.538-55.971-31.538-89.835h-1zm0-52.474v52.474h1v-52.474h-1zm-9.089-8.816 9.236 9.171.705-.71-9.236-9.17-.705.709zm9.353-5.743-9.237 4.948.472.881 9.237-4.947-.472-.882zm-.264.435v.006h1v-.006h-1zm4.757 1.88-4.007-2.313-.5.866 4.007 2.313.5-.866zm38.592 9.42c-11.197.04-25.747-2.003-38.592-9.42l-.5.866c13.05 7.535 27.793 9.594 39.095 9.554l-.003-1zm18.443-1.948c-5.871 1.32-12.033 1.972-18.44 1.948l-.003 1c6.476.024 12.714-.635 18.663-1.972l-.22-.976zm-.081.021-.06.035.502.864.061-.035-.503-.864zm2.516.032c-.861-.346-1.732-.396-2.474-.054l.419.908c.423-.195.996-.201 1.682.074l.373-.928zm.254 47.765c7.87 4.543 15.582 11.701 22.152 20.579l.804-.595c-6.635-8.965-14.445-16.225-22.456-20.85l-.5.866zm.75-.43v-.003h-1v.003h1zm-28.636-2.336c7.314-4.25 17.323-3.33 27.886 2.769l.5-.866c-10.731-6.196-21.145-7.268-28.888-2.768l.502.865zm-11.51 25.663c0-12.238 4.195-21.413 11.51-25.663l-.502-.865c-7.743 4.499-12.008 14.098-12.008 26.528h1zm6.726 29.545c-4.39-10.145-6.725-20.428-6.726-29.545h-1c.001 9.279 2.375 19.698 6.808 29.942l.918-.397zm17.921 27.385c-7.294-7.71-13.532-17.241-17.921-27.385l-.918.397c4.434 10.246 10.735 19.877 18.113 27.676l.726-.688zm22.996 15.909c-7.693-2.668-15.699-8.195-22.996-15.909l-.726.688c7.375 7.796 15.512 13.432 23.394 16.166l.328-.945zm20.14-.821c-5.456 3.171-12.45 3.489-20.14.821l-.328.945c7.885 2.735 15.198 2.454 20.97-.901l-.502-.865zm10.747-17.13c-1.53 8.027-5.291 13.96-10.747 17.13l.502.865c5.773-3.354 9.659-9.58 11.227-17.808l-.982-.187zm-2.273-27.953c3.022 10.197 3.803 19.924 2.273 27.953l.982.187c1.567-8.225.758-18.117-2.297-28.424l-.958.284zm-14.709-29.253c6.568 8.877 11.687 19.059 14.709 29.253l.958-.284c-3.055-10.311-8.228-20.597-14.863-29.564l-.804.595zm.316 14.455c-1.573-.859-3.177-1.059-4.456-.391l.463.886c.875-.457 2.109-.385 3.514.383l.479-.878zm.26.446v-.007h-1v.007h1zm3.306 2.786c-1.046-1.389-2.283-2.517-3.564-3.224l-.483.876c1.133.625 2.269 1.648 3.249 2.949l.798-.601zm2.354 4.614a14.925 14.925 0 0 0-2.354-4.614l-.798.601c.978 1.3 1.743 2.8 2.195 4.301l.957-.288zm.368 4.525c.257-1.333.118-2.911-.368-4.525l-.957.288c.452 1.504.561 2.913.343 4.048l.982.189zm-1.932 2.976c1.024-.573 1.676-1.64 1.932-2.976l-.982-.189c-.217 1.132-.739 1.901-1.438 2.293l.488.872zm-28.087 16.357 28.095-16.361-.504-.864-28.094 16.361.503.864zm-4.751-.419c1.677.968 3.406 1.195 4.749.42l-.499-.866c-.914.527-2.241.452-3.75-.42l-.5.866zm-4.433-4.67c1.162 2.013 2.748 3.698 4.433 4.67l.5-.866c-1.502-.867-2.973-2.409-4.067-4.304l-.866.5zm-2.773-4.813 2.773 4.812.866-.499-2.772-4.812-.867.499zm-5.8 1.696 6.345-1.458-.224-.974-6.345 1.457.224.975zm-17.008-29.504 16.46 29.262.871-.49-16.46-29.262-.871.49zm9.635-5.801-9.438 5.116.477.88 9.438-5.117-.477-.879zm.662.174-.001-.002-.845.535.002.002.844-.535zm-.615-.199a1.603 1.603 0 0 0-.07.041l.526.851.048-.029-.504-.863zm2.252-.456c-.82-.078-1.591.069-2.252.456l.504.863c.457-.267 1.013-.384 1.653-.323l.095-.996zm2.507.86c-.838-.483-1.69-.782-2.507-.86l-.095.996c.645.061 1.36.303 2.104.731l.498-.867zm2.421 1.948c-.76-.801-1.581-1.465-2.421-1.948l-.498.867c.743.427 1.489 1.027 2.193 1.769l.726-.688zm2.027 2.734a14.612 14.612 0 0 0-2.027-2.734l-.726.688a13.616 13.616 0 0 1 1.887 2.546l.866-.5zm11.824 20.524-11.824-20.524-.867.499 11.825 20.524.866-.499zm14.229-8.872-14.914 8.689.504.864 14.914-8.689-.504-.864zm-.364.331.172.332.887-.462-.172-.332-.887.462zm9.457-5.627-9.25 4.955.472.882 9.251-4.956-.473-.881zm.71.279-.001-.001-.945.325v.002l.946-.326z" fill="#001928"></path>
  </mask>
  <g mask="url(#q)">
    <path d="m283.277 166 11.299-5.285" stroke="#001928" stroke-width=".8"></path>
    <path fill="#083A5A" d="m372.777 215.61-48.5 28.001v110.357l48.5-28.001zM266.277 193.104l-31 17.898v70.712l31-17.898-10.5-30.818 10.5-39.894zM265.277 266l-13 7.505v1l13-7.505zM359.277 220.676l-15 8.66v1l15-8.66z"></path>
    <path fill="#083A5A" d="m326.277 245.979-23 13.279v9.381l23-13.279zM289.277 243.656l-25 14.433v10.7l25-14.433zM327.277 244l-23 13.279v-1l23-13.279zM291.277 241l-23 13.279v-1l23-13.279z"></path>
  </g>
  <path d="m285.266 260.805-2.649 17.874 9.234-4.944 2.834-11.375-9.419-1.555z" fill="#083A5A"></path>
  <path d="m293.463 160.222-.211.454.557-.815-.346.361zm-.409-.165-.186.464.012.005.012.004.162-.473zm.404.161.231-.444-.577.804.346-.36zm.384.221-.268.423.009.005.009.005.25-.433zm.061.036.265-.424-.007-.005-.008-.004-.25.433zm.362.244-.295.404.022.016.023.013.25-.433zm.061.035.295-.403-.022-.016-.023-.014-.25.433zm2.133 2.369-.424.263.009.015.011.015.404-.293zm18.674 23.553.379-.327-.001-.001-.378.328zm38.82 35.357.25-.433-.25.433zm4.038 2.331h.5v-.289l-.25-.144-.25.433zM326.369 344.56l.163.473-.163-.473zm-31.356 2.389-.097.49.012.002.012.002.073-.494zm-1.27-.252-.347.36.106.102.144.028.097-.49zm-1.251-1.204-.355.353.008.007.347-.36zm-31.356-38.595-.416.277.416-.277zm-31.622-90.113h.5-.5zm0-52.474h.5v-.208l-.148-.146-.352.354zm-9.237-9.17-.236-.44-.596.319.48.476.352-.355zm9.237-4.947.236.44.264-.141v-.299h-.5zm0-.006.25-.434-.75-.433v.867h.5zm4.007 2.313-.25.433.25-.433zm38.843 9.487.002-.5h-.003l.001.5zm18.552-1.96.11.488.075-.017.066-.039-.251-.432zm.06-.035-.209-.454-.022.009-.02.012.251.433zm2.769 46.932.25-.433-.75-.433v.866h.5zm22.304 20.714.402-.297-.402.297zm-22.304-20.712-.25.433.75.433v-.866h-.5zm-28.387-2.768.251.432-.251-.432zm-11.759 26.096h-.5.5zm6.767 29.744.459-.199-.459.199zm18.017 27.53-.363.343.363-.343zm23.195 16.037.164-.472-.164.472zm20.555-.861.251.433-.251-.433zm10.987-17.468.491.093-.491-.093zm-2.285-28.19-.479.142.479-.142zm-15.112-14.216h.5v-.297l-.26-.142-.24.439zm-3.984-.387-.473.162.189.55.515-.269-.231-.443zm3.984.394h-.5v.295l.259.143.241-.438zm5.681 7.544-.478.144.478-.144zm-1.329 6.921-.244-.436-.008.004.252.432zm-28.094 16.361.249.433.002-.001-.251-.432zm-4.25-.42.25-.433-.25.433zm-4.25-4.487-.433.249v.001l.433-.25zm-2.773-4.812.434-.25-.185-.32-.361.082.112.488zm-6.345 1.457-.436.246.183.326.365-.084-.112-.488zm-16.461-29.261-.238-.44-.446.242.249.443.435-.245zm9.439-5.117.422-.267-.25-.395-.411.223.239.439zm.001.003-.422.267.264.418.421-.26-.263-.425zm.059-.036-.252-.431.252.431zm4.258.406.249-.433-.249.433zm4.264 4.498.433-.249v-.001l-.433.25zm11.824 20.524-.433.25.25.435.435-.253-.252-.432zm14.914-8.689.252.432.411-.24-.22-.423-.443.231zm-.173-.332-.236-.441-.435.233.228.439.443-.231zm9.25-4.956.473-.163-.191-.555-.518.277.236.441zm-18.065-82.674a4.831 4.831 0 0 0-.456-.184l-.325.946c.118.04.238.089.36.146l.421-.908zm-.561.81.004.004.693-.721-.004-.004-.693.721zm.998-.561a6.003 6.003 0 0 0-.421-.243l-.461.887c.114.06.23.127.346.201l.536-.845zm.043.025-.061-.036-.5.866.061.036.5-.866zm.406.273a6.385 6.385 0 0 0-.391-.264l-.529.848c.11.069.221.144.331.224l.589-.808zm.017.006-.061-.035-.5.866.061.035.5-.866zm2.308 2.538c-.626-1.008-1.411-1.883-2.263-2.508l-.591.807c.734.538 1.436 1.313 2.005 2.228l.849-.527zm18.627 23.489a341.064 341.064 0 0 1-18.647-23.519l-.809.587a341.844 341.844 0 0 0 18.701 23.588l.755-.656zm38.692 35.252c-12.871-7.432-27.445-22.219-38.691-35.251l-.757.653c11.253 13.041 25.92 27.942 38.948 35.464l.5-.866zm4.038 2.331-4.038-2.331-.5.866 4.038 2.331.5-.866zm.25 67.031v-66.598h-1v66.598h1zm-31.959 54.071c7.904-2.733 15.904-7.686 21.925-16.26 6.021-8.574 10.034-20.727 10.034-37.811h-1c0 16.926-3.974 28.866-9.852 37.236-5.878 8.37-13.689 13.211-21.433 15.889l.326.946zm-31.592 2.41c11.391 1.685 22.057.876 31.592-2.41l-.326-.946c-9.363 3.228-19.864 4.032-31.12 2.367l-.146.989zm-1.294-.256 1.27.252.194-.981-1.27-.252-.194.981zm-1.501-1.334 1.251 1.204.694-.72-1.251-1.204-.694.72zm-31.425-38.678c9.466 14.193 20.07 27.246 31.417 38.67l.71-.704c-11.299-11.377-21.863-24.379-31.295-38.521l-.832.555zm-31.706-90.39c0 34.155 16.036 66.879 31.706 90.39l.832-.555c-15.626-23.445-31.538-55.97-31.538-89.835h-1zm0-52.474v52.474h1v-52.474h-1zm-9.089-8.815 9.236 9.17.705-.709-9.236-9.17-.705.709zm9.353-5.743-9.237 4.948.472.881 9.237-4.948-.472-.881zm-.264.435v.006h1v-.006h-1zm4.757 1.88-4.007-2.314-.5.867 4.007 2.313.5-.866zm38.592 9.42c-11.197.039-25.747-2.004-38.592-9.42l-.5.866c13.05 7.535 27.793 9.594 39.095 9.554l-.003-1zm18.443-1.948c-5.871 1.32-12.033 1.971-18.44 1.948l-.003 1c6.476.024 12.714-.635 18.663-1.972l-.22-.976zm-.081.02-.06.035.502.865.061-.035-.503-.865zm2.516.033c-.861-.346-1.732-.397-2.474-.054l.419.908c.423-.195.996-.202 1.682.074l.373-.928zm.254 47.765c7.87 4.543 15.582 11.701 22.152 20.579l.804-.595c-6.635-8.965-14.445-16.225-22.456-20.85l-.5.866zm.75-.431v-.002h-1v.002h1zm-28.636-2.336c7.314-4.249 17.323-3.329 27.886 2.769l.5-.866c-10.731-6.195-21.145-7.267-28.888-2.767l.502.864zm-11.51 25.664c0-12.239 4.195-21.413 11.51-25.664l-.502-.864c-7.743 4.499-12.008 14.098-12.008 26.528h1zm6.726 29.545c-4.39-10.145-6.725-20.428-6.726-29.545h-1c.001 9.279 2.375 19.697 6.808 29.942l.918-.397zm17.921 27.385c-7.294-7.711-13.532-17.242-17.921-27.385l-.918.397c4.434 10.246 10.735 19.876 18.113 27.675l.726-.687zm22.996 15.909c-7.693-2.669-15.699-8.195-22.996-15.909l-.726.687c7.375 7.797 15.512 13.432 23.394 16.167l.328-.945zm20.14-.821c-5.456 3.171-12.45 3.488-20.14.821l-.328.945c7.885 2.735 15.198 2.453 20.97-.901l-.502-.865zm10.747-17.13c-1.53 8.027-5.291 13.959-10.747 17.13l.502.865c5.773-3.355 9.659-9.58 11.227-17.808l-.982-.187zm-2.273-27.954c3.022 10.198 3.803 19.925 2.273 27.954l.982.187c1.567-8.225.758-18.118-2.297-28.425l-.958.284zm-14.709-29.252c6.568 8.877 11.687 19.058 14.709 29.252l.958-.284c-3.055-10.31-8.228-20.596-14.863-29.563l-.804.595zm.316 14.455c-1.573-.86-3.177-1.059-4.456-.392l.463.887c.875-.457 2.109-.385 3.514.383l.479-.878zm.26.446v-.007h-1v.007h1zm3.306 2.786c-1.046-1.39-2.283-2.517-3.564-3.224l-.483.876c1.133.625 2.269 1.648 3.249 2.949l.798-.601zm2.354 4.614a14.914 14.914 0 0 0-2.354-4.614l-.798.601c.978 1.3 1.743 2.8 2.195 4.301l.957-.288zm.368 4.525c.257-1.334.118-2.911-.368-4.525l-.957.288c.452 1.504.561 2.913.343 4.048l.982.189zm-1.932 2.976c1.024-.573 1.676-1.64 1.932-2.976l-.982-.189c-.217 1.132-.739 1.901-1.438 2.293l.488.872zm-28.087 16.357 28.095-16.361-.504-.864-28.094 16.361.503.864zm-4.751-.419c1.677.968 3.406 1.195 4.749.42l-.499-.866c-.914.527-2.241.452-3.75-.42l-.5.866zm-4.433-4.67c1.162 2.013 2.748 3.698 4.433 4.67l.5-.866c-1.502-.867-2.973-2.409-4.067-4.305l-.866.501zm-2.773-4.813 2.773 4.812.866-.499-2.772-4.812-.867.499zm-5.8 1.696 6.345-1.458-.224-.975-6.345 1.458.224.975zm-17.008-29.504 16.46 29.262.871-.491-16.46-29.261-.871.49zm9.635-5.801-9.438 5.116.477.879 9.438-5.116-.477-.879zm.662.174-.001-.002-.845.535.002.002.844-.535zm-.615-.199a1.603 1.603 0 0 0-.07.041l.526.851.048-.029-.504-.863zm2.252-.456c-.82-.078-1.591.069-2.252.456l.504.863c.457-.267 1.013-.385 1.653-.323l.095-.996zm2.507.86c-.838-.483-1.69-.782-2.507-.86l-.095.996c.645.061 1.36.302 2.104.731l.498-.867zm2.421 1.948c-.76-.801-1.581-1.465-2.421-1.948l-.498.867c.743.427 1.489 1.027 2.193 1.769l.726-.688zm2.027 2.733a14.638 14.638 0 0 0-2.027-2.733l-.726.688a13.641 13.641 0 0 1 1.887 2.545l.866-.5zm11.824 20.524-11.824-20.523-.867.499 11.825 20.524.866-.5zm14.229-8.871-14.914 8.689.504.864 14.914-8.689-.504-.864zm-.364.331.172.331.887-.461-.172-.332-.887.462zm9.457-5.628-9.25 4.956.472.882 9.251-4.956-.473-.882zm.71.28-.001-.002-.945.326v.001l.946-.325z" fill="#001928"></path>
  <path fill-rule="evenodd" clip-rule="evenodd" d="M284.226 165.172a4.053 4.053 0 0 0-.408-.165c-.773-.311-1.496-.333-2.078-.064l-.06.035c-5.91 1.328-12.11 1.984-18.552 1.96-11.249.04-25.896-2.011-38.843-9.487l-4.008-2.313v66.597c0 34.01 15.975 66.635 31.623 90.113 9.449 14.167 20.033 27.195 31.356 38.595l1.251 1.204 1.27.252c11.323 1.674 21.907.868 31.356-2.389 15.648-5.411 31.622-19.588 31.622-53.598v-66.598l-4.038-2.331c-12.95-7.477-27.57-22.321-38.82-35.357a341.444 341.444 0 0 1-18.674-23.553c-.597-.962-1.34-1.787-2.134-2.369l-.061-.035a5.723 5.723 0 0 0-.361-.244l-.061-.035a4.736 4.736 0 0 0-.384-.222l.004.004zm.283 46.703c7.94 4.584 15.702 11.793 22.304 20.715 6.602 8.921 11.747 19.155 14.786 29.408 3.038 10.252 3.833 20.062 2.285 28.189-1.549 8.127-5.373 14.206-10.987 17.469-5.614 3.262-12.768 3.562-20.555.86-7.788-2.701-15.859-8.282-23.195-16.037-7.336-7.755-13.606-17.336-18.017-27.53-4.412-10.195-6.767-20.546-6.767-29.744 0-12.334 4.23-21.721 11.759-26.096 7.529-4.374 17.74-3.379 28.387 2.768v-.002zm21.978 35.906c-1.565-.856-3.053-.961-4.147-.295l-23.829 13.883-11.825-20.523a14.07 14.07 0 0 0-1.957-2.64c-.731-.772-1.515-1.403-2.306-1.859-.791-.455-1.575-.725-2.305-.795-.731-.07-1.395.063-1.953.389-.559.327-1.002.842-1.303 1.515-.302.673-.457 1.492-.455 2.409.001.918.158 1.916.462 2.938a14.183 14.183 0 0 0 1.309 3.018l16.067 27.886c1.128 1.954 2.656 3.567 4.25 4.487 1.593.92 3.121 1.071 4.25.42l28.094-16.361c.861-.482 1.448-1.4 1.685-2.634.237-1.235.113-2.728-.356-4.287a14.451 14.451 0 0 0-2.274-4.457c-1.013-1.346-2.2-2.421-3.407-3.087v-.007z" fill="#99D3CE" stroke="#001928" stroke-linejoin="round"></path>
  <path d="M284.821 165.523a4.467 4.467 0 0 0-.154-.1l-.061-.035a5.412 5.412 0 0 0-.384-.222l.004.005a4.053 4.053 0 0 0-.408-.165c-.773-.311-1.496-.333-2.078-.065l-.06.035c-5.91 1.329-12.11 1.984-18.552 1.961-11.25.039-25.896-2.012-38.843-9.487l-4.008-2.314v66.598c0 34.01 15.975 66.634 31.623 90.112 9.449 14.168 20.033 27.195 31.356 38.596l1.251 1.204.314.062v-46.643c-5.352-3.041-10.683-7.311-15.674-12.588-7.336-7.755-13.606-17.335-18.018-27.53-4.411-10.195-6.766-20.545-6.766-29.744 0-12.334 4.23-21.721 11.759-26.095 7.528-4.375 17.74-3.379 28.387 2.768v-.003l.312.182v-46.532z" fill="#99D3CE" stroke="#001928" stroke-linejoin="round"></path>
</svg>
