<svg width="136" height="68" viewBox="0 0 136 68" fill="none" xmlns="http://www.w3.org/2000/svg">
<path d="M136 0H0V68H136V0Z" fill="#B22234"/>
<path d="M0 7.84619H129H0ZM129 18.3077H0H129ZM0 28.7693H129H0ZM129 39.2308H0H129ZM0 49.6923H129H0ZM129 60.1539H0Z" fill="black"/>
<path fill-rule="evenodd" clip-rule="evenodd" d="M0 5H136V10.2727H0V5ZM136 20.8182H0V15.5455H136V20.8182ZM0 26.0909H136V31.3636H0V26.0909ZM136 41.9091H0V36.6364H136V41.9091ZM0 47.1818H136V52.4545H0V47.1818ZM0 57.7273H136V63H0V57.7273Z" fill="white"/>
<path d="M51.6 0H0V36.6154H51.6V0Z" fill="#3C3B6E"/>
<path d="M4.30359 1.56909L5.53614 5.35617L2.30853 3.01278H6.27776L3.07104 5.35617L4.30359 1.56909Z" fill="white"/>
<path d="M4.30359 8.89209L5.53614 12.6792L2.30853 10.3358H6.27776L3.0606 12.6792L4.30359 8.89209Z" fill="white"/>
<path d="M4.30395 16.2153L5.5365 20.0024L2.31934 17.659H6.28857L3.0714 20.0024L4.30395 16.2153Z" fill="white"/>
<path d="M4.30395 23.5383L5.5365 27.3254L2.31934 24.982H6.28857L3.0714 27.3254L4.30395 23.5383Z" fill="white"/>
<path d="M4.30395 30.8616L5.5365 34.6486L2.31934 32.3053H6.28857L3.0714 34.6486L4.30395 30.8616Z" fill="white"/>
<path d="M8.59637 5.23047L9.82892 9.01755L6.61176 6.67416H10.581L7.37427 9.01755L8.59637 5.23047Z" fill="white"/>
<path d="M8.59637 12.5535L9.82892 16.3405L6.61176 13.9972H10.581L7.36382 16.3405L8.59637 12.5535Z" fill="white"/>
<path d="M8.59637 19.8767L9.82892 23.6638L6.61176 21.3204H10.581L7.36382 23.6638L8.59637 19.8767Z" fill="white"/>
<path d="M8.59637 27.1997L9.82892 30.9868L6.61176 28.6434H10.581L7.36382 30.9868L8.59637 27.1997Z" fill="white"/>
<path d="M12.9003 1.56909L14.1329 5.35617L10.9157 3.01278H14.8849L11.6678 5.35617L12.9003 1.56909Z" fill="white"/>
<path d="M12.9003 8.89209L14.1329 12.6792L10.9157 10.3358H14.8849L11.6678 12.6792L12.9003 8.89209Z" fill="white"/>
<path d="M12.9003 16.2153L14.1329 20.0024L10.9157 17.659H14.8849L11.6678 20.0024L12.9003 16.2153Z" fill="white"/>
<path d="M12.9003 23.5383L14.1329 27.3254L10.9157 24.982H14.8849L11.6678 27.3254L12.9003 23.5383Z" fill="white"/>
<path d="M12.9003 30.8616L14.1329 34.6486L10.9157 32.3053H14.8849L11.6678 34.6486L12.9003 30.8616Z" fill="white"/>
<path d="M17.2035 5.23047L18.4361 9.01755L15.2189 6.67416H19.1882L15.971 9.01755L17.2035 5.23047Z" fill="white"/>
<path d="M17.2035 12.5535L18.4361 16.3405L15.2189 13.9972H19.1882L15.971 16.3405L17.2035 12.5535Z" fill="white"/>
<path d="M17.2035 19.8767L18.4361 23.6638L15.2189 21.3204H19.1882L15.971 23.6638L17.2035 19.8767Z" fill="white"/>
<path d="M17.2035 27.1997L18.4361 30.9868L15.2189 28.6434H19.1882L15.971 30.9868L17.2035 27.1997Z" fill="white"/>
<path d="M21.4967 1.56909L22.7293 5.35617L19.5121 3.01278H23.4813L20.2641 5.35617L21.4967 1.56909Z" fill="white"/>
<path d="M21.4967 8.89209L22.7293 12.6792L19.5121 10.3358H23.4813L20.2641 12.6792L21.4967 8.89209Z" fill="white"/>
<path d="M21.4967 16.2153L22.7293 20.0024L19.5121 17.659H23.4813L20.2641 20.0024L21.4967 16.2153Z" fill="white"/>
<path d="M21.4967 23.5383L22.7293 27.3254L19.5121 24.982H23.4813L20.2641 27.3254L21.4967 23.5383Z" fill="white"/>
<path d="M21.4967 30.8616L22.7293 34.6486L19.5121 32.3053H23.4813L20.2641 34.6486L21.4967 30.8616Z" fill="white"/>
<path d="M25.7999 5.23047L27.0325 9.01755L23.8153 6.67416H27.7845L24.5674 9.01755L25.7999 5.23047Z" fill="white"/>
<path d="M25.7999 12.5535L27.0325 16.3405L23.8153 13.9972H27.7845L24.5674 16.3405L25.7999 12.5535Z" fill="white"/>
<path d="M25.7999 19.8767L27.0325 23.6638L23.8153 21.3204H27.7845L24.5674 23.6638L25.7999 19.8767Z" fill="white"/>
<path d="M25.7999 27.1997L27.0325 30.9868L23.8153 28.6434H27.7845L24.5674 30.9868L25.7999 27.1997Z" fill="white"/>
<path d="M30.1039 1.56909L31.3365 5.35617L28.1193 3.01278H32.0886L28.8714 5.35617L30.1039 1.56909Z" fill="white"/>
<path d="M30.1039 8.89209L31.3365 12.6792L28.1193 10.3358H32.0886L28.8714 12.6792L30.1039 8.89209Z" fill="white"/>
<path d="M30.1039 16.2153L31.3365 20.0024L28.1193 17.659H32.0886L28.8714 20.0024L30.1039 16.2153Z" fill="white"/>
<path d="M30.1039 23.5383L31.3365 27.3254L28.1193 24.982H32.0886L28.8714 27.3254L30.1039 23.5383Z" fill="white"/>
<path d="M30.1039 30.8616L31.3365 34.6486L28.1193 32.3053H32.0886L28.8714 34.6486L30.1039 30.8616Z" fill="white"/>
<path d="M34.397 5.23047L35.6295 9.01755L32.4124 6.67416H36.3816L33.1644 9.01755L34.397 5.23047Z" fill="white"/>
<path d="M34.397 12.5535L35.6295 16.3405L32.4124 13.9972H36.3816L33.1644 16.3405L34.397 12.5535Z" fill="white"/>
<path d="M34.397 19.8767L35.6295 23.6638L32.4124 21.3204H36.3816L33.1644 23.6638L34.397 19.8767Z" fill="white"/>
<path d="M34.397 27.1997L35.6295 30.9868L32.4124 28.6434H36.3816L33.1644 30.9868L34.397 27.1997Z" fill="white"/>
<path d="M38.7002 1.56909L39.9328 5.35617L36.7156 3.01278H40.6848L37.4676 5.35617L38.7002 1.56909Z" fill="white"/>
<path d="M38.7002 8.89209L39.9328 12.6792L36.7156 10.3358H40.6848L37.4676 12.6792L38.7002 8.89209Z" fill="white"/>
<path d="M38.7002 16.2153L39.9328 20.0024L36.7156 17.659H40.6848L37.4676 20.0024L38.7002 16.2153Z" fill="white"/>
<path d="M38.7002 23.5383L39.9328 27.3254L36.7156 24.982H40.6848L37.4676 27.3254L38.7002 23.5383Z" fill="white"/>
<path d="M38.7002 30.8616L39.9328 34.6486L36.7156 32.3053H40.6848L37.4676 34.6486L38.7002 30.8616Z" fill="white"/>
<path d="M43.0035 5.23047L44.236 9.01755L41.0189 6.67416H44.9881L41.7709 9.01755L43.0035 5.23047Z" fill="white"/>
<path d="M43.0035 12.5535L44.236 16.3405L41.0189 13.9972H44.9881L41.7709 16.3405L43.0035 12.5535Z" fill="white"/>
<path d="M43.0035 19.8767L44.236 23.6638L41.0189 21.3204H44.9881L41.7709 23.6638L43.0035 19.8767Z" fill="white"/>
<path d="M43.0035 27.1997L44.236 30.9868L41.0189 28.6434H44.9881L41.7709 30.9868L43.0035 27.1997Z" fill="white"/>
<path d="M47.2966 1.56909L48.5291 5.35617L45.312 3.01278H49.2812L46.064 5.35617L47.2966 1.56909Z" fill="white"/>
<path d="M47.2966 8.89209L48.5291 12.6792L45.312 10.3358H49.2812L46.064 12.6792L47.2966 8.89209Z" fill="white"/>
<path d="M47.2966 16.2153L48.5291 20.0024L45.312 17.659H49.2812L46.064 20.0024L47.2966 16.2153Z" fill="white"/>
<path d="M47.2966 23.5383L48.5291 27.3254L45.312 24.982H49.2812L46.064 27.3254L47.2966 23.5383Z" fill="white"/>
<path d="M47.2966 30.8616L48.5291 34.6486L45.312 32.3053H49.2812L46.064 34.6486L47.2966 30.8616Z" fill="white"/>
</svg>
