<?xml version="1.0" encoding="UTF-8"?>
<svg xmlns="http://www.w3.org/2000/svg" width="354" height="403" fill="none">
  <g clip-path="url(#a)">
    <path d="M80.883 402.134 5.192 357.021l75.691-46.623 85.506 42.848-85.506 48.888z" fill="#001928"></path>
    <rect width="187.825" height="173.156" rx="17" transform="scale(1.22452 .7075) rotate(45 -273.829 342.563)" fill="#001928"></rect>
    <path d="M323.745 219.738v32.821l-28.424 16.411 28.424-49.232z" fill="#CDFFFA" stroke="#001928" stroke-linecap="round" stroke-linejoin="round"></path>
    <path d="M333.671 225.464v32.822l-28.424 16.41 28.424-49.232z" fill="#083A5A" stroke="#001928" stroke-linecap="round" stroke-linejoin="round"></path>
    <path d="m333.671 225.46-9.926-5.722-28.424 49.239 9.926 5.715 28.424-49.232z" fill="#99D3CE" stroke="#001928" stroke-linecap="round" stroke-linejoin="round"></path>
    <path fill-rule="evenodd" clip-rule="evenodd" d="M193.938 219.918c-7.653-4.418-20.06-4.418-27.713 0l-90.522 52.263v-.404h-25.16v19.739h.006c.054 2.854 1.967 5.698 5.738 7.875l140.401 81.061c7.653 4.418 20.06 4.418 27.713 0l109.938-63.473c4.513-2.606 6.364-6.166 5.555-9.554V263h-47v14.05l-98.956-57.132z" fill="#99D3CE"></path>
    <path d="m166.225 219.918.25.433-.25-.433zm27.713 0-.25.433.25-.433zM75.703 272.181h-.5v.866l.75-.433-.25-.433zm0-.404h.5v-.5h-.5v.5zm-25.16 0v-.5h-.5v.5h.5zm0 19.739h-.5v.5h.5v-.5zm.006 0 .5-.009-.01-.491h-.49v.5zm5.738 7.875.25-.433-.25.433zm140.401 81.061-.25.433.25-.433zm27.713 0 .25.433-.25-.433zm109.938-63.473.25.433-.25-.433zm5.555-9.554h-.5v.058l.014.058.486-.116zm0-44.425h.5v-.5h-.5v.5zm-47 0v-.5h-.5v.5h.5zm0 14.05-.25.433.75.433v-.866h-.5zm-126.419-56.699c3.733-2.155 8.656-3.247 13.607-3.247 4.95 0 9.873 1.092 13.606 3.247l.5-.866c-3.92-2.263-9.027-3.381-14.106-3.381-5.08 0-10.187 1.118-14.107 3.381l.5.866zm-90.522 52.263 90.522-52.263-.5-.866-90.522 52.263.5.866zm.25-.433v-.404h-1v.404h1zm-.5-.904h-25.16v1h25.16v-1zm-25.66.5v19.739h1v-19.739h-1zm.5 20.239h.006v-1h-.007v1zm5.994 6.942c-3.681-2.126-5.439-4.834-5.489-7.451l-1 .019c.06 3.09 2.128 6.069 5.989 8.298l.5-.866zm140.401 81.061L56.537 298.958l-.5.866 140.401 81.061.5-.866zm27.213 0c-3.732 2.154-8.656 3.246-13.606 3.246-4.951 0-9.874-1.092-13.607-3.246l-.5.866c3.92 2.263 9.027 3.38 14.107 3.38 5.079 0 10.186-1.117 14.106-3.38l-.5-.866zm109.938-63.473-109.938 63.473.5.866 109.938-63.473-.5-.866zm5.319-9.005c.738 3.093-.915 6.462-5.319 9.005l.5.866c4.621-2.668 6.671-6.419 5.791-10.104l-.972.233zm.986-.116V263h-1v44.425h1zm-.5-44.925h-47v1h47v-1zm-47.5.5v14.05h1V263h-1zm-98.706-42.649 98.956 57.132.5-.866-98.956-57.132-.5.866z" fill="#012135"></path>
    <mask id="b" style="mask-type:alpha" maskUnits="userSpaceOnUse" x="50" y="216" width="291" height="169">
      <path fill-rule="evenodd" clip-rule="evenodd" d="M193.938 219.918c-7.653-4.418-20.06-4.418-27.713 0l-90.522 52.263v-.404h-25.16v19.739h.006c.054 2.854 1.967 5.698 5.738 7.875l140.401 81.061c7.653 4.418 20.06 4.418 27.713 0l109.938-63.473c4.513-2.606 6.364-6.166 5.555-9.554V263h-47v14.05l-98.956-57.132z" fill="#083A5A"></path>
      <path d="m166.225 219.918.25.433-.25-.433zm27.713 0-.25.433.25-.433zM75.703 272.181h-.5v.866l.75-.433-.25-.433zm0-.404h.5v-.5h-.5v.5zm-25.16 0v-.5h-.5v.5h.5zm0 19.739h-.5v.5h.5v-.5zm.006 0 .5-.009-.01-.491h-.49v.5zm5.738 7.875.25-.433-.25.433zm140.401 81.061-.25.433.25-.433zm27.713 0 .25.433-.25-.433zm109.938-63.473.25.433-.25-.433zm5.555-9.554h-.5v.058l.014.058.486-.116zm0-44.425h.5v-.5h-.5v.5zm-47 0v-.5h-.5v.5h.5zm0 14.05-.25.433.75.433v-.866h-.5zm-126.419-56.699c3.733-2.155 8.656-3.247 13.607-3.247 4.95 0 9.873 1.092 13.606 3.247l.5-.866c-3.92-2.263-9.027-3.381-14.106-3.381-5.08 0-10.187 1.118-14.107 3.381l.5.866zm-90.522 52.263 90.522-52.263-.5-.866-90.522 52.263.5.866zm.25-.433v-.404h-1v.404h1zm-.5-.904h-25.16v1h25.16v-1zm-25.66.5v19.739h1v-19.739h-1zm.5 20.239h.006v-1h-.007v1zm5.994 6.942c-3.681-2.126-5.439-4.834-5.489-7.451l-1 .019c.06 3.09 2.128 6.069 5.989 8.298l.5-.866zm140.401 81.061L56.537 298.958l-.5.866 140.401 81.061.5-.866zm27.213 0c-3.732 2.154-8.656 3.246-13.606 3.246-4.951 0-9.874-1.092-13.607-3.246l-.5.866c3.92 2.263 9.027 3.38 14.107 3.38 5.079 0 10.186-1.117 14.106-3.38l-.5-.866zm109.938-63.473-109.938 63.473.5.866 109.938-63.473-.5-.866zm5.319-9.005c.738 3.093-.915 6.462-5.319 9.005l.5.866c4.621-2.668 6.671-6.419 5.791-10.104l-.972.233zm.986-.116V263h-1v44.425h1zm-.5-44.925h-47v1h47v-1zm-47.5.5v14.05h1V263h-1zm-98.706-42.649 98.956 57.132.5-.866-98.956-57.132-.5.866z" fill="#012135"></path>
    </mask>
    <g mask="url(#b)" fill="#083A5A">
      <path d="M207.894 195.999h191v237h-191zM204.894 196.249h1v236.75h-1z"></path>
    </g>
    <path d="m166.225 219.919.25.433-.25-.433zm27.713 0-.25.433.25-.433zM75.703 272.182h-.5v.866l.75-.433-.25-.433zm0-.403h.5v-.5h-.5v.5zm-25.16 0v-.5h-.5v.5h.5zm0 19.738h-.5v.5h.5v-.5zm.006 0 .5-.009-.01-.491h-.49v.5zm5.738 7.875.25-.433-.25.433zm140.401 81.061-.25.433.25-.433zm27.713 0 .25.433-.25-.433zm109.938-63.473.25.433-.25-.433zm5.555-9.554h-.5v.059l.014.057.486-.116zm0-44.425h.5v-.5h-.5v.5zm-47 0v-.5h-.5v.5h.5zm0 14.051-.25.433.75.433v-.866h-.5zm-126.419-56.7c3.733-2.155 8.656-3.247 13.607-3.247 4.95 0 9.873 1.092 13.606 3.247l.5-.866c-3.92-2.263-9.027-3.381-14.106-3.381-5.08 0-10.187 1.118-14.107 3.381l.5.866zm-90.522 52.263 90.522-52.263-.5-.866-90.522 52.263.5.866zm.25-.433v-.403h-1v.403h1zm-.5-.903h-25.16v1h25.16v-1zm-25.66.5v19.738h1v-19.738h-1zm.5 20.238h.006v-1h-.007v1zm5.994 6.942c-3.681-2.125-5.439-4.834-5.489-7.451l-1 .019c.06 3.09 2.128 6.069 5.989 8.298l.5-.866zm140.401 81.061L56.537 298.959l-.5.866 140.401 81.061.5-.866zm27.213 0c-3.732 2.155-8.656 3.246-13.606 3.246-4.951 0-9.874-1.091-13.607-3.246l-.5.866c3.92 2.263 9.027 3.38 14.107 3.38 5.079 0 10.186-1.117 14.106-3.38l-.5-.866zm109.938-63.473L224.151 380.02l.5.866 109.938-63.473-.5-.866zm5.319-9.005c.738 3.093-.915 6.462-5.319 9.005l.5.866c4.621-2.668 6.671-6.419 5.791-10.103l-.972.232zm.986-.116v-44.425h-1v44.425h1zm-.5-44.925h-47v1h47v-1zm-47.5.5v14.051h1v-14.051h-1zm-98.706-42.649 98.956 57.133.5-.867-98.956-57.132-.5.866z" fill="#012135"></path>
    <path d="M166.227 176.712c7.653-4.418 20.06-4.418 27.713 0l140.401 81.061c7.653 4.418 7.653 11.582 0 16l-71.994 41.566-19.543 34.579-168.114-97.06 19.543-34.58 71.994-41.566z" fill="#CDFFFA"></path>
    <path d="m74.69 252.858 168.114 97.06-18.408 10.628c-7.653 4.419-20.06 4.419-27.713 0l-140.401-81.06c-7.653-4.419-7.653-11.582 0-16l18.408-10.628z" fill="#CDFFFA"></path>
    <path d="m262.347 315.339 71.994-41.566c7.653-4.418 7.653-11.582 0-16L193.94 176.712c-7.653-4.418-20.06-4.418-27.713 0l-71.994 41.566m168.114 97.061-19.543 34.579m19.543-34.579L94.233 218.278m0 0-19.543 34.58m0 0-18.408 10.628c-7.653 4.418-7.653 11.581 0 16l140.401 81.06c7.653 4.419 20.06 4.419 27.713 0l18.408-10.628M74.69 252.858l168.114 97.06" stroke="#012135"></path>
    <path d="m75.222 252.922 19.192-33.965 167.271 96.569-19.066 33.725-167.397-96.329z" fill="#CDFFFA" stroke="#012135"></path>
    <path fill="#083A5A" d="m93.364 264.305 103.202 59.584-31.236 18.034-103.202-59.584z"></path>
    <rect width="146.05" height="73.57" rx="8" transform="matrix(.86603 .5 -.86603 .5 179.354 179.852)" fill="#CDFFFA" stroke="#012135"></rect>
    <path d="M184.055 194.035c3.826-2.209 10.03-2.209 13.856 0l96.274 55.584-45.757 26.418c-3.826 2.209-10.03 2.209-13.856 0l-89.346-51.584c-3.826-2.209-3.826-5.791 0-8l38.829-22.418zM199.983 180.035l103.202 59.584-9.779 5.646-103.202-59.584zM209.77 317.779l-84.413-48.561a3.935 3.935 0 1 1 3.928-6.82l84.362 48.65a3.883 3.883 0 0 1-3.877 6.731z" fill="#083A5A"></path>
    <path fill-rule="evenodd" clip-rule="evenodd" d="M186.27 183.617c-3.826-2.209-10.03-2.209-13.856 0l-49.857 28.785c-2.74 1.582-3.518 3.868-2.334 5.85.47-.786 1.248-1.523 2.334-2.15l49.857-28.785c3.826-2.21 10.03-2.21 13.856 0l112.627 65.024c1.086.628 1.864 1.365 2.334 2.151 1.184-1.982.406-4.268-2.334-5.85L186.27 183.617z" fill="#083A5A"></path>
    <path d="m172.414 183.617-.25-.433.25.433zm13.856 0-.25.433.25-.433zm-63.713 28.785-.25-.433.25.433zm-2.334 5.85-.429.257.429.718.429-.718-.429-.257zm2.334-2.15-.25-.433.25.433zm49.857-28.785-.25-.433.25.433zm13.856 0-.25.433.25-.433zm112.627 65.024.25-.433-.25.433zm2.334 2.151-.43.256.43.718.429-.718-.429-.256zm-2.334-5.85-.25.433.25-.433zM172.664 184.05c1.819-1.05 4.235-1.59 6.678-1.59 2.443 0 4.859.54 6.678 1.59l.5-.866c-2.007-1.158-4.606-1.724-7.178-1.724s-5.171.566-7.178 1.724l.5.866zm-49.857 28.785 49.857-28.785-.5-.866-49.857 28.785.5.866zm-2.155 5.161c-.517-.867-.598-1.774-.267-2.64.337-.88 1.119-1.769 2.422-2.521l-.5-.866c-1.438.831-2.414 1.876-2.856 3.03-.446 1.167-.324 2.394.343 3.51l.858-.513zm0 .513c.416-.696 1.124-1.379 2.155-1.974l-.5-.866c-1.142.659-1.99 1.451-2.513 2.327l.858.513zm2.155-1.974 49.857-28.785-.5-.866-49.857 28.785.5.866zm49.857-28.785c1.819-1.051 4.235-1.59 6.678-1.59 2.443 0 4.859.539 6.678 1.59l.5-.866c-2.007-1.159-4.606-1.724-7.178-1.724s-5.171.565-7.178 1.724l.5.866zm13.356 0 112.627 65.024.5-.866-112.627-65.024-.5.866zm112.627 65.024c1.031.596 1.738 1.279 2.154 1.974l.859-.513c-.523-.875-1.372-1.668-2.513-2.327l-.5.866zm0-3.699c1.302.752 2.085 1.641 2.421 2.521.332.866.251 1.773-.267 2.639l.859.513c.666-1.115.789-2.342.343-3.509-.442-1.154-1.418-2.2-2.856-3.03l-.5.866zM186.02 184.05l112.627 65.025.5-.866-112.627-65.025-.5.866z" fill="#012135"></path>
    <path d="m116.012 354.556 19.886 11.45 8.37-9.695 3.773-33.351-5.112-18.015-34.082 16.919 7.165 32.692z" fill="#083A5A" stroke="#012135"></path>
    <path d="M185.633 312.428c7.211 3.045 19.482 2.275 25.104.773l-78.142-45.085c-5.621 1.502-17.758 2.144-24.97-.901-5.793-2.446-13.903-12.102-25.233-7.724-2.523.975-7.438 3.569-8.963 13.14l-11.056-6.358c-1.944-1.005-3.77-1.187-6.243-.603-6.072 1.436-17.895 8.24-18.024 39.909-.103 25.336-23.266 44.507-34.981 50.901l77.715 45.164c11.715-6.394 35.171-25.516 35.274-50.852.129-31.669 12.23-37.591 18.023-39.909 5.794-2.317 17.637 3.348 5.021 31.541-12.616 28.194.258 25.362 4.635 22.53 4.377-2.833 11.715-9.527 8.496-27.551-4.682-26.221 4.359-31.25 8.111-32.699 11.329-4.378 19.439 5.278 25.233 7.724z" fill="#CDFFFA" stroke="#012135"></path>
    <path d="m140.103 311.318-77.76-45.064" stroke="#012135"></path>
    <path d="m252.336 295.748-.001.017c-.033.49.267 1.096 1.162 1.613l-.25.433.25-.433 6.608 3.815c.849.49 1.993.749 3.164.749s2.316-.259 3.164-.749l-14.097-5.445zm0 0v-2.228h2.514l.116-.067 18.864-10.891c.848-.49 1.993-.75 3.164-.75s2.315.26 3.164.75l5.277 3.047.016.009.017.008 2.456 1.184v.986l.002.021a1.08 1.08 0 0 1 0 .197v.006l-.001.009c-.045.444-.373.971-1.159 1.425l-20.333 11.739-14.097-5.445z" fill="#083A5A" stroke="#083A5A"></path>
    <path d="m263.412 286.972.035-.015.031-.018 10.315-5.955c1.674-.967 4.388-.967 6.062 0l6.705 3.871c1.674.966 1.674 2.533 0 3.5l-10.284 5.937-10.346 4.472c-1.706.737-4.092.639-5.599-.231l-6.634-3.83c-1.846-1.066-1.627-2.828.462-3.732l9.253-3.999z" fill="#F1843E" stroke="#083A5A"></path>
    <rect width="1.408" height="8.452" rx=".704" transform="matrix(.86603 -.5 .86603 .5 256.833 292.242)" fill="#083A5A"></rect>
    <path d="M67.062 153.201v29.282l-15.85 9.151v-29.282l15.85-9.151z" fill="#083A5A" stroke="#001928" stroke-linecap="round" stroke-linejoin="round"></path>
    <path transform="matrix(-.86603 .5 .86603 .5 104.033 161.25)" fill="#CDFFFA" stroke="#001928" stroke-linecap="round" stroke-linejoin="round" d="M0 0h13.403v13.403H0z"></path>
    <path transform="matrix(-.86603 .5 0 1 115.638 167.953)" fill="#083A5A" stroke="#001928" stroke-linecap="round" stroke-linejoin="round" d="M0 0h13.403v13.403H0z"></path>
    <path transform="matrix(-.86603 -.5 0 1 104.033 174.652)" fill="#99D3CE" stroke="#001928" stroke-linecap="round" stroke-linejoin="round" d="M0 0h13.403v13.403H0z"></path>
    <path fill-rule="evenodd" clip-rule="evenodd" d="m51.215 144.049 25.36 14.642v18.301l-25.36-14.641v29.283l-15.85-9.151v-47.585h0l15.85 9.151z" fill="#99D3CE" stroke="#001928" stroke-linecap="round" stroke-linejoin="round"></path>
    <path d="m51.213 125.75 41.209 23.792-15.85 9.151-41.21-23.792 15.85-9.151z" fill="#CDFFFA" stroke="#001928" stroke-linecap="round" stroke-linejoin="round"></path>
    <path d="m76.572 158.695 15.85-9.151v18.302l-15.85 9.151v-18.302z" fill="#083A5A" stroke="#001928" stroke-linecap="round" stroke-linejoin="round"></path>
    <path d="M33.117 342.147c.669-.53 1.334-1.052 1.997-1.566.597.342 1.193.68 1.79 1.014-.67.523-1.335 1.049-1.995 1.578l-1.791-1.026z" fill="#083A5A"></path>
    <path d="M34.909 343.173c.66-.529 1.325-1.055 1.995-1.578.596.334 1.193.676 1.79 1.026l-2.007 1.568-1.778-1.016zM36.687 344.189l2.008-1.568c.596.334 1.189.673 1.778 1.015-.661.522-1.326 1.048-1.995 1.579a125.11 125.11 0 0 1-1.79-1.026z" fill="#083A5A"></path>
    <path d="M38.478 345.215c.669-.531 1.334-1.057 1.995-1.579.596.335 1.193.673 1.79 1.015-.661.522-1.327 1.044-1.996 1.566l-1.789-1.002z" fill="#083A5A"></path>
    <path d="M40.267 346.217c.67-.522 1.335-1.044 1.996-1.566.603.325 1.203.655 1.8.99-.67.53-1.334 1.06-1.995 1.589-.596-.342-1.197-.679-1.801-1.013z" fill="#083A5A"></path>
    <path d="M42.069 347.23c.66-.529 1.325-1.059 1.993-1.589.596.334 1.197.668 1.8 1.001-.669.523-1.337 1.053-2.005 1.591l-1.788-1.003z" fill="#083A5A"></path>
    <path d="M43.857 348.233c.668-.538 1.336-1.068 2.005-1.591.597.334 1.196.664 1.8.99l-2.006 1.591a135.99 135.99 0 0 1-1.799-.99z" fill="#083A5A"></path>
    <path d="m45.656 349.223 2.006-1.591c.596.334 1.196.664 1.799.99-.676.531-1.352 1.066-2.027 1.605-.597-.334-1.19-.669-1.778-1.004z" fill="#083A5A"></path>
    <path d="M47.434 350.227c.675-.539 1.35-1.074 2.027-1.605.587.327 1.183.654 1.786.98-.675.539-1.347 1.077-2.014 1.615l-1.8-.99zM50.127 351.718c.674-.546 1.35-1.089 2.025-1.628.596.335 1.195.661 1.797.979-.674.546-1.349 1.089-2.024 1.628-.596-.327-1.195-.653-1.798-.979z" fill="#083A5A"></path>
    <path d="M51.925 352.697c.675-.539 1.35-1.082 2.025-1.628l1.809.977c-.682.547-1.36 1.094-2.035 1.641l-1.8-.99z" fill="#083A5A"></path>
    <path d="M53.724 353.687c.674-.547 1.353-1.094 2.035-1.641.594.319 1.194.645 1.798.978-.675.547-1.353 1.094-2.035 1.641-.595-.319-1.194-.645-1.798-.978zM56.416 355.166l2.044-1.665c.596.327 1.195.653 1.798.979l-2.044 1.665c-.603-.326-1.203-.652-1.798-.979z" fill="#083A5A"></path>
    <path d="m58.214 356.145 2.044-1.665c.602.318 1.205.64 1.808.965-.688.564-1.373 1.123-2.054 1.678-.603-.325-1.203-.652-1.798-.978z" fill="#083A5A"></path>
    <path d="M60.012 357.123c.681-.555 1.366-1.114 2.054-1.678.595.319 1.194.641 1.797.967l-2.052 1.701c-.603-.326-1.203-.655-1.8-.99z" fill="#083A5A"></path>
    <path d="m61.81 358.113 2.053-1.701c.602.318 1.205.644 1.81.977a357.25 357.25 0 0 0-2.064 1.703 160.08 160.08 0 0 0-1.798-.979z" fill="#083A5A"></path>
    <path d="M63.609 359.092a357.25 357.25 0 0 1 2.063-1.703l1.807.954c-.694.58-1.385 1.156-2.072 1.727-.604-.326-1.203-.652-1.798-.978z" fill="#083A5A"></path>
    <path d="M65.407 360.07c.687-.571 1.378-1.147 2.072-1.727.603.326 1.202.648 1.797.967-.694.58-1.388 1.164-2.082 1.751-.604-.333-1.2-.664-1.787-.991z" fill="#083A5A"></path>
    <path d="M67.194 361.061c.694-.587 1.388-1.171 2.082-1.751.603.326 1.206.648 1.808.966-.694.587-1.391 1.171-2.093 1.752a123.95 123.95 0 0 0-1.797-.967z" fill="#083A5A"></path>
    <path d="M68.99 362.028c.703-.581 1.4-1.165 2.094-1.752.603.326 1.206.647 1.808.965-.7.597-1.401 1.189-2.102 1.777l-1.8-.99zM71.695 363.507c.7-.589 1.402-1.181 2.102-1.777.603.326 1.21.647 1.82.964-.708.597-1.416 1.198-2.123 1.803-.597-.335-1.196-.665-1.8-.99z" fill="#083A5A"></path>
    <path d="M73.494 364.497c.707-.605 1.415-1.206 2.123-1.803.603.326 1.206.648 1.808.966-.707.605-1.419 1.206-2.135 1.803-.594-.318-1.193-.641-1.796-.966z" fill="#083A5A"></path>
    <path d="M75.29 365.463c.716-.597 1.428-1.198 2.135-1.803.603.326 1.202.648 1.797.967-.707.612-1.418 1.221-2.133 1.826-.603-.325-1.203-.655-1.799-.99z" fill="#083A5A"></path>
    <path d="M77.09 366.453c.714-.605 1.425-1.214 2.132-1.826.61.317 1.216.639 1.82.964-.715.613-1.43 1.226-2.143 1.84a112.97 112.97 0 0 1-1.81-.978zM79.793 367.932c.721-.622 1.438-1.243 2.152-1.864.61.325 1.217.647 1.82.965-.72.629-1.442 1.254-2.163 1.876l-1.809-.977z" fill="#083A5A"></path>
    <path d="M81.602 368.909c.721-.622 1.442-1.247 2.162-1.876.611.325 1.218.646 1.82.964-.728.63-1.452 1.264-2.17 1.901-.604-.326-1.208-.656-1.812-.989z" fill="#083A5A"></path>
    <path d="M83.413 369.898c.72-.637 1.443-1.271 2.171-1.901.61.31 1.216.631 1.82.965-.727.637-1.458 1.276-2.193 1.914-.595-.319-1.194-.645-1.798-.978zM86.106 371.389c.734-.654 1.47-1.308 2.212-1.963.595.326 1.198.648 1.808.965-.74.663-1.477 1.321-2.21 1.975l-1.81-.977z" fill="#083A5A"></path>
    <path d="M87.916 372.366c.733-.654 1.47-1.312 2.21-1.975a79.86 79.86 0 0 0 1.82.976l-2.22 1.988c-.603-.326-1.206-.655-1.81-.989zM89.727 373.355l2.22-1.988c.61.318 1.216.639 1.82.965a530.48 530.48 0 0 1-2.24 2.025 255.38 255.38 0 0 0-1.8-1.002z" fill="#083A5A"></path>
    <path d="M91.527 374.357a530.48 530.48 0 0 0 2.24-2.025c.61.317 1.217.642 1.82.976-.752.687-1.502 1.37-2.248 2.049l-1.812-1z" fill="#083A5A"></path>
    <path d="m93.339 375.357 2.249-2.049c.602.318 1.209.643 1.82.976-.759.703-1.519 1.399-2.28 2.087-.596-.342-1.193-.68-1.79-1.014z" fill="#083A5A"></path>
    <path d="M95.129 376.371c.76-.688 1.52-1.384 2.28-2.087.603.325 1.202.652 1.797.978-.765.72-1.527 1.428-2.287 2.123-.597-.342-1.194-.68-1.79-1.014zM28.323 345.985c.668-.538 1.332-1.072 1.993-1.602.596.335 1.193.677 1.791 1.026-.66.53-1.325 1.06-1.994 1.59-.596-.334-1.193-.672-1.79-1.014z" fill="#083A5A"></path>
    <path d="M30.113 346.999c.669-.53 1.333-1.06 1.994-1.59.596.335 1.193.673 1.79 1.015-.66.529-1.325 1.063-1.992 1.601-.598-.35-1.195-.692-1.792-1.026zM32.799 348.526c.668-.538 1.332-1.072 1.992-1.601.597.334 1.193.672 1.79 1.014l-2.005 1.591c-.596-.334-1.189-.669-1.777-1.004z" fill="#083A5A"></path>
    <path d="m34.576 349.53 2.005-1.591c.589.335 1.182.674 1.779 1.016-.661.529-1.326 1.059-1.994 1.589a216.47 216.47 0 0 1-1.79-1.014zM37.26 351.046l2.006-1.591c.597.342 1.193.676 1.788 1.003a325.14 325.14 0 0 1-2.004 1.602c-.596-.334-1.193-.672-1.79-1.014z" fill="#083A5A"></path>
    <path d="M39.05 352.06a325.14 325.14 0 0 0 2.004-1.602c.597.334 1.193.672 1.79 1.014l-2.005 1.591a113.97 113.97 0 0 1-1.789-1.003z" fill="#083A5A"></path>
    <path d="m40.84 353.063 2.004-1.591c.596.326 1.192.661 1.789 1.003a325.14 325.14 0 0 0-2.004 1.602c-.596-.334-1.193-.672-1.79-1.014z" fill="#083A5A"></path>
    <path d="M42.629 354.077a325.14 325.14 0 0 1 2.004-1.602l1.789 1.002c-.675.539-1.347 1.074-2.016 1.604-.597-.342-1.19-.676-1.777-1.004zM45.3 355.582a325.14 325.14 0 0 1 2.005-1.602c.595.327 1.191.661 1.788 1.003-.667.538-1.34 1.072-2.015 1.603a162.72 162.72 0 0 1-1.777-1.004z" fill="#083A5A"></path>
    <path d="M47.078 356.586c.676-.531 1.348-1.065 2.015-1.603.596.326 1.192.657 1.788.991a205.83 205.83 0 0 1-2.013 1.627c-.596-.335-1.193-.673-1.79-1.015z" fill="#083A5A"></path>
    <path d="M48.868 357.601a205.83 205.83 0 0 0 2.013-1.627c.604.333 1.204.667 1.8 1.001-.674.547-1.35 1.09-2.024 1.628l-1.79-1.002z" fill="#083A5A"></path>
    <path d="M50.657 358.603c.675-.538 1.35-1.081 2.024-1.628.596.327 1.191.657 1.788.992l-2.034 1.652c-.59-.343-1.182-.681-1.779-1.016zM52.435 359.619l2.034-1.652 1.788 1.002a155.3 155.3 0 0 0-2.045 1.654c-.596-.334-1.189-.669-1.777-1.004z" fill="#083A5A"></path>
    <path d="M54.212 360.623a155.3 155.3 0 0 1 2.045-1.654c.589.335 1.18.666 1.776.993l-2.044 1.665c-.596-.334-1.188-.669-1.777-1.004z" fill="#083A5A"></path>
    <path d="m55.99 361.627 2.043-1.665c.597.342 1.194.676 1.79 1.002-.681.563-1.366 1.123-2.055 1.678-.589-.335-1.182-.673-1.779-1.015zM58.663 363.155c.68-.562 1.365-1.126 2.053-1.689.597.334 1.192.664 1.788.991l-2.062 1.714c-.59-.343-1.182-.681-1.779-1.016zM60.442 364.171l2.062-1.714c.597.342 1.193.676 1.789 1.003-.688.571-1.38 1.139-2.075 1.703-.588-.327-1.18-.658-1.776-.992z" fill="#083A5A"></path>
    <path d="M62.218 365.163c.695-.564 1.387-1.132 2.075-1.703l1.788 1.002-2.084 1.728a79.405 79.405 0 0 1-1.78-1.027zM64.881 366.704c.694-.587 1.388-1.167 2.083-1.739.597.342 1.194.676 1.789 1.003-.702.58-1.4 1.164-2.093 1.752-.59-.343-1.182-.681-1.779-1.016z" fill="#083A5A"></path>
    <path d="M66.66 367.72c.693-.588 1.391-1.172 2.093-1.752.597.342 1.193.676 1.789 1.003-.701.588-1.4 1.172-2.094 1.752l-1.788-1.003z" fill="#083A5A"></path>
    <path d="M68.448 368.723c.695-.58 1.393-1.164 2.094-1.752.596.334 1.193.672 1.79 1.014l-2.104 1.765a88.006 88.006 0 0 1-1.78-1.027z" fill="#083A5A"></path>
    <path d="m70.228 369.75 2.104-1.765c.595.326 1.191.661 1.788 1.003-.708.596-1.412 1.189-2.114 1.777a135.45 135.45 0 0 1-1.778-1.015z" fill="#083A5A"></path>
    <path d="M72.006 370.765c.702-.588 1.406-1.181 2.114-1.777.597.334 1.193.672 1.79 1.014-.715.597-1.427 1.195-2.135 1.792l-1.769-1.029z" fill="#083A5A"></path>
    <path d="M73.775 371.794c.708-.597 1.42-1.195 2.135-1.792.588.327 1.184.658 1.788.991-.714.613-1.425 1.222-2.132 1.826a116.61 116.61 0 0 0-1.791-1.025z" fill="#083A5A"></path>
    <path d="M75.566 372.819c.707-.604 1.418-1.213 2.132-1.826.597.342 1.194.68 1.79 1.014l-2.143 1.839c-.598-.349-1.19-.692-1.78-1.027z" fill="#083A5A"></path>
    <path d="m77.345 373.846 2.143-1.839c.597.342 1.194.68 1.79 1.015-.722.613-1.44 1.227-2.154 1.84-.589-.335-1.182-.674-1.779-1.016z" fill="#083A5A"></path>
    <path d="M79.124 374.862c.714-.613 1.432-1.227 2.154-1.84.597.342 1.194.68 1.79 1.014-.721.621-1.439 1.243-2.152 1.863-.597-.342-1.194-.687-1.792-1.037zM23.493 349.919c.673-.554 1.344-1.104 2.01-1.65.597.335 1.197.669 1.8 1.002a677.71 677.71 0 0 0-2.011 1.638 135.99 135.99 0 0 0-1.8-.99z" fill="#083A5A"></path>
    <path d="M25.292 350.909a677.71 677.71 0 0 1 2.012-1.638l1.789 1.003c-.668.538-1.335 1.083-2 1.637a373.03 373.03 0 0 0-1.801-1.002z" fill="#083A5A"></path>
    <path d="M27.092 351.911c.666-.554 1.333-1.099 2-1.637.598.342 1.194.676 1.79 1.002-.66.545-1.323 1.087-1.99 1.625-.605-.334-1.204-.664-1.8-.99z" fill="#083A5A"></path>
    <path d="M28.891 352.901c.668-.538 1.331-1.08 1.99-1.625.605.342 1.206.679 1.802 1.014l-2.003 1.614-1.789-1.003z" fill="#083A5A"></path>
    <path d="m30.68 353.904 2.003-1.614c.596.334 1.188.668 1.777 1.003l-2.003 1.615c-.596-.335-1.189-.669-1.777-1.004z" fill="#083A5A"></path>
    <path d="m32.457 354.908 2.003-1.615c.596.335 1.193.673 1.79 1.015a325.14 325.14 0 0 0-2.004 1.602l-1.789-1.002z" fill="#083A5A"></path>
    <path d="M34.246 355.91a325.14 325.14 0 0 1 2.004-1.602l1.789 1.002c-.668.539-1.336 1.073-2.004 1.603l-1.79-1.003z" fill="#083A5A"></path>
    <path d="M36.035 356.913c.668-.53 1.336-1.064 2.004-1.603.596.335 1.188.669 1.777 1.004-.66.545-1.323 1.083-1.992 1.613-.596-.342-1.193-.68-1.79-1.014z" fill="#083A5A"></path>
    <path d="M37.825 357.927c.668-.53 1.332-1.068 1.99-1.613.598.342 1.195.68 1.79 1.015-.668.53-1.335 1.068-2.002 1.614-.59-.343-1.182-.681-1.779-1.016z" fill="#083A5A"></path>
    <path d="M39.603 358.943c.667-.546 1.334-1.084 2.003-1.614.597.342 1.19.68 1.778 1.015a148.28 148.28 0 0 0-2.004 1.603c-.596-.334-1.189-.669-1.777-1.004zM42.264 360.461a367.95 367.95 0 0 1 2.004-1.603c.589.335 1.181.67 1.777 1.004-.666.546-1.334 1.084-2.002 1.614-.597-.342-1.19-.68-1.779-1.015z" fill="#083A5A"></path>
    <path d="M44.043 361.476c.668-.53 1.336-1.068 2.002-1.614.59.343 1.182.682 1.779 1.016-.668.538-1.339 1.08-2.013 1.627l-1.768-1.029z" fill="#083A5A"></path>
    <path d="M45.81 362.505c.675-.547 1.346-1.089 2.014-1.627.59.343 1.182.681 1.778 1.015-.674.547-1.345 1.089-2.013 1.627-.597-.342-1.19-.68-1.778-1.015zM48.473 364.034c.668-.538 1.34-1.076 2.014-1.615.589.335 1.181.67 1.778 1.004-.674.554-1.352 1.105-2.034 1.652-.583-.351-1.169-.698-1.758-1.041z" fill="#083A5A"></path>
    <path d="M50.23 365.075c.683-.547 1.36-1.098 2.035-1.652.59.35 1.175.694 1.756 1.03-.674.546-1.348 1.096-2.022 1.651-.59-.351-1.18-.694-1.768-1.029zM52.871 366.619c.682-.547 1.36-1.094 2.035-1.641.589.335 1.178.678 1.768 1.029-.674.546-1.352 1.097-2.033 1.652-.59-.351-1.18-.697-1.77-1.04z" fill="#083A5A"></path>
    <path d="M54.64 367.659c.682-.555 1.36-1.106 2.034-1.652.597.334 1.19.672 1.779 1.015-.688.564-1.373 1.123-2.055 1.678-.582-.351-1.168-.698-1.757-1.041z" fill="#083A5A"></path>
    <path d="M56.398 368.7c.682-.555 1.367-1.114 2.055-1.678.59.351 1.18.693 1.768 1.028-.688.564-1.373 1.127-2.053 1.69-.59-.351-1.18-.697-1.77-1.04z" fill="#083A5A"></path>
    <path d="M58.168 369.74c.68-.563 1.365-1.126 2.053-1.69.59.351 1.18.697 1.77 1.04-.69.564-1.381 1.128-2.077 1.692-.582-.343-1.164-.691-1.746-1.042z" fill="#083A5A"></path>
    <path d="M59.914 370.782c.696-.564 1.388-1.128 2.076-1.692.59.351 1.176.698 1.758 1.041-.696.565-1.388 1.132-2.075 1.704a349.64 349.64 0 0 1-1.76-1.053z" fill="#083A5A"></path>
    <path d="M61.673 371.835c.687-.572 1.379-1.139 2.075-1.704.589.335 1.178.682 1.77 1.04l-2.086 1.716c-.583-.351-1.169-.702-1.76-1.052zM64.317 373.413l2.083-1.739c.591.358 1.181.708 1.77 1.051-.702.573-1.4 1.149-2.095 1.729-.59-.343-1.175-.69-1.758-1.041z" fill="#083A5A"></path>
    <path d="M66.075 374.454c.694-.58 1.393-1.156 2.096-1.729.589.343 1.179.689 1.769 1.04l-2.106 1.742a83.338 83.338 0 0 1-1.76-1.053zM68.72 376.044l2.104-1.765c.59.351 1.18.697 1.77 1.04a306.47 306.47 0 0 0-2.125 1.79c-.591-.358-1.174-.713-1.749-1.065z" fill="#083A5A"></path>
    <path d="M70.469 377.109c.7-.596 1.408-1.192 2.124-1.79.584.359 1.17.71 1.76 1.053l-2.115 1.777c-.59-.35-1.18-.697-1.77-1.04z" fill="#083A5A"></path>
    <path d="m72.238 378.149 2.114-1.777c.59.342 1.18.693 1.77 1.051l-2.124 1.79c-.59-.35-1.177-.705-1.76-1.064z" fill="#083A5A"></path>
    <path d="m73.998 379.213 2.125-1.79c.589.343 1.18.693 1.77 1.051a240.36 240.36 0 0 1-2.135 1.804c-.582-.352-1.169-.706-1.76-1.065z" fill="#083A5A"></path>
    <path d="M75.758 380.278a240.36 240.36 0 0 0 2.135-1.804c.598.35 1.192.7 1.782 1.051-.714.613-1.429 1.218-2.145 1.816a194.77 194.77 0 0 0-1.772-1.063z" fill="#083A5A"></path>
    <path d="M77.53 381.341c.716-.598 1.431-1.203 2.145-1.816l1.77 1.051c-.72.621-1.442 1.235-2.165 1.842a62.38 62.38 0 0 0-1.75-1.077z" fill="#083A5A"></path>
    <path d="M79.28 382.418c.723-.607 1.445-1.221 2.166-1.842.59.358 1.178.713 1.76 1.064-.722.614-1.444 1.232-2.165 1.853a84.575 84.575 0 0 0-1.76-1.075zM18.628 353.975c.687-.579 1.366-1.154 2.038-1.723.604.333 1.203.659 1.798.978a394.51 394.51 0 0 0-2.017 1.697 82.821 82.821 0 0 0-1.819-.952z" fill="#083A5A"></path>
    <path d="M20.447 354.927a394.51 394.51 0 0 1 2.017-1.697c.604.333 1.207.659 1.81.977-.674.554-1.344 1.112-2.009 1.673-.61-.317-1.216-.635-1.818-.953z" fill="#083A5A"></path>
    <path d="M22.265 355.88c.665-.561 1.335-1.119 2.008-1.673.604.326 1.203.656 1.8.99-.667.546-1.334 1.095-2 1.649-.602-.318-1.205-.64-1.808-.966z" fill="#083A5A"></path>
    <path d="M24.073 356.846c.666-.554 1.333-1.103 2-1.649.603.326 1.202.656 1.799.99-.668.538-1.335 1.08-2.002 1.626a134.53 134.53 0 0 1-1.797-.967z" fill="#083A5A"></path>
    <path d="M25.87 357.813c.667-.546 1.334-1.088 2.002-1.626.603.326 1.202.656 1.799.99l-2.003 1.614c-.596-.326-1.195-.653-1.798-.978z" fill="#083A5A"></path>
    <path d="m27.668 358.791 2.003-1.614 1.786.98c-.667.545-1.334 1.087-2.002 1.625-.596-.334-1.192-.664-1.787-.991zM48.09 286.675c.16-.85.33-1.71.5-2.57.54.36 1.08.7 1.64 1.04-.17.85-.33 1.71-.48 2.55-.57-.33-1.12-.67-1.66-1.02z" fill="#083A5A"></path>
    <path d="M49.75 287.695c.15-.84.31-1.7.48-2.55.55.33 1.11.67 1.67 1.01-.15.85-.32 1.72-.47 2.57-.56-.33-1.13-.68-1.68-1.03z" fill="#083A5A"></path>
    <path d="M51.43 288.725c.15-.85.32-1.72.47-2.57.55.35 1.1.69 1.67 1.03l-.45 2.56c-.56-.34-1.13-.68-1.69-1.02zM53.12 289.745l.45-2.56c.55.34 1.11.68 1.68 1.02-.15.85-.29 1.71-.44 2.56-.57-.34-1.13-.68-1.69-1.02zM55.67 291.255c.14-.83.28-1.68.43-2.54.55.34 1.12.68 1.69 1.01-.14.86-.28 1.71-.41 2.55-.58-.33-1.15-.67-1.71-1.02z" fill="#083A5A"></path>
    <path d="M57.38 292.275c.13-.84.27-1.69.41-2.55.56.34 1.13.69 1.7 1.02-.14.86-.27 1.71-.39 2.56-.58-.33-1.15-.67-1.72-1.03zM59.95 293.825c.13-.86.26-1.71.4-2.57.57.35 1.13.69 1.7 1.03-.12.85-.25 1.7-.37 2.56-.58-.34-1.15-.69-1.73-1.02z" fill="#083A5A"></path>
    <path d="M61.68 294.845c.12-.86.25-1.71.37-2.56.58.35 1.15.68 1.73 1.01-.12.85-.24 1.72-.37 2.57-.58-.34-1.16-.68-1.73-1.02z" fill="#083A5A"></path>
    <path d="M63.41 295.865c.13-.85.25-1.72.37-2.57.58.36 1.14.69 1.72 1.03-.11.85-.23 1.71-.34 2.55-.58-.33-1.17-.67-1.75-1.01zM66.03 297.405c.11-.86.23-1.71.33-2.56.58.35 1.17.68 1.76 1.01-.12.86-.22 1.72-.33 2.56-.58-.34-1.17-.68-1.76-1.01z" fill="#083A5A"></path>
    <path d="M67.79 298.415c.11-.84.21-1.7.33-2.56.58.35 1.16.69 1.74 1.03-.11.85-.21 1.7-.31 2.55-.6-.34-1.18-.67-1.76-1.02z" fill="#083A5A"></path>
    <path d="M69.55 299.435c.1-.85.2-1.7.31-2.55.58.35 1.17.69 1.75 1.02-.1.86-.19 1.72-.29 2.57-.59-.34-1.19-.69-1.77-1.04z" fill="#083A5A"></path>
    <path d="M71.32 300.475c.1-.85.19-1.71.29-2.57.58.36 1.18.7 1.76 1.03-.1.86-.18 1.71-.28 2.57-.6-.34-1.18-.69-1.77-1.03z" fill="#083A5A"></path>
    <path d="M73.09 301.505c.1-.86.18-1.71.28-2.57.58.36 1.18.7 1.78 1.03-.1.85-.18 1.71-.28 2.57-.6-.34-1.19-.69-1.78-1.03z" fill="#083A5A"></path>
    <path d="M74.87 302.535c.1-.86.18-1.72.28-2.57l1.76 1.03c-.09.86-.17 1.71-.25 2.57-.6-.35-1.2-.7-1.79-1.03zM77.56 304.075c.07-.85.15-1.7.24-2.57.59.35 1.19.7 1.79 1.04-.09.86-.16 1.71-.24 2.55-.6-.34-1.2-.68-1.79-1.02z" fill="#083A5A"></path>
    <path d="M79.35 305.095c.08-.84.15-1.69.24-2.55.59.35 1.19.7 1.79 1.04-.08.85-.16 1.71-.23 2.55-.6-.34-1.21-.68-1.8-1.04z" fill="#083A5A"></path>
    <path d="M81.15 306.135c.07-.84.15-1.7.23-2.55.59.34 1.18.68 1.79 1.02-.08.86-.15 1.72-.21 2.56-.61-.34-1.22-.68-1.81-1.03z" fill="#083A5A"></path>
    <path d="M82.96 307.165c.06-.84.13-1.7.21-2.56.59.35 1.2.7 1.8 1.04-.08.86-.15 1.72-.2 2.56-.61-.34-1.21-.68-1.81-1.04zM85.67 308.715c.06-.84.12-1.7.2-2.56.6.36 1.21.7 1.81 1.04-.07.86-.14 1.71-.19 2.57-.61-.35-1.21-.7-1.82-1.05z" fill="#083A5A"></path>
    <path d="M87.49 309.765c.05-.86.12-1.71.19-2.57.6.35 1.2.7 1.81 1.03-.08.86-.14 1.72-.19 2.57-.61-.34-1.21-.69-1.81-1.03z" fill="#083A5A"></path>
    <path d="M89.3 310.795c.05-.85.11-1.71.19-2.57.59.36 1.21.7 1.82 1.03-.07.87-.13 1.73-.19 2.58-.61-.35-1.22-.69-1.82-1.04z" fill="#083A5A"></path>
    <path d="M91.12 311.835c.06-.85.12-1.71.19-2.58.6.37 1.2.71 1.81 1.04-.07.87-.13 1.73-.18 2.59-.61-.35-1.22-.7-1.82-1.05z" fill="#083A5A"></path>
    <path d="M92.94 312.885c.05-.86.11-1.72.18-2.59.59.36 1.21.71 1.83 1.04-.07.86-.13 1.73-.19 2.59-.62-.35-1.22-.69-1.82-1.04z" fill="#083A5A"></path>
    <path d="M94.76 313.925c.06-.86.12-1.73.19-2.59.59.36 1.2.71 1.81 1.05-.07.86-.12 1.72-.18 2.57-.61-.34-1.22-.68-1.82-1.03z" fill="#083A5A"></path>
    <path d="M96.58 314.955c.06-.85.11-1.71.18-2.57.6.34 1.21.69 1.83 1.05-.07.86-.13 1.71-.18 2.56-.62-.34-1.24-.69-1.83-1.04zM99.32 316.515c.06-.86.11-1.71.17-2.57.61.35 1.21.7 1.82 1.03l-.18 2.59c-.61-.34-1.22-.7-1.81-1.05zM101.13 317.565l.18-2.59c.61.36 1.21.71 1.83 1.05-.06.86-.13 1.72-.19 2.57-.62-.34-1.23-.69-1.82-1.03zM103.85 319.105c.06-.86.13-1.71.2-2.57.6.36 1.2.7 1.82 1.04l-.21 2.58c-.6-.34-1.21-.68-1.81-1.05z" fill="#083A5A"></path>
    <path d="m105.66 320.155.21-2.58c.6.34 1.21.7 1.82 1.05-.08.85-.14 1.71-.22 2.57-.6-.34-1.2-.69-1.81-1.04z" fill="#083A5A"></path>
    <path d="M107.47 321.195c.08-.86.14-1.72.22-2.57.6.34 1.2.69 1.82 1.04l-.24 2.57c-.6-.34-1.21-.69-1.8-1.04z" fill="#083A5A"></path>
    <path d="m109.27 322.235.24-2.57c.59.34 1.2.68 1.81 1.03-.09.86-.17 1.72-.25 2.58-.61-.35-1.2-.69-1.8-1.04z" fill="#083A5A"></path>
    <path d="M111.07 323.275c.08-.86.16-1.72.25-2.58.6.34 1.2.69 1.8 1.04-.09.86-.18 1.72-.26 2.57-.6-.34-1.19-.69-1.79-1.03zM46.86 292.845c.17-.86.34-1.72.52-2.58.55.35 1.12.69 1.69 1.02-.17.86-.34 1.72-.51 2.57-.57-.33-1.13-.68-1.7-1.01zM49.43 294.365c.16-.85.32-1.71.49-2.57.57.33 1.14.68 1.71 1.01-.16.87-.32 1.72-.47 2.57-.58-.34-1.16-.67-1.73-1.01z" fill="#083A5A"></path>
    <path d="M51.16 295.375c.15-.85.31-1.7.47-2.57.57.34 1.14.68 1.71 1.03l-.45 2.56c-.58-.35-1.16-.69-1.73-1.02zM52.89 296.395l.45-2.56c.57.35 1.14.68 1.73 1.01-.15.85-.29 1.7-.44 2.55-.58-.33-1.17-.67-1.74-1z" fill="#083A5A"></path>
    <path d="M54.63 297.395c.15-.85.29-1.7.44-2.55.57.35 1.14.69 1.73 1.01-.15.86-.29 1.72-.41 2.57-.59-.34-1.18-.68-1.76-1.03z" fill="#083A5A"></path>
    <path d="M56.39 298.425c.12-.85.26-1.71.41-2.57.57.36 1.15.69 1.74 1.03-.13.85-.27 1.69-.4 2.54-.6-.33-1.18-.67-1.75-1z" fill="#083A5A"></path>
    <path d="M58.14 299.425c.13-.85.27-1.69.4-2.54.57.35 1.16.68 1.74 1.01-.13.86-.26 1.71-.38 2.55-.59-.34-1.18-.67-1.76-1.02z" fill="#083A5A"></path>
    <path d="M59.9 300.445c.12-.84.25-1.69.38-2.55.58.35 1.17.69 1.75 1.03-.13.85-.24 1.7-.36 2.55-.59-.34-1.18-.68-1.77-1.03z" fill="#083A5A"></path>
    <path d="M61.67 301.475c.12-.85.23-1.7.36-2.55.59.34 1.18.68 1.76 1.02l-.33 2.55c-.6-.35-1.19-.68-1.79-1.02zM64.35 303.005l.33-2.56c.58.35 1.17.7 1.78 1.04-.11.85-.21 1.7-.32 2.54-.61-.34-1.21-.69-1.79-1.02z" fill="#083A5A"></path>
    <path d="M66.14 304.025c.11-.84.21-1.69.32-2.54.59.33 1.17.67 1.77 1.01-.11.86-.21 1.71-.3 2.55-.6-.33-1.2-.67-1.79-1.02zM68.82 305.565l.3-2.56c.6.36 1.2.7 1.8 1.04-.1.85-.2 1.7-.29 2.55-.6-.34-1.2-.69-1.81-1.03z" fill="#083A5A"></path>
    <path d="M70.63 306.595c.09-.85.19-1.7.29-2.55.59.35 1.18.69 1.78 1.02-.1.85-.18 1.71-.26 2.56-.61-.34-1.21-.69-1.81-1.03z" fill="#083A5A"></path>
    <path d="M72.44 307.625c.08-.85.16-1.71.26-2.56.59.36 1.19.7 1.81 1.04-.1.85-.18 1.7-.26 2.55-.61-.35-1.22-.69-1.81-1.03z" fill="#083A5A"></path>
    <path d="M74.25 308.655c.08-.85.16-1.7.26-2.55.59.35 1.19.69 1.8 1.02-.09.86-.17 1.71-.24 2.56-.61-.34-1.22-.68-1.82-1.03z" fill="#083A5A"></path>
    <path d="M76.07 309.685c.07-.85.15-1.7.24-2.56.59.36 1.2.7 1.81 1.04-.08.86-.15 1.71-.23 2.55-.62-.34-1.23-.68-1.82-1.03zM78.8 311.245c.07-.85.15-1.7.23-2.56.59.35 1.2.69 1.81 1.03-.08.86-.15 1.72-.22 2.57-.61-.35-1.22-.7-1.82-1.04z" fill="#083A5A"></path>
    <path d="M80.62 312.285c.07-.85.14-1.71.22-2.57.6.35 1.21.69 1.83 1.04-.08.85-.15 1.72-.21 2.57-.62-.35-1.23-.7-1.84-1.04z" fill="#083A5A"></path>
    <path d="M82.46 313.325c.06-.85.13-1.72.21-2.57.59.35 1.2.69 1.81 1.04-.07.86-.13 1.72-.19 2.57-.62-.34-1.23-.69-1.83-1.04zM85.2 314.885c.06-.86.12-1.71.19-2.56.61.34 1.22.69 1.83 1.03l-.18 2.57c-.61-.34-1.23-.7-1.84-1.04zM87.04 315.925l.18-2.57c.6.34 1.21.7 1.82 1.05-.07.86-.13 1.71-.18 2.56-.6-.34-1.22-.69-1.82-1.04z" fill="#083A5A"></path>
    <path d="M88.86 316.965c.05-.85.11-1.7.18-2.56.6.34 1.21.7 1.83 1.04-.07.85-.12 1.71-.17 2.57-.62-.35-1.24-.69-1.84-1.05z" fill="#083A5A"></path>
    <path d="M90.7 318.015c.05-.86.1-1.72.17-2.57.6.34 1.21.7 1.82 1.04-.06.85-.11 1.7-.17 2.56-.6-.34-1.22-.68-1.82-1.03z" fill="#083A5A"></path>
    <path d="M92.52 319.045c.06-.86.11-1.71.17-2.56.6.34 1.21.69 1.82 1.04-.06.86-.11 1.71-.17 2.57-.61-.34-1.22-.7-1.82-1.05z" fill="#083A5A"></path>
    <path d="M94.34 320.095c.06-.86.11-1.71.17-2.57.6.35 1.21.7 1.82 1.04-.06.86-.11 1.71-.17 2.57-.6-.34-1.21-.7-1.82-1.04zM97.06 321.655c.06-.85.11-1.71.18-2.57.6.35 1.21.7 1.82 1.03-.07.86-.12 1.73-.18 2.59-.61-.35-1.22-.71-1.82-1.05z" fill="#083A5A"></path>
    <path d="M98.88 322.705c.06-.86.11-1.73.18-2.59.6.36 1.2.71 1.8 1.04-.06.87-.13 1.73-.18 2.58-.6-.34-1.2-.69-1.8-1.03z" fill="#083A5A"></path>
    <path d="M100.68 323.735c.05-.85.12-1.71.18-2.58.6.36 1.2.71 1.81 1.05-.07.86-.13 1.72-.2 2.58-.61-.34-1.2-.7-1.79-1.05z" fill="#083A5A"></path>
    <path d="M102.47 324.785c.07-.86.13-1.72.2-2.58.59.34 1.19.7 1.8 1.04-.08.86-.14 1.72-.22 2.58-.59-.34-1.18-.7-1.78-1.04zM45.65 298.975c.16-.85.33-1.7.5-2.54.57.33 1.15.66 1.72 1.01-.17.85-.32 1.69-.48 2.53-.59-.33-1.17-.66-1.74-1z" fill="#083A5A"></path>
    <path d="M47.39 299.975c.16-.84.31-1.68.48-2.53.58.33 1.16.67 1.76 1-.16.86-.31 1.7-.47 2.55-.6-.33-1.2-.67-1.77-1.02z" fill="#083A5A"></path>
    <path d="M49.16 300.995c.16-.85.31-1.69.47-2.55.58.34 1.16.67 1.75 1-.15.85-.3 1.7-.44 2.55-.6-.33-1.19-.67-1.78-1z" fill="#083A5A"></path>
    <path d="M50.94 301.995c.14-.85.29-1.7.44-2.55.59.34 1.18.68 1.77 1.01-.15.85-.29 1.7-.43 2.55-.61-.33-1.2-.66-1.78-1.01z" fill="#083A5A"></path>
    <path d="M52.72 303.005c.14-.85.28-1.7.43-2.55.59.35 1.18.69 1.78 1.02-.15.85-.29 1.7-.41 2.54-.61-.33-1.2-.67-1.8-1.01z" fill="#083A5A"></path>
    <path d="M54.52 304.015c.12-.84.26-1.69.41-2.54.58.34 1.17.67 1.77 1.02-.14.85-.26 1.69-.38 2.52-.61-.32-1.21-.66-1.8-1z" fill="#083A5A"></path>
    <path d="M56.32 305.015c.12-.83.24-1.67.38-2.52.6.33 1.2.67 1.79 1.01-.12.85-.25 1.69-.37 2.54-.61-.34-1.21-.67-1.8-1.03z" fill="#083A5A"></path>
    <path d="M58.12 306.045c.12-.85.25-1.69.37-2.54.6.34 1.19.67 1.79 1.02-.12.85-.23 1.7-.35 2.52-.61-.32-1.21-.66-1.81-1z" fill="#083A5A"></path>
    <path d="M59.93 307.045c.12-.82.23-1.67.35-2.52.59.34 1.2.67 1.81 1.02-.12.85-.23 1.69-.34 2.52-.61-.32-1.23-.66-1.82-1.02zM62.66 308.595c.1-.85.21-1.7.32-2.54.6.34 1.2.68 1.81 1.01-.11.86-.22 1.71-.31 2.56-.61-.35-1.21-.69-1.82-1.03z" fill="#083A5A"></path>
    <path d="M64.48 309.625c.09-.85.2-1.7.31-2.56.6.36 1.2.7 1.82 1.03-.1.85-.21 1.7-.3 2.54-.6-.34-1.21-.68-1.83-1.01z" fill="#083A5A"></path>
    <path d="M66.31 310.635c.09-.84.2-1.69.3-2.54.59.35 1.2.69 1.81 1.02-.1.86-.19 1.71-.28 2.55-.61-.34-1.22-.69-1.83-1.03z" fill="#083A5A"></path>
    <path d="M68.14 311.665c.09-.84.18-1.69.28-2.55.62.36 1.22.7 1.83 1.04-.09.86-.18 1.71-.26 2.56-.61-.34-1.22-.7-1.85-1.05z" fill="#083A5A"></path>
    <path d="M69.99 312.715c.08-.85.17-1.7.26-2.56.6.35 1.21.69 1.83 1.03-.09.85-.17 1.71-.25 2.56-.61-.34-1.23-.68-1.84-1.03z" fill="#083A5A"></path>
    <path d="M71.83 313.745c.08-.85.16-1.71.25-2.56.6.35 1.21.7 1.84 1.05-.09.86-.17 1.7-.23 2.55-.63-.34-1.25-.68-1.86-1.04z" fill="#083A5A"></path>
    <path d="M73.69 314.785c.06-.85.14-1.69.23-2.55.6.35 1.21.69 1.82 1.04l-.21 2.55c-.61-.34-1.23-.69-1.84-1.04z" fill="#083A5A"></path>
    <path d="m75.53 315.825.21-2.55c.62.34 1.23.7 1.86 1.04-.08.85-.15 1.7-.2 2.55-.63-.34-1.25-.69-1.87-1.04z" fill="#083A5A"></path>
    <path d="M77.4 316.865c.05-.85.12-1.7.2-2.55.6.34 1.22.7 1.83 1.04-.07.86-.13 1.7-.18 2.55-.62-.34-1.24-.68-1.85-1.04z" fill="#083A5A"></path>
    <path d="M79.25 317.905c.05-.85.11-1.69.18-2.55.61.34 1.23.69 1.84 1.03-.07.86-.13 1.72-.17 2.57-.62-.34-1.24-.69-1.85-1.05zM82.03 319.475c.05-.85.1-1.7.17-2.56.61.34 1.23.7 1.84 1.04-.06.86-.11 1.72-.17 2.57-.61-.35-1.23-.69-1.84-1.05z" fill="#083A5A"></path>
    <path d="M83.87 320.525c.06-.85.11-1.71.17-2.57.61.36 1.22.7 1.85 1.04-.07.87-.12 1.72-.15 2.58-.63-.34-1.26-.7-1.87-1.05zM86.65 322.085c.05-.84.1-1.7.16-2.57.6.36 1.21.71 1.83 1.06-.06.86-.11 1.72-.15 2.57-.61-.35-1.23-.69-1.84-1.06z" fill="#083A5A"></path>
    <path d="M88.49 323.145c.04-.85.09-1.71.15-2.57.6.34 1.21.69 1.84 1.04-.06.86-.1 1.72-.16 2.58l-1.83-1.05z" fill="#083A5A"></path>
    <path d="M90.32 324.195c.06-.86.1-1.72.16-2.58.6.35 1.21.69 1.81 1.04-.05.87-.09 1.73-.14 2.57-.61-.34-1.22-.69-1.83-1.03z" fill="#083A5A"></path>
    <path d="M92.15 325.225c.05-.84.09-1.7.14-2.57.61.34 1.22.7 1.84 1.04-.06.87-.11 1.73-.16 2.59-.61-.35-1.22-.7-1.82-1.06zM94.88 326.795l.15-2.57c.59.35 1.2.7 1.8 1.03-.05.87-.11 1.74-.16 2.6-.6-.35-1.2-.7-1.79-1.06z" fill="#083A5A"></path>
    <path d="M96.67 327.855c.05-.86.11-1.73.16-2.6.6.37 1.2.71 1.8 1.04-.06.88-.11 1.74-.15 2.6-.61-.34-1.21-.7-1.81-1.04z" fill="#083A5A"></path>
    <path d="M98.48 328.895c.04-.86.09-1.72.15-2.6.6.37 1.19.71 1.79 1.05l-.18 2.59c-.58-.34-1.17-.7-1.76-1.04z" fill="#083A5A"></path>
    <path d="m100.24 329.935.18-2.59c.59.36 1.19.7 1.78 1.05l-.18 2.58c-.6-.34-1.19-.68-1.78-1.04zM102.02 330.975l.18-2.58c.59.35 1.18.69 1.78 1.04-.07.86-.14 1.72-.2 2.58-.59-.34-1.17-.68-1.76-1.04z" fill="#083A5A"></path>
    <path d="M103.78 332.015c.06-.86.13-1.72.2-2.58.57.35 1.17.7 1.76 1.05l-.21 2.57c-.59-.34-1.18-.68-1.75-1.04z" fill="#083A5A"></path>
    <path d="m105.53 333.055.21-2.57 1.74 1.02c-.07.87-.15 1.73-.22 2.59-.57-.34-1.15-.69-1.73-1.04zM108.13 334.615c.07-.86.15-1.72.22-2.58.58.35 1.16.69 1.75 1.03l-.24 2.59c-.58-.34-1.16-.69-1.73-1.04zM109.86 335.655l.24-2.59c.57.36 1.15.7 1.73 1.03-.1.86-.18 1.73-.26 2.6-.57-.36-1.14-.7-1.71-1.04zM44.46 305.095c.15-.84.31-1.68.48-2.53.6.33 1.19.66 1.78.98-.16.86-.31 1.71-.45 2.55-.61-.33-1.21-.67-1.81-1z" fill="#083A5A"></path>
    <path d="M46.27 306.095c.14-.84.29-1.69.45-2.55.59.34 1.19.67 1.81 1-.16.86-.31 1.71-.44 2.53-.63-.32-1.24-.64-1.82-.98z" fill="#083A5A"></path>
    <path d="M48.09 307.075c.13-.82.28-1.67.44-2.53.59.34 1.2.68 1.8 1.01-.14.85-.29 1.69-.42 2.52-.61-.32-1.22-.65-1.82-1z" fill="#083A5A"></path>
    <path d="M49.91 308.075c.13-.83.28-1.67.42-2.52.6.33 1.2.68 1.81 1.01-.14.84-.27 1.68-.4 2.51-.61-.32-1.22-.65-1.83-1z" fill="#083A5A"></path>
    <path d="M51.74 309.075c.13-.83.26-1.67.4-2.51l1.83.99c-.13.85-.25 1.69-.38 2.53-.61-.34-1.24-.67-1.85-1.01z" fill="#083A5A"></path>
    <path d="M53.59 310.085c.13-.84.25-1.68.38-2.53.6.34 1.21.68 1.82 1.03-.12.84-.24 1.67-.35 2.52-.62-.34-1.23-.68-1.85-1.02zM56.36 311.615c.12-.84.23-1.69.35-2.54.61.35 1.22.69 1.84 1.01-.12.86-.24 1.7-.34 2.54-.62-.33-1.23-.66-1.85-1.01z" fill="#083A5A"></path>
    <path d="M58.21 312.625c.1-.84.22-1.68.34-2.54.6.35 1.21.69 1.83 1.02-.11.86-.21 1.7-.31 2.55-.63-.34-1.24-.68-1.86-1.03z" fill="#083A5A"></path>
    <path d="M60.07 313.655c.1-.85.2-1.69.31-2.55.62.36 1.23.71 1.85 1.05-.11.83-.21 1.68-.3 2.53-.63-.34-1.24-.68-1.86-1.03z" fill="#083A5A"></path>
    <path d="M61.93 314.685c.09-.85.19-1.7.3-2.53.61.34 1.22.68 1.84 1.02-.1.84-.19 1.69-.27 2.54-.63-.34-1.24-.68-1.87-1.03z" fill="#083A5A"></path>
    <path d="M63.8 315.715c.08-.85.17-1.7.27-2.54.63.34 1.24.69 1.86 1.04-.09.83-.18 1.68-.25 2.53-.63-.34-1.25-.69-1.88-1.03z" fill="#083A5A"></path>
    <path d="M65.68 316.745c.07-.85.16-1.7.25-2.53.61.34 1.23.68 1.86 1.02-.08.85-.17 1.7-.25 2.55-.62-.34-1.24-.69-1.86-1.04z" fill="#083A5A"></path>
    <path d="M67.54 317.785c.08-.85.17-1.7.25-2.55.63.35 1.25.7 1.87 1.04-.08.85-.16 1.7-.22 2.54-.64-.34-1.26-.69-1.9-1.03z" fill="#083A5A"></path>
    <path d="m34.609 321.93 78.494 43.661" stroke="#083A5A" stroke-linejoin="round" stroke-dasharray="2 2"></path>
    <rect width="2.215" height="30.378" rx="1.108" transform="matrix(.86603 -.5 0 1 327.597 284.984)" fill="#CDFFFA"></rect>
    <rect width="2.215" height="30.378" rx="1.108" transform="matrix(.86603 -.5 0 1 321.675 288.32)" fill="#CDFFFA"></rect>
    <rect width="2.215" height="30.378" rx="1.108" transform="matrix(.86603 -.5 0 1 315.761 291.812)" fill="#CDFFFA"></rect>
    <rect width="48.74" height="27.752" rx="5" transform="matrix(.86603 -.5 0 1 267.324 321.34)" stroke="#CDFFFA"></rect>
    <path d="M212.008 177.061c-6.583-9.802-9.875-21.605-9.875-35.407v-75.89c-.219-.13-.44-.259-.661-.386-9.355-5.402-17.324-7.002-23.907-4.801-6.583 2.2-9.875 10.302-9.875 24.305v76.515c0 13.803 3.292 25.605 9.875 35.407 6.583 9.602 14.552 17.104 23.907 22.505s17.237 7.051 23.647 4.951c6.583-2.201 9.875-10.202 9.875-24.005v-1.231c-8.958-5.357-16.62-12.678-22.986-21.963z" fill="#083A5A" stroke="#012135"></path>
    <path d="M299.838 196.864c0 22.81-5.524 37.189-16.572 43.135-.078.047-.157.094-.237.14l-33.637 19.42c-1.833 1.059-3.939 1.863-6.188 2.415a33.716 33.716 0 0 0 3.221-1.108c12.646-5.101 18.97-19.854 18.97-44.259v-75.915c0-24.005-6.324-45.66-18.97-64.963-12.474-19.404-27.459-34.157-44.956-44.26-17.497-10.101-32.569-12.702-45.216-7.8a22.762 22.762 0 0 0-6.891 4.031c.794-.751 1.754-1.46 2.88-2.11l33.637-19.421c.729-.42 1.5-.8 2.306-1.141.807-.413 1.644-.78 2.512-1.103 12.646-4.901 27.718-2.3 45.215 7.801 17.498 10.102 32.483 24.855 44.956 44.26 12.647 19.303 18.97 40.958 18.97 64.963v75.915z" fill="#083A5A" stroke="#012135"></path>
    <mask id="c" style="mask-type:alpha" maskUnits="userSpaceOnUse" x="149" y="1" width="151" height="261">
      <path d="m283.029 239.559-.01.005-.009.006c-.076.046-.153.091-.231.136l-27.947 16.135c7.419-7.544 11.063-20.689 11.063-39.234v-75.915c0-24.097-6.349-45.847-19.051-65.235-12.51-19.46-27.55-34.273-45.125-44.42-16.165-9.333-30.361-12.34-42.535-8.878l26.945-15.557c.709-.41 1.462-.78 2.25-1.113l.017-.008.016-.008a23 23 0 0 1 2.459-1.08l.006-.002c12.447-4.824 27.353-2.296 44.785 7.768 17.419 10.057 32.349 24.75 44.785 44.097l.003.004c12.591 19.219 18.888 40.777 18.888 64.689v75.915c0 22.778-5.523 36.89-16.309 42.695z" fill="#083A5A" stroke="#012135"></path>
    </mask>
    <g mask="url(#c)" fill="#CDFFFA">
      <path d="M186.519-86.703 373.375 21.178l-187.008 107.97L-.489 21.265zM375.366 24l-1.732-1-176.202 101.73 1.732 1z"></path>
    </g>
    <path d="M265.395 216.606c0 24.405-6.323 39.158-18.97 44.259-12.473 5.001-27.459 2.451-44.956-7.651-11.087-6.402-21.308-14.603-30.663-24.605-9.355-10.202-17.324-22.905-23.907-38.108-6.41-15.303-9.615-31.256-9.615-47.86V66.726c0-24.005 6.323-38.358 18.969-43.059 12.647-4.9 27.719-2.3 45.216 7.802s32.483 24.855 44.956 44.259c12.647 19.304 18.97 40.958 18.97 64.963v75.915zm-97.708-55.211c0 13.803 3.292 25.605 9.875 35.407 6.583 9.602 14.552 17.104 23.907 22.505s17.238 7.051 23.647 4.951c6.584-2.201 9.875-10.202 9.875-24.005v-76.516c0-14.002-3.291-25.905-9.875-35.707-6.409-9.702-14.292-17.253-23.647-22.654-9.355-5.402-17.324-7.002-23.907-4.801-6.583 2.2-9.875 10.302-9.875 24.304v76.516z" fill="#99D3CE" stroke="#012135"></path>
    <path fill-rule="evenodd" clip-rule="evenodd" d="M198.598 128.454c1.786-.83 2.679-2.931 2.679-6.301v-7.999c0-3.37-.893-6.477-2.679-9.319a19.408 19.408 0 0 0-6.993-6.83c-2.875-1.66-5.206-2.074-6.992-1.244a3.55 3.55 0 0 0-.506.27l-10.256 5.918 4.845 3.895-.143.04-1.53 19.908 4.128 3.293 7.948-4.595c.124.1.248.198.375.295l-5.295 5.322 4.128 3.293 10.257-5.931.034-.015zm-10.054 21.686-.01-.029c-.131-.428-.087-.78.13-1.057l20.92-26.211-2.959-3.109c.141-.056 6.739-3.908 10.197-5.93.305-.248.743-.206 1.315.124l5.686 3.282c.435.252.719.591.849 1.019.175.402.153.742-.065 1.019l-28.101 35.089a.771.771 0 0 1-.297.233l-10.404 6.002-4.29-6.353c.105-.042 3.743-2.161 7.029-4.079zm40.376 21.477c1.786-.83 2.679-2.931 2.679-6.301v-7.999c0-3.37-.893-6.477-2.679-9.319-1.786-2.893-4.117-5.169-6.992-6.829-2.876-1.66-5.207-2.075-6.993-1.245a3.699 3.699 0 0 0-.509.272v-.001l-10.27 5.926 4.849 3.898-.148.041-1.529 19.908 4.127 3.293 7.964-4.604c.122.098.245.194.369.289l-5.304 5.332 4.127 3.293 10.265-5.934.044-.02z" fill="#083A5A"></path>
    <path d="m198.598 128.454.208.454.002-.001-.21-.453zm0-23.619-.428.26.004.006.424-.266zm-6.993-6.83-.25.434.25-.433zm-6.992-1.244.2.458.01-.005-.21-.453zm-.506.27.25.433.01-.006.011-.006-.271-.42zm-10.256 5.918-.25-.433-.632.365.569.458.313-.39zm4.845 3.895.134.482.94-.261-.76-.611-.314.39zm-.143.04-.134-.482-.338.094-.027.35.499.038zm-1.53 19.908-.498-.038-.021.264.207.165.312-.391zm4.128 3.293-.312.391.266.213.296-.171-.25-.433zm7.948-4.595.314-.389-.267-.216-.297.172.25.433zm.375.295.354.352.401-.403-.451-.346-.304.397zm-5.295 5.322-.354-.353-.393.396.436.347.311-.39zm4.128 3.293-.312.39.267.213.295-.171-.25-.432zm10.257-5.931-.208-.454-.022.01-.02.011.25.433zm-10.03 21.642-.478.146.002.009.003.008.473-.163zm.01.029.252.432.363-.212-.146-.394-.469.174zm.12-1.086-.39-.312-.002.003.392.309zm20.92-26.211.391.312.272-.341-.301-.316-.362.345zm-2.959-3.109-.186-.464-.686.274.51.535.362-.345zm10.197-5.93.252.432.033-.019.03-.025-.315-.388zm1.315.124.25-.433-.25.433zm5.686 3.282.25-.433-.25.433zm.849 1.019-.478.146.008.027.011.026.459-.199zm-.065 1.019.39.312.003-.003-.393-.309zm-28.101 35.089.389.314.002-.002-.391-.312zm-.297.233-.199-.459-.026.012-.024.014.249.433zm-10.404 6.002-.415.28.261.386.404-.232-.25-.434zm-4.29-6.353-.185-.465-.576.23.347.514.414-.279zm47.405 17.398.208.454.003-.001-.211-.453zm0-23.619-.425.263.002.003.423-.266zm-6.992-6.829.25-.433-.25.433zm-6.993-1.245.2.458.011-.005-.211-.453zm-.509.272-.398.303.28.369.39-.252-.272-.42zm0-.001.398-.302-.267-.351-.381.22.25.433zm-10.27 5.926-.25-.433-.633.365.57.458.313-.39zm4.849 3.898.133.482.94-.261-.76-.611-.313.39zm-.148.041-.133-.482-.338.094-.027.349.498.039zm-1.529 19.908-.499-.038-.02.264.207.165.312-.391zm4.127 3.293-.312.391.267.213.295-.171-.25-.433zm7.964-4.604.313-.39-.267-.215-.297.172.251.433zm.369.289.355.353.401-.404-.452-.346-.304.397zm-5.304 5.332-.354-.352-.394.395.436.348.312-.391zm4.127 3.293-.311.391.266.213.296-.171-.251-.433zm10.265-5.934-.208-.455-.022.01-.02.012.25.433zm-28.099-49.484c0 3.323-.883 5.147-2.39 5.847l.421.907c2.066-.96 2.969-3.337 2.969-6.754h-1zm0-7.999v7.999h1v-7.999h-1zm-2.603-9.053c1.736 2.762 2.603 5.776 2.603 9.053h1c0-3.464-.92-6.663-2.756-9.585l-.847.532zm-6.819-6.662a18.9 18.9 0 0 1 6.815 6.656l.855-.52a19.92 19.92 0 0 0-7.17-7.002l-.5.866zm-6.532-1.225c1.561-.725 3.701-.41 6.532 1.225l.5-.866c-2.92-1.686-5.441-2.2-7.453-1.266l.421.907zm-.445.238c.137-.088.281-.166.435-.233l-.4-.916c-.202.088-.394.19-.577.308l.542.84zm-10.277 5.93 10.256-5.918-.5-.866-10.256 5.918.5.866zm4.909 3.072-4.845-3.895-.627.78 4.845 3.895.627-.78zm-.324.912.144-.04-.267-.964-.144.04.267.964zm-1.164 19.465 1.529-19.909-.997-.076-1.529 19.908.997.077zm3.94 2.863-4.127-3.293-.624.782 4.128 3.293.623-.782zm7.387-4.637-7.949 4.595.501.866 7.948-4.595-.5-.866zm.929.331c-.123-.094-.244-.19-.365-.287l-.628.778c.127.102.255.203.384.302l.609-.793zm-5.244 6.071 5.294-5.322-.709-.705-5.294 5.322.709.705zm4.085 2.55-4.128-3.293-.623.781 4.127 3.293.624-.781zm9.695-5.973-10.257 5.931.5.865 10.258-5.93-.501-.866zm.075-.036-.033.015.417.908.033-.015-.417-.908zm-10.328 22.274.014.039.938-.347-.007-.019-.945.327zm.211-1.529c-.347.44-.381.975-.216 1.512l.956-.292c-.097-.319-.044-.488.045-.601l-.785-.619zm20.922-26.214-20.92 26.211.781.624 20.92-26.211-.781-.624zm-2.931-2.452 2.959 3.109.724-.69-2.959-3.108-.724.689zm10.306-6.706a4190.978 4190.978 0 0 1-9.028 5.262 155.648 155.648 0 0 1-1.121.643c-.027.014-.009.003.019-.008l.371.929a.832.832 0 0 0 .084-.041l.074-.041.242-.137c.202-.115.485-.279.832-.479a3758.18 3758.18 0 0 0 9.032-5.265l-.505-.863zm1.818.122c-.615-.356-1.32-.534-1.881-.079l.631.776c.05-.04.222-.136.75.169l.5-.866zm5.686 3.282-5.686-3.282-.5.866 5.686 3.282.5-.866zm1.077 1.306c-.172-.564-.547-.999-1.077-1.306l-.5.866c.341.197.532.441.621.732l.956-.292zm-.15 1.474c.361-.459.357-1.004.131-1.527l-.918.398c.123.282.076.416.001.51l.786.619zm-28.103 35.092 28.1-35.089-.78-.625-28.101 35.089.781.625zm-.489.38c.195-.085.357-.217.487-.378l-.777-.629a.288.288 0 0 1-.108.089l.398.918zm-10.353 5.977 10.404-6.003-.499-.866-10.405 6.002.5.867zm-4.954-6.508 4.289 6.354.829-.559-4.289-6.354-.829.559zm7.191-4.79c-1.643.959-3.374 1.968-4.706 2.743a691.747 691.747 0 0 1-2.12 1.224l-.132.074c-.049.027-.034.017-.004.005l.371.929c.043-.017.098-.048.116-.058l.142-.08c.118-.066.282-.161.486-.278a2878.86 2878.86 0 0 0 6.351-3.695l-.504-.864zm42.807 15.608c0 3.323-.883 5.147-2.39 5.847l.422.907c2.065-.96 2.968-3.337 2.968-6.754h-1zm0-7.999v7.999h1v-7.999h-1zm-2.602-9.053c1.736 2.762 2.602 5.776 2.602 9.053h1c0-3.464-.919-6.663-2.756-9.585l-.846.532zm-6.819-6.662c2.802 1.618 5.073 3.835 6.817 6.659l.85-.526c-1.828-2.961-4.219-5.297-7.167-6.999l-.5.866zm-6.532-1.225c1.56-.725 3.701-.41 6.532 1.225l.5-.866c-2.92-1.686-5.441-2.201-7.454-1.266l.422.907zm-.448.239c.137-.089.283-.167.437-.234l-.4-.917a4.187 4.187 0 0 0-.58.311l.543.84zm-.671-.119.001.002.797-.605-.001-.001-.797.604zm-9.621 6.057 10.269-5.926-.499-.866-10.27 5.926.5.866zm4.912 3.075-4.849-3.898-.626.78 4.848 3.897.627-.779zm-.327.912.147-.04-.267-.964-.147.041.267.963zm-1.165 19.465 1.53-19.908-.997-.077-1.53 19.909.997.076zm3.941 2.864-4.127-3.293-.624.782 4.127 3.293.624-.782zm7.401-4.646-7.963 4.604.5.866 7.964-4.604-.501-.866zm.924.325a15.908 15.908 0 0 1-.36-.282l-.627.78c.126.1.252.199.379.297l.608-.795zm-5.253 6.082 5.304-5.332-.709-.705-5.304 5.332.709.705zm4.084 2.55-4.127-3.293-.624.781 4.128 3.293.623-.781zm9.703-5.977-10.265 5.935.501.865 10.264-5.934-.5-.866zm.086-.042-.044.02.416.91.044-.021-.416-.909z" fill="#001928"></path>
    <path d="M190.87 128.161c0 3.37-.893 5.471-2.679 6.301-1.786.83-4.117.415-6.992-1.245-2.832-1.635-5.163-3.912-6.993-6.829-1.786-2.893-2.679-6.025-2.679-9.395v-7.999c0-3.37.893-5.446 2.679-6.225 1.786-.83 4.117-.415 6.993 1.245a19.402 19.402 0 0 1 6.992 6.829c1.786 2.842 2.679 5.949 2.679 9.319v7.999zm-6.142 32.221-5.751-3.32c-.436-.252-.719-.566-.85-.943-.13-.428-.087-.78.131-1.057l28.035-35.126c.305-.378.784-.378 1.438 0l5.685 3.282c.436.252.719.591.85 1.019.174.402.152.742-.066 1.019l-28.1 35.088c-.305.378-.762.39-1.372.038zm-6.274-39.541c0 1.208.261 2.264.784 3.17.523.855 1.176 1.509 1.961 1.961 1.873 1.082 2.81.441 2.81-1.924v-7.697c0-1.157-.262-2.163-.784-3.018-.523-.906-1.199-1.597-2.026-2.075-.785-.453-1.438-.528-1.961-.227-.523.252-.784.956-.784 2.113v7.697zm42.739 50.483c0 3.37-.893 5.471-2.679 6.301-1.787.83-4.117.415-6.993-1.245-2.875-1.66-5.206-3.937-6.992-6.829-1.787-2.893-2.68-6.025-2.68-9.395v-7.999c0-3.371.893-5.446 2.68-6.225 1.786-.83 4.117-.415 6.992 1.245 2.876 1.66 5.206 3.936 6.993 6.829 1.786 2.842 2.679 5.949 2.679 9.319v7.999zm-12.417-7.244c0 1.157.262 2.188.785 3.094.522.855 1.176 1.509 1.96 1.961.784.453 1.438.554 1.961.302.522-.302.784-1.031.784-2.188v-7.772c0-1.107-.262-2.113-.784-3.019-.523-.905-1.177-1.584-1.961-2.037-.784-.453-1.438-.528-1.96-.227-.523.302-.785 1.007-.785 2.113v7.773z" fill="#F1843E" stroke="#001928"></path>
  </g>
  <defs>
    <clipPath id="a">
      <path fill="#fff" d="M0 0h354v403H0z"></path>
    </clipPath>
  </defs>
</svg>
